<svg xmlns="http://www.w3.org/2000/svg" xmlns:xlink="http://www.w3.org/1999/xlink" x="0px" y="0px" viewBox="0 0 100 100" xml:space="preserve">	<path d="M50,99C23,99,1,77,1,50C1,23,23,1,50,1c27,0,49,22,49,49C99,77,77,99,50,99z M50,5.1C25.2,5.1,5.1,25.2,5.1,50  S25.2,94.9,50,94.9S94.9,74.8,94.9,50S74.8,5.1,50,5.1z"></path>	<path d="M43.9,70.4c-0.5,0-1-0.2-1.4-0.5c-0.8-0.7-0.9-2-0.2-2.9L75,30.3c0.7-0.8,2-0.9,2.9-0.2c0.8,0.7,0.9,2,0.2,2.9L45.4,69.7  C45,70.2,44.4,70.4,43.9,70.4z"></path>	<path d="M43.9,70.4c-0.4,0-0.9-0.1-1.3-0.4L22.2,53.6c-0.9-0.7-1-2-0.3-2.9c0.7-0.9,2-1,2.9-0.3l20.4,16.3c0.9,0.7,1,2,0.3,2.9  C45.1,70.2,44.5,70.4,43.9,70.4z"></path></svg>