<svg xmlns="http://www.w3.org/2000/svg" viewBox="0 0 10 30" fill="none"><path d="M4.75391 29.8637L0.373541 23.7385C0.283547 23.6128 0.294012 23.4407 0.398655 23.3277C0.503298 23.2147 0.672821 23.1915 0.803625 23.2728L5.02912 25.9119L9.19707 23.3023C9.32787 23.221 9.49739 23.2432 9.60204 23.3562C9.65959 23.4185 9.68889 23.4977 9.68889 23.578C9.68889 23.6445 9.66901 23.711 9.6282 23.7681L5.27713 29.8648C5.21643 29.9493 5.12016 30 5.01657 30C4.91297 30 4.81565 29.9503 4.756 29.8659L4.75391 29.8637Z" fill="currentcolor"></path><path d="M4.32031 22.998L4.32031 -0.00195312L5.78427 -0.00195312L5.78427 22.998H4.32031Z" fill="currentcolor"></path></svg>