<svg width="39" height="40" viewBox="0 0 39 40" fill="none" xmlns="http://www.w3.org/2000/svg">
<path d="M19.5159 26.7177H22.3333V23.8891H19.5159V26.7177ZM19.5159 23.1161H22.3333V20.2875H19.5159V23.1161ZM18.6943 23.1161V20.2875H15.8769V23.1161H18.6943ZM18.6943 23.8895H15.8769V26.7181H18.6943V23.8895ZM2.81741 9.44824L0 11.0815V39.3029H2.81741V9.44824ZM20.5143 14.2283V0.815085L19.1177 0L8.85396 5.94919C8.85396 17.0671 8.85396 28.185 8.85396 39.3025H11.6603V7.58114L17.6964 4.08208V14.2287H20.5138L20.5143 14.2283ZM29.3568 5.94875L26.5455 4.31902V31.7169H29.3629C29.3629 23.1219 29.3572 14.5411 29.3572 5.94875H29.3568ZM38.2112 39.3025V11.0815L35.3937 9.44824V36.4743H20.5143V32.7773H17.6969V39.3029H38.2107L38.2112 39.3025Z" fill="black"/>
</svg>
