<svg xmlns="http://www.w3.org/2000/svg" xmlns:xlink="http://www.w3.org/1999/xlink" x="0px" y="0px" viewBox="0 0 100 100" xml:space="preserve"><path d="M50,1C23,1,1,23,1,50c0,27,22,49,49,49c27,0,49-22,49-49C99,23,77,1,50,1z M93.5,52.7c-0.4,7.2-2.7,14-6.2,19.9H74.9 c1.7-6,2.8-12.7,3-19.9H93.5z M12.7,72.6c-3.6-5.9-5.8-12.6-6.2-19.9h15.6c0.2,7.2,1.3,13.9,3,19.9H12.7z M6.5,47.3 c0.4-7.2,2.7-14,6.2-19.9h12.4c-1.7,6-2.8,12.7-3,19.9H6.5z M52.7,22.1V6.7c5.6,1.4,10.8,7,14.5,15.3H52.7z M52.7,27.4h16.5 c1.9,5.9,3.1,12.7,3.3,19.9H52.7V27.4z M32.9,22.1c3.7-8.3,8.8-14,14.5-15.3v15.3H32.9z M47.3,27.4v19.9H27.5 c0.2-7.2,1.4-14,3.3-19.9H47.3z M30.8,72.6c-1.9-5.9-3.1-12.7-3.3-19.9h19.8v19.9H30.8z M47.3,77.9v15.3c-5.6-1.4-10.8-7-14.5-15.3 H47.3z M52.7,93.3V77.9h14.5C63.5,86.3,58.3,91.9,52.7,93.3z M52.7,72.6V52.7h19.8c-0.2,7.2-1.4,14-3.3,19.9H52.7z M93.5,47.3H77.9 c-0.2-7.2-1.3-13.9-3-19.9h12.4C90.9,33.3,93.1,40.1,93.5,47.3z M73.1,22.1c-1.9-5-4.4-9.3-7.3-12.7c6.9,2.7,13,7.1,17.6,12.7H73.1z  M26.9,22.1H16.5c4.7-5.6,10.7-10,17.6-12.7C31.3,12.7,28.8,17.1,26.9,22.1z M34.2,90.6c-6.9-2.7-13-7.1-17.6-12.7h10.4 C28.8,82.9,31.3,87.2,34.2,90.6z M73.1,77.9h10.4c-4.7,5.6-10.7,10-17.6,12.7C68.7,87.2,71.2,82.9,73.1,77.9z"></path></svg>