<svg xmlns="http://www.w3.org/2000/svg" x="0px" y="0px" viewBox="0 0 90.5 100" style="enable-background:new 0 0 90.5 100;" xml:space="preserve"><path d="M88.9,77.6c-0.5-1-1.2-1.8-2.1-2.5c-2.6-2.2-5.4-4.3-8.1-6.7c-2.6-2.3-5.3-4.7-7.8-7.1c-1.4-1.3-3.1-2-4.8-2 c-1.7-0.2-3.4,0.5-4.9,1.7l-8,6.8c-0.3,0.2-0.5,0.3-0.8,0.3c-0.7-0.2-1.5-0.6-2.3-1.1c-4.5-2.9-8.5-6.6-11.8-10.5 c-3.9-4.7-7-9.5-8.8-13.9c-0.3-0.9-0.6-1.8-0.6-2.5c0-0.3,0.1-0.5,0.4-0.8l8.1-6.8c1.3-1.2,2.2-2.8,2.5-4.5c0.1-1.8-0.1-3.5-1.2-5.1 c-2-2.9-3.9-5.8-5.7-8.9c-1.9-3.1-3.6-6.1-5.2-9.2c-0.5-0.9-1.2-1.9-2.1-2.4c-0.8-0.6-1.7-1-2.9-1.3c-0.9-0.1-2-0.1-3.1,0.1h-0.1 c-1,0.3-2,0.8-2.8,1.5l-11.7,10c-1.8,1.5-2.9,3.2-3.6,5.1c-0.7,2-0.8,4.2-0.4,6.3c1.6,8.2,4.3,16.3,8,23.9 c3.6,7.4,8.2,14.6,13.8,21.2c5.6,6.7,11.8,12.4,18.6,17.2c6.9,5,14.4,9,22.2,11.9c2,0.8,4.1,1,6.1,0.7c2-0.4,4-1.4,5.6-2.7l11.7-9.9 c0.8-0.8,1.5-1.6,2-2.5c0.4-1.1,0.5-2.1,0.5-3.2C89.6,79.6,89.3,78.5,88.9,77.6z"></path></svg>