<svg xmlns="http://www.w3.org/2000/svg" width="28" height="25" viewBox="0 0 28 25" fill="none"><path d="M7.6 15.2C8.93333 15.2 9.96667 15.6333 10.7 16.5C11.5 17.3 11.9 18.3667 11.9 19.7C11.9 21.1667 11.4333 22.3 10.5 23.1C9.63333 23.8333 8.36667 24.2 6.7 24.2C4.63333 24.2 3 23.4 1.8 21.8C0.6 20.2 0 17.9333 0 15C0 12.2 0.6 9.63333 1.8 7.3C3.06667 4.9 4.93333 2.5 7.4 0.0999985C7.46667 0.0333327 7.56667 0 7.7 0C7.9 0 8.06667 0.0999997 8.2 0.300001C8.33333 0.499999 8.33333 0.666666 8.2 0.800001C4.93333 4.13334 3.3 8.06667 3.3 12.6C3.3 14.4667 3.63333 15.8333 4.3 16.7C4.9 15.7 6 15.2 7.6 15.2ZM23.2 15.2C24.5333 15.2 25.5667 15.6333 26.3 16.5C27.1 17.3 27.5 18.3667 27.5 19.7C27.5 21.1667 27.0333 22.3 26.1 23.1C25.2333 23.8333 23.9667 24.2 22.3 24.2C20.2333 24.2 18.6 23.4 17.4 21.8C16.2 20.2 15.6 17.9333 15.6 15C15.6 12.2 16.2 9.63333 17.4 7.3C18.6667 4.9 20.5333 2.5 23 0.0999985C23.0667 0.0333327 23.1667 0 23.3 0C23.5 0 23.6667 0.0999997 23.8 0.300001C23.9333 0.499999 23.9333 0.666666 23.8 0.800001C20.5333 4.13334 18.9 8.06667 18.9 12.6C18.9 14.4667 19.2333 15.8333 19.9 16.7C20.5 15.7 21.6 15.2 23.2 15.2Z" fill="currentcolor"></path></svg>