<svg xmlns="http://www.w3.org/2000/svg" xmlns:xlink="http://www.w3.org/1999/xlink" x="0px" y="0px" viewBox="0 0 100 100" style="enable-background:new 0 0 100 100;" xml:space="preserve"><g>	<path d="M40.2,75.5C20.8,75.5,5,59.7,5,40.2C5,20.8,20.8,5,40.2,5c19.4,0,35.2,15.8,35.2,35.2C75.5,59.7,59.7,75.5,40.2,75.5z   M40.2,8.4C22.7,8.4,8.5,22.7,8.5,40.2C8.5,57.7,22.7,72,40.2,72C57.8,72,72,57.7,72,40.2C72,22.7,57.8,8.4,40.2,8.4z"></path>	<path d="M88.2,95c-1.8,0-3.5-0.7-4.8-2l-24-24c-0.3-0.3-0.5-0.8-0.5-1.2c0-0.5,0.2-0.9,0.5-1.2l7.1-7.1c0.6-0.6,1.8-0.6,2.4,0  l24,24c1.3,1.3,2,3,2,4.8c0,1.8-0.7,3.5-2,4.8C91.7,94.3,90,95,88.2,95L88.2,95z M63.2,67.8l22.7,22.7c1.2,1.2,3.4,1.2,4.7,0  c0.6-0.6,1-1.5,1-2.3c0-0.9-0.3-1.7-1-2.3L67.8,63.1L63.2,67.8z"></path>	<path d="M18.8,42c-0.9,0-1.7-0.8-1.7-1.7C17,27.4,27.4,17,40.2,17c0.9,0,1.7,0.8,1.7,1.7s-0.8,1.7-1.7,1.7  c-10.9,0-19.8,8.9-19.8,19.8C20.5,41.2,19.7,42,18.8,42L18.8,42z"></path></g></svg>