<svg xmlns="http://www.w3.org/2000/svg" viewBox="0 0 10 31" fill="none"><path d="M5.24609 0.823263L9.62646 6.94851C9.71645 7.07419 9.70599 7.24633 9.60134 7.35933C9.4967 7.47233 9.32718 7.49556 9.19638 7.41424L4.97088 4.7751L0.802932 7.38467C0.672128 7.46599 0.502606 7.44381 0.397963 7.33081C0.340409 7.2685 0.311109 7.1893 0.311109 7.10904C0.311109 7.0425 0.330991 6.97597 0.371801 6.91894L4.72287 0.822206C4.78357 0.73772 4.87984 0.687029 4.98343 0.687029C5.08703 0.687029 5.18435 0.736663 5.244 0.821149L5.24609 0.823263Z" fill="currentcolor"></path><path d="M5.67969 7.68896L5.67969 30.689H4.21573L4.21573 7.68896H5.67969Z" fill="currentcolor"></path></svg>