<svg xmlns="http://www.w3.org/2000/svg" width="123" height="24" viewBox="0 0 123 24" fill="none"><path d="M2.78172 23.5602L0.0117188 0.240234H2.95171L4.89172 17.6202L10.2817 0.240234H13.1617L5.54172 23.5602H2.78172Z" fill="currentcolor"></path><path d="M19.1517 23.5602L21.6017 0.240234H24.6817L22.2317 23.5602H19.1517Z" fill="currentcolor"></path><path d="M31.8018 23.5602L34.2518 0.240234H36.4218L41.4718 15.9802L43.1118 0.240234H45.7518L43.3018 23.5602H41.2618L36.1718 7.39023L34.4618 23.5602H31.8018Z" fill="currentcolor"></path><path d="M55.1618 23.56L57.3518 2.58H53.0618L53.3018 0.25H64.9018L64.6618 2.58H60.5018L58.2918 23.56H55.1518H55.1618Z" fill="currentcolor"></path><path d="M68.6217 23.5602L76.0517 0.240234H79.1017L81.6317 23.5602H78.6217L78.1717 17.6402H73.3517L71.6217 23.5602H68.6217ZM73.9917 15.3902H78.0017L77.1217 4.66024L74.0017 15.3902H73.9917Z" fill="currentcolor"></path><path d="M95.1417 23.85C93.0217 23.85 91.5717 23.19 90.7817 21.85C90.1917 20.86 89.8917 19.52 89.8917 17.83C89.8917 17.25 89.9217 16.63 89.9917 15.96L90.8317 8.03C90.9717 6.7 91.1917 5.56 91.4817 4.62C91.7717 3.68 92.1817 2.85 92.7117 2.13C93.2417 1.41 93.9317 0.88 94.7917 0.53C95.6517 0.18 96.6817 0 97.8817 0C100.032 0 101.512 0.540001 102.342 1.65C102.972 2.5 103.282 3.72 103.282 5.31C103.282 5.78 103.252 6.28 103.202 6.83L103.102 7.69H100.162L100.232 6.94C100.312 6.3 100.342 5.74 100.342 5.24C100.342 4.95 100.332 4.68 100.302 4.44C100.242 3.77 100.002 3.28 99.5817 2.96C99.1617 2.64 98.5317 2.47 97.6717 2.47C97.2717 2.47 96.9017 2.52 96.5717 2.6C96.2417 2.69 95.9617 2.81 95.7317 2.96C95.5017 3.11 95.2917 3.31 95.1117 3.56C94.9317 3.81 94.7817 4.07 94.6717 4.32C94.5617 4.57 94.4617 4.89 94.3817 5.28C94.3017 5.67 94.2317 6.03 94.1817 6.36C94.1317 6.69 94.0817 7.09 94.0317 7.57L93.1017 16.29C93.0317 16.9 93.0017 17.45 93.0017 17.95C93.0017 18.91 93.1217 19.64 93.3717 20.16C93.7317 20.95 94.5217 21.34 95.7617 21.34C97.0017 21.34 97.8917 20.92 98.4317 20.07C98.9717 19.23 99.3417 17.87 99.5417 16.01L99.7217 14.27H96.7117L96.9617 12.03H102.812L101.602 23.56H99.6017L99.5717 20.87C98.6717 22.86 97.1917 23.85 95.1317 23.85H95.1417Z" fill="currentcolor"></path><path d="M110.762 23.5602L113.212 0.240234H122.182L121.942 2.57024H116.122L115.292 10.3702H120.032L119.812 12.6302H115.072L114.162 21.2802H120.072L119.822 23.5402H110.782L110.762 23.5602Z" fill="currentcolor"></path></svg>