<svg xmlns="http://www.w3.org/2000/svg" width="171" height="20" viewBox="0 0 171 20" fill="none"><path d="M143.89 0L153.292 9.75504L143.873 19.3536H152.313L157.433 14.051L162.543 19.3536H170.983L161.581 9.75504L157.441 5.52787L152.025 0H143.89ZM162.866 0L158.095 4.86079L158.097 4.86332L162.232 9.08038L171 0H162.866Z" fill="currentcolor"></path><path d="M23.9769 0V5.90528V13.4483C23.9769 16.7199 26.5815 19.3536 29.8173 19.3536H41.9092C45.1449 19.3536 47.7495 16.7199 47.7495 13.4483V0H41.8199V10.371H41.8174V12.6575C41.8174 13.678 40.9429 14.4991 39.8565 14.4991H31.8712C30.7848 14.4991 29.9103 13.678 29.9103 12.6575V0H23.9776H23.9769Z" fill="currentcolor"></path><path d="M126.435 0C123.199 0 120.595 2.63361 120.595 5.90528V13.4489C120.595 16.7206 123.199 19.3542 126.435 19.3542H139.789C143.024 19.3542 145.629 16.7206 145.629 13.4489V5.90528C145.629 2.63361 143.024 0 139.789 0L126.435 0ZM123.69 4.85448H137.736C138.822 4.85448 139.696 5.67619 139.696 6.69606V12.6569C139.696 13.6767 138.822 14.4984 137.736 14.4984H128.489C127.403 14.4984 126.528 13.6774 126.528 12.6569V7.09555L123.69 4.85448Z" fill="currentcolor"></path><path d="M73.6354 0V19.3536H79.6178L79.4732 4.93274L89.6187 19.3536H99.2148V0H93.2317L93.3763 14.4208L83.2893 0H73.6354Z" fill="currentcolor"></path><path d="M49.7217 0.0195312V8.72567V13.4684V14.6316V19.3737H55.5683V14.6316H59.7911L65.3058 19.3535H73.432L67.5458 14.547C70.3063 14.0743 72.3966 11.6572 72.3966 8.72693V8.13432V8.08383V5.92544C72.3966 2.65378 69.792 0.0201624 66.5563 0.0201624H49.7229L49.7217 0.0195312ZM52.738 4.85382L64.6199 4.87528C65.7063 4.87528 66.5814 5.69635 66.5814 6.71685V8.08383H66.5745C66.4946 9.03428 65.6547 9.77835 64.6212 9.77835H57.4349L55.569 9.78656V8.08509V7.09047L52.738 4.85445V4.85382Z" fill="currentcolor"></path><path d="M0 0.0338342V0.860586V1.60214V19.3205H17.4004C21.0234 19.3205 22.2311 17.3925 22.2311 14.4439V12.8725C22.2311 11.3294 21.6546 10.1454 20.474 9.37423C21.5169 8.60302 22.0928 7.44557 22.0928 5.95741V4.63461C22.0928 1.54912 20.6387 0.0332031 16.8233 0.0332031H0V0.0338342ZM2.77056 4.52417H15.7533C16.8233 4.52417 17.2891 4.90914 17.2891 5.76366V6.36827C17.2891 7.19502 16.8497 7.60776 15.615 7.60776H5.59455V6.75387L2.77119 4.5248L2.77056 4.52417ZM2.80639 11.4866H15.6156C16.8509 11.4866 17.3174 11.9548 17.3174 12.8365V13.4783C17.3174 14.36 16.8509 14.7456 15.7803 14.7456H5.59455V13.6879L2.80702 11.4866H2.80639Z" fill="currentcolor"></path><path d="M100.559 0V19.3536H106.426V12.6512H118.875V8.21198H106.426V6.76863L103.623 4.55408L119.598 4.55723V0.00126222L100.558 0H100.559Z" fill="currentcolor"></path></svg>