<svg xmlns="http://www.w3.org/2000/svg" width="135" height="50" viewBox="0 0 135 50" fill="none"><path fill-rule="evenodd" clip-rule="evenodd" d="M129.685 25.7613C125.723 26.5569 121.909 28.8006 118.703 31.581C118.624 29.1094 118.409 25.2271 118.409 25.2271C118.387 24.8506 118.09 24.5471 117.714 24.5182C117.337 24.4893 116.997 24.7436 116.919 25.1128C116.919 25.1128 116.538 26.9169 115.844 28.3597C115.637 28.792 115.403 29.1921 115.135 29.4799C114.982 29.6442 114.836 29.7861 114.652 29.7861C114.148 29.7861 113.993 29.34 113.938 28.8584C113.853 28.1087 114.048 27.2034 114.371 26.5759C114.562 26.206 114.416 25.7521 114.047 25.5615C113.735 25.4006 113.372 25.4893 113.148 25.7389C113.131 25.7567 113.108 25.7652 113.092 25.7849C112.156 26.9288 110.712 28.5246 109.012 29.5088C107.972 30.11 106.835 30.4858 105.662 30.3097C105.187 30.2388 104.869 29.8505 104.573 29.4116C104.161 28.7993 103.826 28.0562 103.47 27.4406C102.78 26.2455 101.931 25.5438 100.806 25.8762C100.435 25.9853 99.9641 26.3953 99.5538 26.9885C99.4191 27.1843 99.2856 27.3985 99.158 27.618C98.8654 26.8959 98.3953 26.1857 97.6812 25.733C97.4116 25.5615 97.0756 25.5871 96.8323 25.7665C96.7955 25.7862 96.7547 25.7948 96.7205 25.8217C93.2185 28.5161 90.1708 30.2335 87.8293 31.0042C86.4373 31.4628 85.3307 31.5961 84.5712 31.3228C84.0143 31.1224 83.6388 30.8228 83.4074 30.4621C83.4764 30.4267 83.5415 30.3787 83.5987 30.3189C84.2727 29.6245 84.7626 29.3433 85.2012 29.0778C85.7528 28.7441 86.2374 28.4294 86.8292 27.6469C87.1705 27.1955 87.4493 26.323 87.3427 25.5648C87.2553 24.9492 86.9423 24.4111 86.3354 24.1161C85.8376 23.8743 85.2413 23.8954 84.6238 24.1936C84.1405 24.4269 83.631 24.8493 83.172 25.39C83.1181 25.4236 83.0615 25.4518 83.0162 25.5004C82.1896 26.3762 80.6674 28.1009 78.7711 29.2946C77.0332 30.3892 74.9627 31.0488 72.8539 29.9247C72.4436 29.7059 72.1405 29.292 71.8939 28.7546C71.8104 28.5713 71.7335 28.3742 71.6651 28.1639C71.9557 27.7099 72.1589 27.3216 72.2457 27.0937C74.6247 20.8337 76.1311 15.9712 76.9359 12.3688C77.6901 8.99248 77.8229 6.67588 77.5185 5.31785C77.2338 4.04982 76.5684 3.45457 75.757 3.33369C75.2934 3.2647 74.7529 3.4526 74.2387 4.01894C73.5049 4.82772 72.6882 6.58652 71.9669 8.86437C70.3553 13.9555 69.1191 21.6937 69.7754 26.549C69.8398 27.028 69.9253 27.48 70.0311 27.9011C69.6498 28.4195 69.1652 28.974 68.6345 29.3932C68.0658 29.8432 67.4483 30.1849 66.8526 29.8781C66.7007 29.8005 66.6264 29.6402 66.5778 29.4602C66.4956 29.1586 66.5035 28.7973 66.5699 28.43C66.6613 27.9267 66.8723 27.4163 67.1722 27.005C67.2636 26.8992 67.3477 26.7987 67.4326 26.6975C67.7212 26.4143 68.071 26.2264 68.4833 26.2987C68.8929 26.3703 69.2842 26.0963 69.3559 25.687C69.4275 25.2777 69.1533 24.8868 68.7437 24.8152C68.0086 24.6864 67.3412 24.8796 66.7744 25.2836C66.6626 25.3296 66.5574 25.3933 66.4758 25.4932C66.437 25.5405 66.3923 25.5931 66.3516 25.6417C66.2187 25.7751 66.0958 25.9235 65.9794 26.0799C65.0628 27.1383 63.8214 28.3913 62.3952 29.2171C61.3556 29.8183 60.2187 30.1941 59.0457 30.018C58.5703 29.947 58.2527 29.5588 57.9568 29.1199C57.5439 28.5075 57.2092 27.7645 56.8535 27.1489C56.163 25.9538 55.3148 25.2521 54.1891 25.5845C53.8189 25.6936 53.3475 26.1036 52.9372 26.6968C52.8024 26.8926 52.6689 27.1068 52.5413 27.3262C52.2487 26.6042 51.7786 25.894 51.0645 25.4413C50.762 25.2494 50.3833 25.3119 50.1387 25.5543C50.1236 25.5668 50.1052 25.572 50.0907 25.5858C49.0485 26.6239 46.711 29.5817 42.8736 28.6284C42.2588 28.4753 41.5493 27.978 40.9562 27.3624C40.3703 26.7533 39.8877 26.0234 39.7845 25.3362C39.7312 24.9807 39.434 24.7127 39.075 24.6956C38.716 24.6785 38.3945 24.917 38.3077 25.2652C38.3077 25.2652 37.7751 27.4149 36.8374 28.8393C36.6244 29.1626 36.3936 29.4471 36.1345 29.6363C35.8965 29.8104 35.6295 29.8728 35.3369 29.7092C35.3251 29.6928 35.2771 29.6264 35.2541 29.5804C35.1844 29.4385 35.1344 29.2605 35.1055 29.0634C34.9582 28.0483 35.4053 26.5615 37.2378 26.2947C37.6501 26.235 37.9355 25.8526 37.8757 25.4406C37.8158 25.0294 37.4325 24.7442 37.0209 24.804C36.6 24.8651 36.2298 24.9702 35.8971 25.1042C35.8452 25.1088 35.7939 25.1042 35.7426 25.12C33.1407 25.9288 29.6663 26.2126 24.9649 26.1292C25.5699 14.8582 25.7987 3.87966 25.5607 1.59065C25.5173 1.17739 25.1471 0.875825 24.7328 0.919187C24.3192 0.961893 24.0174 1.33244 24.0602 1.74636C24.2969 4.01829 24.0648 14.9088 23.4605 26.0917C21.2045 26.0195 18.694 25.8769 15.8771 25.6739C13.4837 25.5011 11.4624 25.5366 9.75021 25.7159C10.1026 18.7103 10.9239 9.30062 12.8058 3.06694C12.9261 2.6688 12.6999 2.24831 12.3021 2.12808C11.903 2.00785 11.4828 2.23386 11.3625 2.632C9.42473 9.05161 8.589 18.7917 8.23525 25.9255C4.22822 26.6206 2.23786 28.1804 1.17331 29.4661C0.907665 29.7861 0.952378 30.2611 1.27326 30.5265C1.59348 30.792 2.06887 30.7466 2.33452 30.4267C3.24652 29.3268 4.92192 28.0844 8.16423 27.4636C8.02681 30.6967 7.99064 33.2255 7.9867 34.3831C7.98538 34.799 8.32204 35.1374 8.73826 35.1387C9.15448 35.1407 9.49311 34.8036 9.49443 34.3877C9.49837 33.2078 9.53454 30.5824 9.6792 27.2402C11.348 27.049 13.345 27.0004 15.7686 27.1758C18.5875 27.3795 21.1065 27.5194 23.3783 27.5904C23.0331 33.6558 22.5794 39.6977 22.0323 44.3907C21.9837 44.8033 22.2802 45.1778 22.6938 45.2257C23.1067 45.2737 23.4815 44.978 23.5295 44.5648C24.0812 39.8337 24.5362 33.7419 24.8827 27.6265C28.5439 27.6889 31.4883 27.5358 33.8713 27.1094C33.578 27.8394 33.5188 28.6225 33.6142 29.2802C33.7378 30.1277 34.1494 30.7637 34.5669 31.0048C35.6604 31.6388 36.6474 31.313 37.4752 30.4569C38.1821 29.7263 38.7508 28.5397 39.1454 27.526C39.3597 27.8348 39.605 28.1317 39.8706 28.4077C40.6794 29.246 41.6729 29.8827 42.5106 30.0903C46.5775 31.1001 49.28 28.5562 50.6956 27.1199C50.9113 27.3841 51.0711 27.6909 51.1842 27.9931C51.4886 28.8045 51.509 29.5896 51.509 29.5896C51.5176 29.9444 51.7727 30.2447 52.1218 30.311C52.4703 30.3774 52.8182 30.1914 52.9569 29.8649C52.9569 29.8649 53.5447 28.4714 54.1786 27.5529C54.2943 27.3854 54.4101 27.2349 54.5245 27.1213C54.5593 27.0858 54.6185 27.0398 54.6382 27.0247C54.819 26.982 54.9506 27.0891 55.0775 27.2251C55.3793 27.5477 55.6291 28.0345 55.8961 28.541C56.2906 29.2907 56.7095 30.0791 57.2394 30.6343C57.6833 31.0994 58.204 31.4161 58.8234 31.5094C60.3364 31.7361 61.8126 31.2972 63.152 30.5219C63.8168 30.1376 64.4441 29.6678 65.0266 29.1685C65.0858 30.0903 65.4777 30.8655 66.1635 31.2183C67.2833 31.7945 68.5043 31.4207 69.5728 30.5745C69.9483 30.2775 70.3034 29.924 70.6262 29.5555C71.022 30.3452 71.531 30.9273 72.1464 31.2551C74.2801 32.3924 76.3875 32.1434 78.2707 31.2814C79.5095 30.7144 80.6405 29.8728 81.6071 29.0253C81.4867 30.5705 82.1166 32.0422 84.0623 32.7413C85.0486 33.0961 86.4945 33.031 88.3021 32.4364C90.6672 31.6579 93.7333 29.9648 97.2367 27.3184C97.4958 27.6009 97.6746 27.9471 97.8015 28.2861C98.106 29.0975 98.1263 29.8827 98.1263 29.8827C98.1349 30.2374 98.39 30.5377 98.7392 30.604C99.0877 30.6704 99.4355 30.4845 99.5742 30.1579C99.5742 30.1579 100.161 28.7644 100.796 27.8459C100.912 27.6784 101.027 27.5279 101.142 27.4143C101.177 27.3788 101.236 27.3328 101.256 27.3177C101.436 27.275 101.568 27.3821 101.695 27.5181C101.997 27.8407 102.246 28.3275 102.513 28.8341C102.908 29.5837 103.327 30.3721 103.857 30.9273C104.301 31.3925 104.821 31.7091 105.441 31.8018C106.954 32.0284 108.43 31.5896 109.769 30.8143C110.743 30.2512 111.64 29.5088 112.424 28.7493C112.439 29.0752 112.486 29.3873 112.57 29.6685C112.86 30.633 113.522 31.2919 114.652 31.2932C115.437 31.2946 116.191 30.7256 116.772 29.8045C116.888 29.6199 116.998 29.4221 117.103 29.2158C117.17 30.6651 117.226 32.148 117.226 32.9417C113.972 36.1157 111.518 39.7496 110.453 42.6831C109.946 44.0819 109.75 45.3354 109.884 46.3288C110.044 47.5141 110.64 48.3767 111.697 48.8169C113.117 49.4089 114.582 49.0068 115.814 47.2355C117.293 45.1094 118.471 40.7239 118.72 33.5579C121.915 30.5587 125.864 28.066 129.985 27.2382C130.392 27.1561 130.657 26.7592 130.575 26.3512C130.493 25.9439 130.096 25.6791 129.687 25.7613H129.685ZM71.1891 25.6253C70.761 20.9323 71.9308 13.9772 73.405 9.31967C73.9573 7.57532 74.5451 6.15881 75.1178 5.33624C75.2388 5.16148 75.3565 5.01825 75.4742 4.91444C75.5058 4.88685 75.5551 4.854 75.5827 4.83626C75.7313 4.88094 75.8267 5.02219 75.9108 5.21404C76.0292 5.48472 76.1022 5.83754 76.1396 6.27313C76.3981 9.24871 74.9922 15.4719 71.1891 25.6253ZM83.9288 26.8906C84.2681 26.3716 84.6718 25.9321 85.0775 25.6666C85.2038 25.5845 85.3281 25.5201 85.4497 25.4847C85.5319 25.4597 85.6088 25.44 85.6772 25.4735C85.8528 25.5582 85.862 25.7606 85.8594 25.9439C85.8554 26.2481 85.7581 26.5648 85.6259 26.7402C85.1893 27.3184 84.8264 27.5444 84.42 27.7914C84.0511 28.0148 83.6533 28.2493 83.1681 28.6606C83.2969 28.0424 83.5849 27.4182 83.9295 26.8906H83.9288ZM114.574 46.3755C113.868 47.3906 113.089 47.7651 112.275 47.4254C111.733 47.2 111.459 46.7342 111.376 46.1265C111.269 45.3269 111.46 44.3223 111.869 43.1956C112.747 40.7758 114.626 37.8482 117.136 35.1472C116.806 40.9171 115.847 44.5444 114.574 46.3748V46.3755Z" fill="currentcolor" stroke="currentcolor"></path><path fill-rule="evenodd" clip-rule="evenodd" d="M133.966 25.6244C133.889 25.3596 133.692 25.0857 133.238 25.0811C133.147 25.0798 132.766 25.1796 132.677 25.2039C132.315 25.2158 132.008 25.4937 131.971 25.8636C131.93 26.267 132.224 26.6277 132.627 26.6684C132.702 26.6763 133.578 26.6198 133.773 26.3911C134.077 26.0337 134 25.7427 133.966 25.6244Z" fill="currentcolor" stroke="currentcolor"></path></svg>