<svg xmlns="http://www.w3.org/2000/svg" width="127" height="35" viewBox="0 0 127 35" fill="none"><path d="M48.708 17.6266H56.4267V16.0747H50.2565V14.208H55.2161V12.6451H50.2565V10.7784H56.4267V9.22656H48.708V17.6266Z" fill="currentcolor"></path><path d="M61.6652 12.2134L59.1503 9.22656H57.4861V9.65832L60.6405 13.4266L57.4861 17.1948V17.6266H59.1503L61.6534 14.6516L64.1564 17.6266H65.8333V17.1838L62.6663 13.4266L65.8333 9.65832V9.22656H64.1564L61.6652 12.2134Z" fill="currentcolor"></path><path d="M66.636 10.7784H70.059V17.6266H71.6074V10.7784H75.0186V9.22656H66.636V10.7784Z" fill="currentcolor"></path><path d="M75.9141 17.6266H83.6327V16.0747H77.4625V14.208H82.4221V12.6451H77.4625V10.7784H83.6327V9.22656H75.9141V17.6266Z" fill="currentcolor"></path><path d="M91.642 15.3636L86.4965 9.22656H84.8086V17.6266H86.3452V11.4785L91.5026 17.6266H93.1904V9.22656H91.642V15.3636Z" fill="currentcolor"></path><path d="M102.032 9.44836C101.788 9.30076 101.518 9.22656 101.223 9.22656H96.0776C95.7822 9.22656 95.5129 9.30076 95.2687 9.44836C95.0245 9.59597 94.8284 9.79251 94.6811 10.0372C94.5339 10.2819 94.4598 10.5526 94.4598 10.8478V12.5749C94.4598 12.878 94.5339 13.1527 94.6811 13.3974C94.8284 13.642 95.0245 13.8386 95.2687 13.9862C95.5129 14.1338 95.783 14.208 96.0776 14.208H101.153C101.192 14.208 101.225 14.2198 101.252 14.2427C101.279 14.2664 101.293 14.2972 101.293 14.3359V15.9342C101.293 15.9729 101.28 16.0061 101.252 16.0337C101.225 16.0613 101.192 16.0747 101.153 16.0747H96.1351C96.0965 16.0747 96.0634 16.0613 96.0358 16.0337C96.0083 16.0069 95.9949 15.9737 95.9949 15.9342V15.3628H94.4583V16.0045C94.4583 16.3005 94.5323 16.5704 94.6796 16.8151C94.8269 17.0598 95.023 17.2564 95.2671 17.404C95.5113 17.5516 95.7814 17.6258 96.076 17.6258H101.222C101.516 17.6258 101.786 17.5516 102.03 17.404C102.275 17.2564 102.471 17.0598 102.618 16.8151C102.765 16.5704 102.839 16.2997 102.839 16.0045V14.2775C102.839 13.9744 102.765 13.6997 102.618 13.455C102.471 13.2103 102.275 13.0137 102.03 12.8661C101.786 12.7185 101.516 12.6443 101.222 12.6443H96.1343C96.0957 12.6443 96.0626 12.6325 96.0351 12.6096C96.0075 12.5859 95.9941 12.5551 95.9941 12.5165V10.9181C95.9941 10.8794 96.0075 10.8463 96.0351 10.8186C96.0618 10.7918 96.0949 10.7776 96.1343 10.7776H101.152C101.191 10.7776 101.224 10.791 101.251 10.8186C101.278 10.8463 101.292 10.8786 101.292 10.9181V11.4896H102.841V10.8478C102.841 10.5526 102.767 10.2819 102.62 10.0372C102.472 9.79251 102.276 9.59597 102.032 9.44836Z" fill="currentcolor"></path><path d="M105.472 9.22656H103.947V17.6266H105.472V9.22656Z" fill="currentcolor"></path><path d="M111.898 15.7598L108.15 9.22656H106.356L111.211 17.6266H112.585L117.44 9.22656H115.658L111.898 15.7598Z" fill="currentcolor"></path><path d="M126.019 10.7784V9.22656H118.3V17.6266H126.019V16.0747H119.849V14.208H124.808V12.6451H119.849V10.7784H126.019Z" fill="currentcolor"></path><path d="M65.6157 20.273C65.4771 20.1893 65.3235 20.1475 65.1565 20.1475H62.2353C62.0675 20.1475 61.9147 20.1893 61.7761 20.273C61.6375 20.3566 61.5256 20.4687 61.4421 20.6076C61.3586 20.7466 61.3169 20.9005 61.3169 21.0678V22.0482C61.3169 22.2202 61.3586 22.3757 61.4421 22.5154C61.5256 22.6544 61.6375 22.7664 61.7761 22.8501C61.9147 22.9338 62.0683 22.9756 62.2353 22.9756H65.1172C65.1392 22.9756 65.1581 22.9819 65.1731 22.9953C65.1888 23.0088 65.1959 23.0261 65.1959 23.0482V23.956C65.1959 23.9781 65.188 23.997 65.1731 24.012C65.1573 24.0278 65.1392 24.0349 65.1172 24.0349H62.2683C62.2463 24.0349 62.2274 24.027 62.2124 24.012C62.1967 23.9962 62.1896 23.9781 62.1896 23.956V23.6315H61.3169V23.9962C61.3169 24.1643 61.3586 24.3175 61.4421 24.4564C61.5256 24.5953 61.6375 24.7074 61.7761 24.7911C61.9147 24.8747 62.0683 24.9166 62.2353 24.9166H65.1565C65.3243 24.9166 65.4771 24.8747 65.6157 24.7911C65.7543 24.7074 65.8654 24.5953 65.9497 24.4564C66.0332 24.3175 66.0749 24.1635 66.0749 23.9962V23.0159C66.0749 22.8438 66.0332 22.6883 65.9497 22.5486C65.8662 22.4097 65.7543 22.2984 65.6157 22.2139C65.4771 22.1302 65.3235 22.0884 65.1565 22.0884H62.2683C62.2463 22.0884 62.2274 22.0821 62.2124 22.0687C62.1967 22.0553 62.1896 22.0379 62.1896 22.0158V21.1081C62.1896 21.086 62.1975 21.067 62.2124 21.052C62.2282 21.037 62.2463 21.0291 62.2683 21.0291H65.1172C65.1392 21.0291 65.1581 21.037 65.1731 21.052C65.1888 21.0678 65.1959 21.086 65.1959 21.1081V21.4325H66.0749V21.0678C66.0749 20.8997 66.0332 20.7466 65.9497 20.6076C65.8662 20.4687 65.7543 20.3574 65.6157 20.273Z" fill="currentcolor"></path><path d="M71.448 21.0274H73.3911V24.9156H74.2708V21.0274H76.2068V20.1465H71.448V21.0274Z" fill="currentcolor"></path><path d="M85.4596 23.956C85.4596 23.9781 85.451 23.997 85.4329 24.012C85.4155 24.0278 85.395 24.0349 85.373 24.0349H82.5313C82.5092 24.0349 82.4903 24.027 82.4754 24.012C82.4596 23.9962 82.4525 23.9781 82.4525 23.956V20.1475H81.5798V23.9954C81.5798 24.1635 81.6216 24.3167 81.7051 24.4556C81.7886 24.5945 81.9004 24.7066 82.039 24.7903C82.1776 24.8739 82.3312 24.9158 82.4982 24.9158H85.4195C85.5872 24.9158 85.74 24.8739 85.8787 24.7903C86.0173 24.7066 86.1283 24.5945 86.2126 24.4556C86.2961 24.3167 86.3378 24.1628 86.3378 23.9954V20.1475H85.4589V23.956H85.4596Z" fill="currentcolor"></path><path d="M96.2656 20.273C96.1247 20.1893 95.9703 20.1475 95.8033 20.1475H91.97V24.9166H95.8033C95.9711 24.9166 96.1247 24.8747 96.2656 24.7911C96.4066 24.7074 96.5193 24.5953 96.6027 24.4564C96.6862 24.3175 96.728 24.1635 96.728 23.9962V21.0686C96.728 20.9005 96.6862 20.7473 96.6027 20.6084C96.5193 20.4695 96.4066 20.3582 96.2656 20.2738V20.273ZM95.849 23.956C95.849 23.9781 95.8403 23.997 95.8222 24.012C95.8049 24.0278 95.7844 24.0349 95.7624 24.0349H92.9135C92.8915 24.0349 92.8726 24.027 92.8576 24.012C92.8419 23.9962 92.8348 23.9781 92.8348 23.956V21.1081C92.8348 21.086 92.8427 21.067 92.8576 21.052C92.8734 21.037 92.8915 21.0291 92.9135 21.0291H95.7624C95.7844 21.0291 95.8041 21.037 95.8222 21.052C95.8395 21.0678 95.849 21.086 95.849 21.1081V23.956Z" fill="currentcolor"></path><path d="M103.133 20.1465H102.268V24.9156H103.133V20.1465Z" fill="currentcolor"></path><path d="M113.286 20.6076C113.202 20.4687 113.09 20.3574 112.952 20.273C112.813 20.1893 112.659 20.1475 112.492 20.1475H109.571C109.403 20.1475 109.251 20.1893 109.112 20.273C108.973 20.3566 108.862 20.4687 108.778 20.6076C108.695 20.7466 108.653 20.9005 108.653 21.0678V23.9954C108.653 24.1635 108.695 24.3167 108.778 24.4556C108.862 24.5945 108.973 24.7066 109.112 24.7903C109.251 24.8739 109.404 24.9158 109.571 24.9158H112.492C112.66 24.9158 112.813 24.8739 112.952 24.7903C113.09 24.7066 113.201 24.5945 113.286 24.4556C113.369 24.3167 113.411 24.1628 113.411 23.9954V21.0678C113.411 20.8997 113.369 20.7466 113.286 20.6076ZM112.532 23.956C112.532 23.9781 112.523 23.997 112.505 24.012C112.488 24.0278 112.467 24.0349 112.445 24.0349H109.603C109.581 24.0349 109.563 24.027 109.548 24.012C109.532 23.9962 109.525 23.9781 109.525 23.956V21.1081C109.525 21.086 109.533 21.067 109.548 21.052C109.563 21.037 109.581 21.0291 109.603 21.0291H112.445C112.467 21.0291 112.487 21.037 112.505 21.052C112.522 21.0678 112.532 21.086 112.532 21.1081V23.956Z" fill="currentcolor"></path><path d="M21.8124 24.4737L29.5106 18.8009C30.5747 18.0163 32.0766 18.778 32.0766 20.1017C32.0766 20.6155 31.8333 21.0978 31.4206 21.4025L19.9024 29.898C19.4897 30.2027 19.2463 30.6849 19.2463 31.1988V32.5241C19.2463 33.8478 20.7475 34.6095 21.8124 33.8257L36.5519 22.9717C36.9654 22.667 37.2095 22.1839 37.2095 21.6701V10.9684C37.2095 9.64468 35.7076 8.88298 34.6435 9.66757L19.904 20.5287C19.4913 20.8334 19.2471 21.3164 19.2471 21.8295V23.1714C19.2471 24.495 20.7491 25.2567 21.8132 24.4722L21.8124 24.4737Z" fill="currentcolor"></path><path d="M19.2454 12.4713V13.8116C19.2454 15.1353 20.7482 15.897 21.8123 15.1124L36.5518 4.24339C36.9645 3.93871 37.2078 3.45643 37.2078 2.94258V1.61809C37.2078 0.294392 35.7066 -0.467307 34.6418 0.316493L19.9023 11.1705C19.4888 11.4752 19.2446 11.9583 19.2446 12.4721L19.2454 12.4713Z" fill="currentcolor"></path><path d="M0.657661 22.9724L15.3972 33.8265C16.4612 34.6103 17.9632 33.8486 17.9632 32.5249V31.1996C17.9632 30.6857 17.7198 30.2035 17.3071 29.8988L5.78899 21.4033C5.37628 21.0986 5.13291 20.6163 5.13291 20.1025C5.13291 18.7788 6.6349 18.0171 7.69897 18.8016L15.3972 24.4745C16.4612 25.2591 17.9632 24.4974 17.9632 23.1737V21.8319C17.9632 21.318 17.719 20.8349 17.3063 20.5311L2.56606 9.66757C1.50199 8.88298 0 9.64468 0 10.9684V21.6701C0 22.1839 0.244162 22.667 0.657661 22.9717V22.9724Z" fill="currentcolor"></path><path d="M0.656086 4.24339L15.3956 15.1124C16.4596 15.897 17.9624 15.1353 17.9624 13.8116V12.4713C17.9624 11.9575 17.7183 11.4744 17.3048 11.1697L2.56606 0.316493C1.5012 -0.467307 0 0.294392 0 1.61809V2.94258C0 3.45643 0.243374 3.93871 0.656086 4.24339Z" fill="currentcolor"></path></svg>