<svg xmlns="http://www.w3.org/2000/svg" xmlns:xlink="http://www.w3.org/1999/xlink" x="0px" y="0px" viewBox="0 0 100 100" xml:space="preserve"><g>	<path d="M97,81.4L97,81.4c-1,0-1.8-0.8-1.8-1.7l0.2-60.2c-2.5,1.1-6.3,3.6-6.3,8.7v21.1l4.1,0.1c1,0,1.7,0.8,1.7,1.8  c0,1-0.8,1.7-1.8,1.7l-5.8-0.2c-0.9,0-1.7-0.8-1.7-1.7V28.2c0-8.3,7.4-12,11.3-12.8c0.5-0.1,1.1,0,1.5,0.4C98.8,16,99,16.5,99,17  l-0.2,62.7C98.8,80.7,98,81.4,97,81.4L97,81.4z"></path>	<path d="M49.8,74.4h-0.2c-6.3-0.1-12.1-2.5-16.5-6.9C28.7,63,26.3,57.2,26.4,51C26.5,38.3,37,27.9,49.8,27.9H50  c6.3,0.1,12.1,2.5,16.5,6.9c4.4,4.4,6.8,10.3,6.7,16.5C73.2,64.1,62.7,74.4,49.8,74.4z M49.8,31.4C38.9,31.4,30,40.2,29.9,51  c0,5.3,2,10.3,5.7,14c3.7,3.8,8.7,5.9,14,5.9h0.2c10.9,0,19.8-8.8,19.9-19.6c0-5.3-2-10.3-5.7-14c-3.7-3.8-8.7-5.9-14-5.9H49.8  L49.8,31.4z"></path>	<path d="M49.8,84.7c-18.7,0-33.8-15-33.8-33.5c0-18.5,15.2-33.5,33.8-33.5c18.7,0,33.8,15,33.8,33.5C83.7,69.7,68.5,84.7,49.8,84.7  L49.8,84.7z M49.8,21.1c-16.7,0-30.3,13.5-30.3,30.1c0,16.6,13.6,30.1,30.3,30.1c16.7,0,30.3-13.5,30.3-30.1  C80.1,34.6,66.5,21.1,49.8,21.1z"></path>	<path d="M51.5,67.3c-0.9,0-1.7-0.7-1.7-1.6c-0.1-1,0.6-1.8,1.6-1.9c6.2-0.6,10.8-5.7,10.8-11.8c0-2.6-0.8-5.1-2.4-7.2  c-0.6-0.8-0.4-1.9,0.3-2.4c0.8-0.6,1.9-0.4,2.5,0.3c2.1,2.7,3.2,5.9,3.2,9.3c0,7.9-6,14.5-14,15.3C51.6,67.3,51.6,67.3,51.5,67.3  L51.5,67.3z"></path>	<path d="M2.8,36.2c-1,0-1.8-0.8-1.8-1.7V19.2c0-1,0.8-1.7,1.8-1.7c1,0,1.8,0.8,1.8,1.7v15.3C4.5,35.5,3.7,36.2,2.8,36.2L2.8,36.2z"></path>	<path d="M8.6,34.7c-1,0-1.8-0.8-1.8-1.7V18.9c0-1,0.8-1.7,1.8-1.7c1,0,1.8,0.8,1.8,1.7V33C10.4,33.9,9.6,34.7,8.6,34.7z"></path>	<path d="M14.5,36.2c-1,0-1.8-0.8-1.8-1.7V19.2c0-1,0.8-1.7,1.8-1.7c1,0,1.8,0.8,1.8,1.7v15.3C16.2,35.5,15.5,36.2,14.5,36.2  L14.5,36.2z"></path>	<path d="M7.9,40.8c-0.4,0-0.8-0.1-1.1-0.4l-5-4.1c-0.7-0.6-0.9-1.7-0.2-2.4C2.1,33.1,3.2,33,4,33.6l4,3.3l5.5-3.5  c0.8-0.5,1.9-0.3,2.4,0.5c0.5,0.8,0.3,1.9-0.5,2.4l-6.6,4.2C8.5,40.7,8.2,40.8,7.9,40.8L7.9,40.8z"></path>	<path d="M8,81.5L8,81.5c-1,0-1.8-0.8-1.8-1.7l0.2-40.2c0-1,0.8-1.7,1.8-1.7h0c1,0,1.7,0.8,1.7,1.7L9.8,79.8C9.8,80.7,9,81.5,8,81.5  z"></path></g><g>	<path d="M97,81.4L97,81.4c-1,0-1.8-0.8-1.8-1.7l0.2-60.2c-2.5,1.1-6.3,3.6-6.3,8.7v21.1l4.1,0.1c1,0,1.7,0.8,1.7,1.8  c0,1-0.8,1.7-1.8,1.7l-5.8-0.2c-0.9,0-1.7-0.8-1.7-1.7V28.2c0-8.3,7.4-12,11.3-12.8c0.5-0.1,1.1,0,1.5,0.4C98.8,16,99,16.5,99,17  l-0.2,62.7C98.8,80.7,98,81.4,97,81.4L97,81.4z"></path>	<path d="M49.8,74.4h-0.2c-6.3-0.1-12.1-2.5-16.5-6.9C28.7,63,26.3,57.2,26.4,51C26.5,38.3,37,27.9,49.8,27.9H50  c6.3,0.1,12.1,2.5,16.5,6.9c4.4,4.4,6.8,10.3,6.7,16.5C73.2,64.1,62.7,74.4,49.8,74.4z M49.8,31.4C38.9,31.4,30,40.2,29.9,51  c0,5.3,2,10.3,5.7,14c3.7,3.8,8.7,5.9,14,5.9h0.2c10.9,0,19.8-8.8,19.9-19.6c0-5.3-2-10.3-5.7-14c-3.7-3.8-8.7-5.9-14-5.9H49.8  L49.8,31.4z"></path>	<path d="M49.8,84.7c-18.7,0-33.8-15-33.8-33.5c0-18.5,15.2-33.5,33.8-33.5c18.7,0,33.8,15,33.8,33.5C83.7,69.7,68.5,84.7,49.8,84.7  L49.8,84.7z M49.8,21.1c-16.7,0-30.3,13.5-30.3,30.1c0,16.6,13.6,30.1,30.3,30.1c16.7,0,30.3-13.5,30.3-30.1  C80.1,34.6,66.5,21.1,49.8,21.1z"></path>	<path d="M51.5,67.3c-0.9,0-1.7-0.7-1.7-1.6c-0.1-1,0.6-1.8,1.6-1.9c6.2-0.6,10.8-5.7,10.8-11.8c0-2.6-0.8-5.1-2.4-7.2  c-0.6-0.8-0.4-1.9,0.3-2.4c0.8-0.6,1.9-0.4,2.5,0.3c2.1,2.7,3.2,5.9,3.2,9.3c0,7.9-6,14.5-14,15.3C51.6,67.3,51.6,67.3,51.5,67.3  L51.5,67.3z"></path>	<path d="M2.8,36.2c-1,0-1.8-0.8-1.8-1.7V19.2c0-1,0.8-1.7,1.8-1.7c1,0,1.8,0.8,1.8,1.7v15.3C4.5,35.5,3.7,36.2,2.8,36.2L2.8,36.2z"></path>	<path d="M8.6,34.7c-1,0-1.8-0.8-1.8-1.7V18.9c0-1,0.8-1.7,1.8-1.7c1,0,1.8,0.8,1.8,1.7V33C10.4,33.9,9.6,34.7,8.6,34.7z"></path>	<path d="M14.5,36.2c-1,0-1.8-0.8-1.8-1.7V19.2c0-1,0.8-1.7,1.8-1.7c1,0,1.8,0.8,1.8,1.7v15.3C16.2,35.5,15.5,36.2,14.5,36.2  L14.5,36.2z"></path>	<path d="M7.9,40.8c-0.4,0-0.8-0.1-1.1-0.4l-5-4.1c-0.7-0.6-0.9-1.7-0.2-2.4C2.1,33.1,3.2,33,4,33.6l4,3.3l5.5-3.5  c0.8-0.5,1.9-0.3,2.4,0.5c0.5,0.8,0.3,1.9-0.5,2.4l-6.6,4.2C8.5,40.7,8.2,40.8,7.9,40.8L7.9,40.8z"></path>	<path d="M8,81.5L8,81.5c-1,0-1.8-0.8-1.8-1.7l0.2-40.2c0-1,0.8-1.7,1.8-1.7h0c1,0,1.7,0.8,1.7,1.7L9.8,79.8C9.8,80.7,9,81.5,8,81.5  z"></path></g></svg>