<svg xmlns="http://www.w3.org/2000/svg" xmlns:xlink="http://www.w3.org/1999/xlink" x="0px" y="0px" viewBox="0 0 100 100" xml:space="preserve"><g>	<path d="M88.2,45.9c-1,0-1.8-0.8-1.8-1.8V16.4h-6.5v4.2c0,1-0.8,1.8-1.8,1.8H20.4c-1,0-1.8-0.8-1.8-1.8v-4.2h-5.7v27.7  c0,1-0.8,1.8-1.8,1.8s-1.8-0.8-1.8-1.8V14.5c0-1,0.8-1.8,1.8-1.8h9.4c1,0,1.8,0.8,1.8,1.8v4.2h53.9v-4.2c0-1,0.8-1.8,1.8-1.8h10.2  c1,0,1.8,0.8,1.8,1.8v29.5C90,45.1,89.2,45.9,88.2,45.9z"></path>	<path d="M27.8,46.8c-0.8,0-1.6-0.5-1.8-1.3c-1.5-5.3-0.1-11.5,0-11.8c0.2-1,1.2-1.6,2.2-1.4c0,0,3.6,0.7,6.7,0.6  c0.9,0,1.9-0.4,3.1-0.9c2.4-0.9,5.7-2.2,11.1-1.8c1,0.1,1.8,1,1.7,2c-0.1,1-1,1.8-2,1.7c-4.5-0.4-7.2,0.6-9.5,1.5  c-1.4,0.5-2.8,1.1-4.3,1.1c-2.1,0.1-4.2-0.1-5.7-0.4c-0.3,2-0.5,5.4,0.3,8.3c0.3,1-0.3,2-1.3,2.3C28.2,46.8,28,46.8,27.8,46.8z"></path>	<path d="M70.8,46.8c-0.2,0-0.3,0-0.5-0.1c-1-0.3-1.6-1.3-1.3-2.3c0.8-2.9,0.6-6.3,0.3-8.3c-1.5,0.2-3.7,0.5-5.7,0.4  c-1.5-0.1-2.9-0.6-4.3-1.1c-2.3-0.9-4.9-1.9-9.5-1.5c-1,0.1-1.9-0.7-2-1.7c-0.1-1,0.7-1.9,1.7-2c5.4-0.4,8.7,0.8,11.1,1.8  c1.2,0.5,2.2,0.8,3.1,0.9c3.1,0.1,6.7-0.6,6.7-0.6c1-0.2,2,0.4,2.2,1.4c0.1,0.3,1.5,6.4,0,11.8C72.4,46.3,71.6,46.8,70.8,46.8  L70.8,46.8z"></path>	<path d="M97.2,75.6H2.8c-1,0-1.8-0.8-1.8-1.8V50.1c0-1,0.8-1.8,1.8-1.8h94.3c1,0,1.8,0.8,1.8,1.8v23.6  C99,74.8,98.2,75.6,97.2,75.6z M4.7,71.9h90.6V52H4.7V71.9z"></path>	<path d="M19.7,86.9H8.6c-1,0-1.8-0.8-1.8-1.8v-7.7c0-1,0.8-1.8,1.8-1.8s1.8,0.8,1.8,1.8v5.9h8.4l7.6-9.4  c0.6-0.8,1.8-0.9,2.6-0.3c0.8,0.6,0.9,1.8,0.3,2.6l-8.2,10.1C20.8,86.7,20.3,86.9,19.7,86.9z"></path>	<path d="M90.6,87.3H80.4c-0.5,0-1.1-0.2-1.4-0.6l-8.7-10.1c-0.7-0.8-0.6-1.9,0.2-2.6c0.8-0.7,1.9-0.6,2.6,0.2l8.1,9.5  h7.5v-5.9c0-1,0.8-1.8,1.8-1.8c1,0,1.8,0.8,1.8,1.8v7.7C92.5,86.5,91.6,87.3,90.6,87.3L90.6,87.3z"></path>	<path d="M13.9,79.6H9c-1,0-1.8-0.8-1.8-1.8C7.1,76.8,8,76,9,76h4.9c1,0,1.8,0.8,1.8,1.8C15.7,78.8,14.9,79.6,13.9,79.6  z"></path>	<path d="M90.2,79.6h-4.9c-1,0-1.8-0.8-1.8-1.8c0-1,0.8-1.8,1.8-1.8h4.9c1,0,1.8,0.8,1.8,1.8  C92.1,78.8,91.2,79.6,90.2,79.6z"></path></g></svg>