<svg xmlns="http://www.w3.org/2000/svg" xmlns:xlink="http://www.w3.org/1999/xlink" x="0px" y="0px" viewBox="0 0 100 100" xml:space="preserve"><g>	<path d="M72.3,15.4c-0.2,0-0.3,0-0.5-0.1c-0.9-0.3-1.4-1.2-1.1-2.1l0.7-2.3c0.3-0.9,1.2-1.4,2.1-1.1c0.9,0.3,1.4,1.2,1.1,2.1  l-0.7,2.3C73.7,15,73.1,15.4,72.3,15.4L72.3,15.4z"></path>	<path d="M56.7,64.5c-0.2,0-0.3,0-0.5-0.1c-0.9-0.3-1.4-1.2-1.1-2.1l8.7-26.2c0.1-0.2,0.2-0.4,0.3-0.6c0.1-0.2,0.3-0.3,0.5-0.4  c0.3-0.1,0.5-0.2,0.8-0.2c0.1,0,0.3,0,0.4,0.1c0.3,0.1,0.6,0.3,0.8,0.5c0.1,0.1,0.1,0.1,0.2,0.2v0v0c0.2,0.4,0.3,0.8,0.2,1.3v0  c0,0,0,0,0,0v0c0,0,0,0,0,0l-0.1,0.3c0,0.1,0,0.1-0.1,0.2l-8.6,25.9C58,64,57.3,64.4,56.7,64.5L56.7,64.5z"></path>	<path d="M93.4,46.8c-0.9,0-1.6-0.6-1.7-1.5C89.8,25.2,79,18.9,70.3,17.2c-13-2.5-28,4-31.7,11.1c-0.4,0.8-1.4,1.1-2.3,0.7  c-0.8-0.4-1.1-1.4-0.7-2.2C40,18.5,56.3,11.1,70.9,14C79,15.6,92.8,21.7,95,45c0.1,0.9-0.6,1.7-1.5,1.8  C93.5,46.8,93.4,46.8,93.4,46.8L93.4,46.8z"></path>	<path d="M19.3,52.2c-5.3,0-9.7-4.3-9.7-9.6c0-5.3,4.3-9.6,9.7-9.6c5.3,0,9.7,4.3,9.7,9.6C28.9,47.9,24.6,52.2,19.3,52.2z   M19.3,36.3c-3.5,0-6.4,2.8-6.4,6.3c0,3.5,2.9,6.3,6.4,6.3c3.5,0,6.4-2.8,6.4-6.3C25.6,39.1,22.8,36.3,19.3,36.3z"></path>	<path d="M47.4,79.9h-3c-0.4,0-0.9-0.2-1.2-0.5c-5-4.9-16.6-16.5-17.1-17.3c-2.4-3.1-2.6-5.9-2.4-7.6c0.3-2.3,3-4.6,5.2-5.2  c0.7-0.2,1.3-0.3,2-0.3c2.3,0,4.2,1.2,6.4,3.1c1.9,1.6,10.2,11.5,12.5,14.2c2.4,0.1,10.4,0.3,18.5,0.6c19.8,0.7,20.8,1.2,21.4,1.5  c1.5,0.8,3.8,3.1,3.5,6c-0.3,2.7-2.3,4.7-5,5.1C86.9,79.9,65.3,80,47.4,79.9L47.4,79.9z M45.1,76.6h2.3h0c23.7,0,39.1-0.1,40.3-0.2  c0.9-0.1,2-0.8,2.1-2.2c0.1-1.1-0.9-2.3-1.6-2.7c-2.5-0.6-25.3-1.5-39.2-1.8c-0.5,0-0.9-0.2-1.2-0.6C43.4,64,36.5,56,35.1,54.8  c-2-1.7-3.1-2.3-4.3-2.3c-0.3,0-0.7,0.1-1.1,0.2c-1.2,0.3-2.6,1.8-2.7,2.4c-0.2,1.7,0.3,3.4,1.7,5.2C29.4,61,38.7,70.3,45.1,76.6  L45.1,76.6z"></path>	<path d="M97.3,90.1c-0.5,0-1-0.2-1.3-0.6l-7.6-9.6h-45c-0.4,0-0.9-0.2-1.2-0.5l-40.7-41c-0.6-0.7-0.6-1.7,0-2.3  c0.7-0.6,1.7-0.6,2.4,0l40.3,40.5h45.1c0.5,0,1,0.2,1.3,0.6l8.1,10.2c0.6,0.7,0.5,1.8-0.3,2.3C98.1,90,97.7,90.1,97.3,90.1  L97.3,90.1z"></path>	<path d="M35.6,90.1c-0.4,0-0.7-0.1-1-0.3c-0.7-0.6-0.9-1.6-0.3-2.3l7.4-9.5c0.6-0.7,1.6-0.9,2.3-0.3c0.7,0.6,0.9,1.6,0.3,2.3  l-7.4,9.5C36.6,89.9,36.1,90.1,35.6,90.1L35.6,90.1z"></path>	<path d="M54.7,37.4c-0.7,0-1.3-0.4-1.5-1c-4.1-9.6-15.8-7.2-16.3-7.1c-0.9,0.2-1.8-0.4-2-1.3c-0.2-0.9,0.4-1.8,1.3-2  c5.1-1.1,15.9-0.7,20.1,9.1c0.4,0.8,0,1.8-0.9,2.2C55.1,37.3,54.9,37.4,54.7,37.4L54.7,37.4z"></path>	<path d="M92.5,47.5c-0.6,0-1.2-0.3-1.5-0.9c-4.6-8.3-15.7-4.7-16.2-4.5c-0.9,0.3-1.8-0.2-2.1-1c-0.3-0.9,0.2-1.8,1-2.1  c4.9-1.7,15.4-2.6,20.2,6c0.4,0.8,0.1,1.8-0.7,2.2C93.1,47.4,92.8,47.5,92.5,47.5L92.5,47.5z"></path>	<path d="M73.7,43.3c-0.6,0-1.1-0.3-1.4-0.8c-4.9-8.2-16.2-4-16.3-4c-0.9,0.3-1.8-0.1-2.2-1c-0.3-0.9,0.1-1.8,1-2.1  c4.9-1.8,15.4-3.1,20.4,5.4c0.5,0.8,0.2,1.8-0.6,2.3C74.2,43.2,73.9,43.3,73.7,43.3L73.7,43.3z"></path>	<path d="M63.7,26.3c-0.5,0-0.9-0.2-1.3-0.6c-0.6-0.7-0.5-1.7,0.2-2.3c0.3-0.2,0.5-0.4,0.8-0.7c0.7-0.6,1.8-0.5,2.4,0.2  c0.6,0.7,0.5,1.7-0.2,2.3c-0.3,0.2-0.5,0.4-0.7,0.6C64.5,26.1,64.1,26.3,63.7,26.3L63.7,26.3z"></path>	<path d="M55.3,36.3c-0.2,0-0.5,0-0.7-0.1c-0.8-0.4-1.2-1.4-0.8-2.2c0.1-0.1,1.7-3.6,6.1-8c0.6-0.7,1.7-0.7,2.4,0  c0.7,0.6,0.7,1.7,0,2.3c-4,4-5.4,7-5.4,7.1C56.5,35.9,55.9,36.3,55.3,36.3L55.3,36.3z"></path>	<path d="M74.6,29.3c-0.9,0-1.6-0.6-1.7-1.5c0-0.3-0.1-0.6-0.1-0.9c-0.1-0.9,0.6-1.7,1.5-1.8c0.9-0.1,1.7,0.6,1.8,1.5  c0,0.3,0.1,0.7,0.1,1c0.1,0.9-0.6,1.7-1.5,1.8C74.7,29.3,74.7,29.3,74.6,29.3L74.6,29.3z"></path>	<path d="M73.7,42.3c-0.2,0-0.4,0-0.6-0.1c-0.9-0.3-1.3-1.2-1-2.1c0-0.1,1.1-3.2,1-8.8c0-0.9,0.7-1.7,1.6-1.7c0.9,0,1.7,0.7,1.7,1.6  c0.1,6.3-1.1,9.8-1.2,10C75,41.8,74.4,42.3,73.7,42.3L73.7,42.3z"></path>	<path d="M72.3,15.4c-0.2,0-0.3,0-0.5-0.1c-0.9-0.3-1.4-1.2-1.1-2.1l0.7-2.3c0.3-0.9,1.2-1.4,2.1-1.1c0.9,0.3,1.4,1.2,1.1,2.1  l-0.7,2.3C73.7,15,73.1,15.4,72.3,15.4L72.3,15.4z"></path>	<path d="M56.7,64.5c-0.2,0-0.3,0-0.5-0.1c-0.9-0.3-1.4-1.2-1.1-2.1l8.7-26.2c0.1-0.2,0.2-0.4,0.3-0.6c0.1-0.2,0.3-0.3,0.5-0.4  c0.3-0.1,0.5-0.2,0.8-0.2c0.1,0,0.3,0,0.4,0.1c0.3,0.1,0.6,0.3,0.8,0.5c0.1,0.1,0.1,0.1,0.2,0.2v0v0c0.2,0.4,0.3,0.8,0.2,1.3v0  c0,0,0,0,0,0v0c0,0,0,0,0,0l-0.1,0.3c0,0.1,0,0.1-0.1,0.2l-8.6,25.9C58,64,57.3,64.4,56.7,64.5L56.7,64.5z"></path>	<path d="M93.4,46.8c-0.9,0-1.6-0.6-1.7-1.5C89.8,25.2,79,18.9,70.3,17.2c-13-2.5-28,4-31.7,11.1c-0.4,0.8-1.4,1.1-2.3,0.7  c-0.8-0.4-1.1-1.4-0.7-2.2C40,18.5,56.3,11.1,70.9,14C79,15.6,92.8,21.7,95,45c0.1,0.9-0.6,1.7-1.5,1.8  C93.5,46.8,93.4,46.8,93.4,46.8L93.4,46.8z"></path>	<path d="M19.3,52.2c-5.3,0-9.7-4.3-9.7-9.6c0-5.3,4.3-9.6,9.7-9.6c5.3,0,9.7,4.3,9.7,9.6C28.9,47.9,24.6,52.2,19.3,52.2z   M19.3,36.3c-3.5,0-6.4,2.8-6.4,6.3c0,3.5,2.9,6.3,6.4,6.3c3.5,0,6.4-2.8,6.4-6.3C25.6,39.1,22.8,36.3,19.3,36.3z"></path>	<path d="M47.4,79.9h-3c-0.4,0-0.9-0.2-1.2-0.5c-5-4.9-16.6-16.5-17.1-17.3c-2.4-3.1-2.6-5.9-2.4-7.6c0.3-2.3,3-4.6,5.2-5.2  c0.7-0.2,1.3-0.3,2-0.3c2.3,0,4.2,1.2,6.4,3.1c1.9,1.6,10.2,11.5,12.5,14.2c2.4,0.1,10.4,0.3,18.5,0.6c19.8,0.7,20.8,1.2,21.4,1.5  c1.5,0.8,3.8,3.1,3.5,6c-0.3,2.7-2.3,4.7-5,5.1C86.9,79.9,65.3,80,47.4,79.9L47.4,79.9z M45.1,76.6h2.3h0c23.7,0,39.1-0.1,40.3-0.2  c0.9-0.1,2-0.8,2.1-2.2c0.1-1.1-0.9-2.3-1.6-2.7c-2.5-0.6-25.3-1.5-39.2-1.8c-0.5,0-0.9-0.2-1.2-0.6C43.4,64,36.5,56,35.1,54.8  c-2-1.7-3.1-2.3-4.3-2.3c-0.3,0-0.7,0.1-1.1,0.2c-1.2,0.3-2.6,1.8-2.7,2.4c-0.2,1.7,0.3,3.4,1.7,5.2C29.4,61,38.7,70.3,45.1,76.6  L45.1,76.6z"></path>	<path d="M97.3,90.1c-0.5,0-1-0.2-1.3-0.6l-7.6-9.6h-45c-0.4,0-0.9-0.2-1.2-0.5l-40.7-41c-0.6-0.7-0.6-1.7,0-2.3  c0.7-0.6,1.7-0.6,2.4,0l40.3,40.5h45.1c0.5,0,1,0.2,1.3,0.6l8.1,10.2c0.6,0.7,0.5,1.8-0.3,2.3C98.1,90,97.7,90.1,97.3,90.1  L97.3,90.1z"></path>	<path d="M35.6,90.1c-0.4,0-0.7-0.1-1-0.3c-0.7-0.6-0.9-1.6-0.3-2.3l7.4-9.5c0.6-0.7,1.6-0.9,2.3-0.3c0.7,0.6,0.9,1.6,0.3,2.3  l-7.4,9.5C36.6,89.9,36.1,90.1,35.6,90.1L35.6,90.1z"></path>	<path d="M54.7,37.4c-0.7,0-1.3-0.4-1.5-1c-4.1-9.6-15.8-7.2-16.3-7.1c-0.9,0.2-1.8-0.4-2-1.3c-0.2-0.9,0.4-1.8,1.3-2  c5.1-1.1,15.9-0.7,20.1,9.1c0.4,0.8,0,1.8-0.9,2.2C55.1,37.3,54.9,37.4,54.7,37.4L54.7,37.4z"></path>	<path d="M92.5,47.5c-0.6,0-1.2-0.3-1.5-0.9c-4.6-8.3-15.7-4.7-16.2-4.5c-0.9,0.3-1.8-0.2-2.1-1c-0.3-0.9,0.2-1.8,1-2.1  c4.9-1.7,15.4-2.6,20.2,6c0.4,0.8,0.1,1.8-0.7,2.2C93.1,47.4,92.8,47.5,92.5,47.5L92.5,47.5z"></path>	<path d="M73.7,43.3c-0.6,0-1.1-0.3-1.4-0.8c-4.9-8.2-16.2-4-16.3-4c-0.9,0.3-1.8-0.1-2.2-1c-0.3-0.9,0.1-1.8,1-2.1  c4.9-1.8,15.4-3.1,20.4,5.4c0.5,0.8,0.2,1.8-0.6,2.3C74.2,43.2,73.9,43.3,73.7,43.3L73.7,43.3z"></path>	<path d="M63.7,26.3c-0.5,0-0.9-0.2-1.3-0.6c-0.6-0.7-0.5-1.7,0.2-2.3c0.3-0.2,0.5-0.4,0.8-0.7c0.7-0.6,1.8-0.5,2.4,0.2  c0.6,0.7,0.5,1.7-0.2,2.3c-0.3,0.2-0.5,0.4-0.7,0.6C64.5,26.1,64.1,26.3,63.7,26.3L63.7,26.3z"></path>	<path d="M55.3,36.3c-0.2,0-0.5,0-0.7-0.1c-0.8-0.4-1.2-1.4-0.8-2.2c0.1-0.1,1.7-3.6,6.1-8c0.6-0.7,1.7-0.7,2.4,0  c0.7,0.6,0.7,1.7,0,2.3c-4,4-5.4,7-5.4,7.1C56.5,35.9,55.9,36.3,55.3,36.3L55.3,36.3z"></path>	<path d="M74.6,29.3c-0.9,0-1.6-0.6-1.7-1.5c0-0.3-0.1-0.6-0.1-0.9c-0.1-0.9,0.6-1.7,1.5-1.8c0.9-0.1,1.7,0.6,1.8,1.5  c0,0.3,0.1,0.7,0.1,1c0.1,0.9-0.6,1.7-1.5,1.8C74.7,29.3,74.7,29.3,74.6,29.3L74.6,29.3z"></path>	<path d="M73.7,42.3c-0.2,0-0.4,0-0.6-0.1c-0.9-0.3-1.3-1.2-1-2.1c0-0.1,1.1-3.2,1-8.8c0-0.9,0.7-1.7,1.6-1.7c0.9,0,1.7,0.7,1.7,1.6  c0.1,6.3-1.1,9.8-1.2,10C75,41.8,74.4,42.3,73.7,42.3L73.7,42.3z"></path></g></svg>