<svg xmlns="http://www.w3.org/2000/svg" xmlns:xlink="http://www.w3.org/1999/xlink" x="0px" y="0px" viewBox="0 0 100 100" xml:space="preserve"><g>	<path d="M22.8,26.7c-1,0-1.8-0.8-1.8-1.7c0-0.1,0-0.3,0-0.4c0.1-4.7,2-9.1,5.4-12.3c3.4-3.3,7.9-5,12.6-5c0.2,0,0.5,0,0.7,0  c1,0.1,1.7,0.9,1.7,1.8c-0.1,1-0.9,1.7-1.9,1.7c-0.2,0-0.4,0-0.6,0c-3.8-0.1-7.4,1.3-10.1,4c-2.7,2.6-4.3,6.1-4.3,9.9  c0,0.1,0,0.2,0,0.3C24.6,25.9,23.8,26.7,22.8,26.7L22.8,26.7L22.8,26.7z"></path>	<path d="M29.9,26.7c-1,0-1.8-0.8-1.8-1.7c0-0.1,0-0.2,0-0.2c0-2.7,1.1-5.2,3.1-7.1c2-1.9,4.5-2.9,7.3-2.8c0.1,0,0.3,0,0.4,0  c1,0.1,1.7,0.9,1.7,1.8c0,1-0.9,1.7-1.9,1.7c-0.1,0-0.2,0-0.3,0c-1.8,0-3.5,0.6-4.8,1.9c-1.3,1.2-2,2.9-2,4.7v0.2  C31.7,25.9,30.9,26.7,29.9,26.7L29.9,26.7z"></path>	<path d="M16.3,26.7c-1,0-1.8-0.8-1.8-1.7c0-0.2,0-0.3,0-0.5C14.8,11.5,25.4,1.1,38.4,1.1c0.1,0,0.3,0,0.4,0l0.3,0  c1,0,1.7,0.8,1.7,1.8c0,1-0.8,1.7-1.8,1.7c0,0,0,0,0,0h-0.2c-11.3-0.2-20.5,8.7-20.7,19.9c0,0.1,0,0.3,0,0.4  C18.1,25.9,17.3,26.7,16.3,26.7L16.3,26.7L16.3,26.7z"></path>	<path d="M68.4,88.1L68.4,88.1c-2.6,0-5.1-2.4-5.1-5v-6.1c-1.4-1.3-2.6-3.3-2.6-5.6c0-4.1,3.4-7.4,7.5-7.4s7.3,3.2,7.3,7.4  c0,2.3-1.1,4.4-3.1,5.8v5.9C72.5,86.1,70.8,88.1,68.4,88.1L68.4,88.1z M68.2,67.6c-2.2,0-4,1.8-4,3.9c0,1.5,1,2.7,1.9,3.4  c0.4,0.3,0.7,0.8,0.7,1.4v6.9c0,0.6,0.8,1.5,1.5,1.5h0.1c0.3,0,0.5-0.7,0.5-1.5v-6.9c0-0.6,0.4-1.2,0.9-1.5  c1.3-0.7,2.1-1.9,2.1-3.3C72,69.3,70.3,67.6,68.2,67.6L68.2,67.6z"></path>	<path d="M47.7,60.5c-1,0-1.8-0.8-1.8-1.7v-7.9c0-1,0.8-1.7,1.8-1.7c1,0,1.8,0.8,1.8,1.7v7.9C49.5,59.7,48.7,60.5,47.7,60.5z"></path>	<path d="M79.4,99H57.5C51.3,99,46,93.7,46,87.6V58.2c0-1,0.8-1.7,1.8-1.7c1,0,1.8,0.8,1.8,1.7v29.4c0,4.1,3.8,7.9,8,7.9h21.9  c4,0,7.2-3.6,7.2-7.9v-0.3c0-1,0.8-1.7,1.8-1.7c1,0,1.8,0.8,1.8,1.7v0.3C90.1,93.9,85.3,99,79.4,99z"></path>	<path d="M88.3,83.1c-1,0-1.8-0.8-1.8-1.7V81c0-1,0.8-1.7,1.8-1.7s1.8,0.8,1.8,1.7v0.3C90.1,82.3,89.3,83.1,88.3,83.1z"></path>	<path d="M88.3,77.2c-1,0-1.8-0.8-1.8-1.7V32.5c0-1,0.8-1.7,1.8-1.7s1.8,0.8,1.8,1.7v42.9C90.1,76.4,89.3,77.2,88.3,77.2z"></path>	<path d="M88.3,24c-1,0-1.8-0.8-1.8-1.7v-0.3c0-1,0.8-1.7,1.8-1.7s1.8,0.8,1.8,1.7v0.3C90.1,23.2,89.3,24,88.3,24z"></path>	<path d="M88.3,29c-1,0-1.8-0.8-1.8-1.7V27c0-1,0.8-1.7,1.8-1.7s1.8,0.8,1.8,1.7v0.3C90.1,28.2,89.3,29,88.3,29z"></path>	<path d="M47.7,24.5c-1,0-1.8-0.8-1.8-1.7V11.6C46,5.8,51.1,1,57.5,1h21.9c6.1,0,10.7,4.6,10.7,10.6v5.6c0,1-0.8,1.7-1.8,1.7  c-1,0-1.8-0.8-1.8-1.7v-5.6c0-4.1-3-7.1-7.2-7.1H57.5c-4.4,0-8,3.2-8,7.1v11.1C49.5,23.7,48.7,24.5,47.7,24.5z"></path>	<path d="M47.7,31.9c-1,0-1.8-0.8-1.8-1.7v-7.9c0-1,0.8-1.7,1.8-1.7c1,0,1.8,0.8,1.8,1.7v7.9C49.5,31.1,48.7,31.9,47.7,31.9z"></path>	<path d="M68.3,55.9c-4.3,0-8.3-1.6-11.3-4.6c-0.7-0.7-0.7-1.8,0-2.5c0.7-0.7,1.8-0.7,2.5,0c2.3,2.3,5.5,3.6,8.8,3.6  c6.8,0,12.4-5.5,12.4-12.3c0-6.8-5.6-12.3-12.4-12.3c-3.1,0-6,1.1-8.3,3.1c-0.7,0.6-1.8,0.6-2.5-0.1c-0.6-0.7-0.6-1.8,0.1-2.5  c2.9-2.6,6.7-4,10.6-4c8.8,0,15.9,7.1,15.9,15.8C84.2,48.9,77.1,55.9,68.3,55.9L68.3,55.9z"></path>	<path d="M66.8,48.4H17.7c-4.3,0-7.8-3.5-7.8-7.7c0-4.2,3.5-7.7,7.8-7.7h49.1c4.3,0,7.8,3.5,7.8,7.7C74.6,45,71.1,48.4,66.8,48.4z   M17.7,36.5c-2.3,0-4.2,1.9-4.2,4.2c0,2.3,1.9,4.2,4.2,4.2h49.1c2.3,0,4.2-1.9,4.2-4.2c0-2.3-1.9-4.2-4.2-4.2H17.7z"></path></g><g>	<path d="M22.8,26.7c-1,0-1.8-0.8-1.8-1.7c0-0.1,0-0.3,0-0.4c0.1-4.7,2-9.1,5.4-12.3c3.4-3.3,7.9-5,12.6-5c0.2,0,0.5,0,0.7,0  c1,0.1,1.7,0.9,1.7,1.8c-0.1,1-0.9,1.7-1.9,1.7c-0.2,0-0.4,0-0.6,0c-3.8-0.1-7.4,1.3-10.1,4c-2.7,2.6-4.3,6.1-4.3,9.9  c0,0.1,0,0.2,0,0.3C24.6,25.9,23.8,26.7,22.8,26.7L22.8,26.7L22.8,26.7z"></path>	<path d="M29.9,26.7c-1,0-1.8-0.8-1.8-1.7c0-0.1,0-0.2,0-0.2c0-2.7,1.1-5.2,3.1-7.1c2-1.9,4.5-2.9,7.3-2.8c0.1,0,0.3,0,0.4,0  c1,0.1,1.7,0.9,1.7,1.8c0,1-0.9,1.7-1.9,1.7c-0.1,0-0.2,0-0.3,0c-1.8,0-3.5,0.6-4.8,1.9c-1.3,1.2-2,2.9-2,4.7v0.2  C31.7,25.9,30.9,26.7,29.9,26.7L29.9,26.7z"></path>	<path d="M16.3,26.7c-1,0-1.8-0.8-1.8-1.7c0-0.2,0-0.3,0-0.5C14.8,11.5,25.4,1.1,38.4,1.1c0.1,0,0.3,0,0.4,0l0.3,0  c1,0,1.7,0.8,1.7,1.8c0,1-0.8,1.7-1.8,1.7c0,0,0,0,0,0h-0.2c-11.3-0.2-20.5,8.7-20.7,19.9c0,0.1,0,0.3,0,0.4  C18.1,25.9,17.3,26.7,16.3,26.7L16.3,26.7L16.3,26.7z"></path>	<path d="M68.4,88.1L68.4,88.1c-2.6,0-5.1-2.4-5.1-5v-6.1c-1.4-1.3-2.6-3.3-2.6-5.6c0-4.1,3.4-7.4,7.5-7.4s7.3,3.2,7.3,7.4  c0,2.3-1.1,4.4-3.1,5.8v5.9C72.5,86.1,70.8,88.1,68.4,88.1L68.4,88.1z M68.2,67.6c-2.2,0-4,1.8-4,3.9c0,1.5,1,2.7,1.9,3.4  c0.4,0.3,0.7,0.8,0.7,1.4v6.9c0,0.6,0.8,1.5,1.5,1.5h0.1c0.3,0,0.5-0.7,0.5-1.5v-6.9c0-0.6,0.4-1.2,0.9-1.5  c1.3-0.7,2.1-1.9,2.1-3.3C72,69.3,70.3,67.6,68.2,67.6L68.2,67.6z"></path>	<path d="M47.7,60.5c-1,0-1.8-0.8-1.8-1.7v-7.9c0-1,0.8-1.7,1.8-1.7c1,0,1.8,0.8,1.8,1.7v7.9C49.5,59.7,48.7,60.5,47.7,60.5z"></path>	<path d="M79.4,99H57.5C51.3,99,46,93.7,46,87.6V58.2c0-1,0.8-1.7,1.8-1.7c1,0,1.8,0.8,1.8,1.7v29.4c0,4.1,3.8,7.9,8,7.9h21.9  c4,0,7.2-3.6,7.2-7.9v-0.3c0-1,0.8-1.7,1.8-1.7c1,0,1.8,0.8,1.8,1.7v0.3C90.1,93.9,85.3,99,79.4,99z"></path>	<path d="M88.3,83.1c-1,0-1.8-0.8-1.8-1.7V81c0-1,0.8-1.7,1.8-1.7s1.8,0.8,1.8,1.7v0.3C90.1,82.3,89.3,83.1,88.3,83.1z"></path>	<path d="M88.3,77.2c-1,0-1.8-0.8-1.8-1.7V32.5c0-1,0.8-1.7,1.8-1.7s1.8,0.8,1.8,1.7v42.9C90.1,76.4,89.3,77.2,88.3,77.2z"></path>	<path d="M88.3,24c-1,0-1.8-0.8-1.8-1.7v-0.3c0-1,0.8-1.7,1.8-1.7s1.8,0.8,1.8,1.7v0.3C90.1,23.2,89.3,24,88.3,24z"></path>	<path d="M88.3,29c-1,0-1.8-0.8-1.8-1.7V27c0-1,0.8-1.7,1.8-1.7s1.8,0.8,1.8,1.7v0.3C90.1,28.2,89.3,29,88.3,29z"></path>	<path d="M47.7,24.5c-1,0-1.8-0.8-1.8-1.7V11.6C46,5.8,51.1,1,57.5,1h21.9c6.1,0,10.7,4.6,10.7,10.6v5.6c0,1-0.8,1.7-1.8,1.7  c-1,0-1.8-0.8-1.8-1.7v-5.6c0-4.1-3-7.1-7.2-7.1H57.5c-4.4,0-8,3.2-8,7.1v11.1C49.5,23.7,48.7,24.5,47.7,24.5z"></path>	<path d="M47.7,31.9c-1,0-1.8-0.8-1.8-1.7v-7.9c0-1,0.8-1.7,1.8-1.7c1,0,1.8,0.8,1.8,1.7v7.9C49.5,31.1,48.7,31.9,47.7,31.9z"></path>	<path d="M68.3,55.9c-4.3,0-8.3-1.6-11.3-4.6c-0.7-0.7-0.7-1.8,0-2.5c0.7-0.7,1.8-0.7,2.5,0c2.3,2.3,5.5,3.6,8.8,3.6  c6.8,0,12.4-5.5,12.4-12.3c0-6.8-5.6-12.3-12.4-12.3c-3.1,0-6,1.1-8.3,3.1c-0.7,0.6-1.8,0.6-2.5-0.1c-0.6-0.7-0.6-1.8,0.1-2.5  c2.9-2.6,6.7-4,10.6-4c8.8,0,15.9,7.1,15.9,15.8C84.2,48.9,77.1,55.9,68.3,55.9L68.3,55.9z"></path>	<path d="M66.8,48.4H17.7c-4.3,0-7.8-3.5-7.8-7.7c0-4.2,3.5-7.7,7.8-7.7h49.1c4.3,0,7.8,3.5,7.8,7.7C74.6,45,71.1,48.4,66.8,48.4z   M17.7,36.5c-2.3,0-4.2,1.9-4.2,4.2c0,2.3,1.9,4.2,4.2,4.2h49.1c2.3,0,4.2-1.9,4.2-4.2c0-2.3-1.9-4.2-4.2-4.2H17.7z"></path></g></svg>