<svg xmlns="http://www.w3.org/2000/svg" xmlns:xlink="http://www.w3.org/1999/xlink" x="0px" y="0px" viewBox="0 0 100 100" xml:space="preserve">	<path d="M98.5,59.5c0-0.2,0-0.4,0-0.6c0-0.1,0-0.1,0-0.2c-0.1-0.5-0.2-0.9-0.3-1.2c0,0,0,0,0,0c-0.5-1.3-1.8-4.5-4.3-7.6  c-0.2-0.3-0.5-0.6-0.7-0.9l2.5-0.6c0,0,0,0,0.1,0c1.7-0.6,2.6-1.3,2.6-3.5v-2.5c0-2.5-1.2-4.5-2.7-4.5h-9.3  c-0.1-0.2-0.2-0.5-0.4-0.7c-4.7-9.2-8.5-16.3-11.8-17.1c-0.6-0.1-1.1-0.3-1.7-0.4c-1.5-0.4-2.8-0.7-4.6-1L65.8,6.2c0,0,0-0.1,0-0.1  c-0.5-2.2-1.6-2.5-2.3-2.5H36.5c-0.9,0-1.9,0.7-2.3,2.6c0,0,0,0,0,0l-2.1,12.9c-4.4,0.5-6.4,1-6.4,1c0,0,0,0,0,0  c-3.3,0.8-7.1,7.8-11.7,17c-0.1,0.3-0.3,0.6-0.4,0.8H4.3c-1.5,0-2.7,2-2.7,4.5v2.5c0,2.3,0.9,3,2.6,3.5c0,0,0,0,0.1,0L6.7,49  c-0.3,0.4-0.6,0.8-0.9,1.2l-0.1,0.1c-2,2.7-3.3,6.2-3.7,7.6c-0.3,0.9-0.4,1.8-0.4,2.2c0,0.1,0,0.1,0,0.2c-0.6,5.5-0.8,15-0.1,24v7.6  c0,2.8,1.4,4.7,3.5,4.7H15c1.3,0,2.1-0.6,2.5-1.2c0.5-0.6,1-1.7,1-3.5v-4.5h63v4.5c0,2.9,1.3,4.7,3.5,4.7h10.1  c1.1,0,1.9-0.4,2.5-1.1c0.7-0.8,1-2,1-3.5l0-6.1C99.5,74,98.7,62.7,98.5,59.5L98.5,59.5z M95.6,42.3v2.5c0,0,0,0.1,0,0.1  C95.5,45,95.3,45,95,45.1l-3.9,1l-2.9-4.9h7.1C95.4,41.4,95.6,41.8,95.6,42.3z M36.9,6.9h26.3c0,0,0,0,0,0l1.9,11.5  c-4.5-0.4-16.6-1.2-30.1,0.4L36.9,6.9L36.9,6.9z M4.9,45.1C4.6,45,4.4,45,4.3,44.9c0,0,0-0.1,0-0.1v-2.5c0-0.6,0.1-1,0.2-1.1h7.1  l-2.9,4.9L4.9,45.1z M95.9,85.4c0,0,0,0.1,0,0.1l0,6.2c0,0.9-0.2,1.1-0.2,1.2c-0.1,0.1-0.3,0.2-0.6,0.2H85c-0.5,0-0.8,0-0.8-1.3  v-6.2c0-0.9-0.6-1.7-1.4-1.7H17.1c-0.7,0-1.4,0.8-1.4,1.7v6.2c0,0.5-0.1,1-0.2,1.1c-0.1,0.2-0.4,0.2-0.6,0.2H4.9  c-0.3,0-0.8,0-0.8-1.3v-7.6c0-0.1,0-0.1,0-0.2c-0.7-8.7-0.4-18,0.1-23.3c0-0.1,0-0.1,0-0.2c0-0.3,0.1-0.9,0.2-1.2c0,0,0,0,0,0  C4.8,58.2,6,55,7.7,52.6l0.1-0.1c0.5-0.7,1.1-1.4,1.6-2.1c0.3-0.4,0.6-0.8,1-1.3c0-0.1,0.1-0.1,0.1-0.2l4.9-8.5l0,0c0,0,0-0.1,0-0.1  c0.3-0.5,0.5-1.1,0.8-1.6c1.7-3.3,3.6-7.1,5.5-10.1c2.7-4.4,4-5.2,4.5-5.3c0.2,0,2.5-0.5,7.2-1c0,0,0,0,0,0v0  c17.5-2.3,33.1-0.4,33.2-0.4c2.2,0.3,3.6,0.6,5.3,1c0.5,0.1,1.1,0.3,1.7,0.4c0.4,0.1,1.7,0.8,4.5,5.3c1.9,3.1,3.8,6.9,5.5,10.3  c0.3,0.5,0.5,1,0.8,1.5c0,0,0,0.1,0,0.1l0,0l4.9,8.5c0,0,0,0,0,0l0,0c0,0.1,0.1,0.1,0.1,0.2c0.9,1.2,1.8,2.3,2.4,3.1  c2.2,2.7,3.4,5.7,3.7,6.6c0,0.1,0.1,0.2,0.1,0.5c0,0,0,0,0,0c0,0.1,0,0.2,0,0.3c0,0,0,0.1,0,0.1C96.3,66.2,96.6,76.3,95.9,85.4  L95.9,85.4z M96.5,60.6c0.1,0.1,0.3,0.2,0.5,0.2C96.8,60.7,96.6,60.7,96.5,60.6z"></path>	<path d="M79.6,51.9c2.8-0.4,4.1-0.9,4.7-2.5c0.4-1.1,0.1-2.2-0.1-2.6C83,43,76,28.9,74.4,26.9c-0.2-0.3-0.6-0.6-0.9-0.7  c-3.2-1.3-11.7-2.5-23.6-2.5c-12.7,0-20.8,1.6-23.5,2.5c-0.4,0.1-0.7,0.4-1,0.7c-1.6,2.1-8.7,16.4-9.8,19.9  c-0.2,0.5-0.5,1.5-0.1,2.6c0.6,1.6,1.9,2,4.7,2.5c1.8,0.3,4.3,0.5,7.5,0.7c5.9,0.4,13.7,0.6,22.1,0.6s16.2-0.2,22.1-0.6  C75.2,52.4,77.7,52.2,79.6,51.9L79.6,51.9z M49.9,50.2c-8.3,0-16.1-0.2-22-0.5c-3.1-0.2-5.6-0.4-7.4-0.7c-2.2-0.3-2.7-0.6-2.8-0.7  c0-0.1,0-0.2,0.1-0.4c1-3.2,7.8-16.8,9.3-18.9c2.7-0.9,10.5-2.4,22.8-2.4c11.5,0,19.7,1.2,22.8,2.4c1.5,2,8.2,15.5,9.3,18.9  c0.1,0.2,0.1,0.3,0.1,0.4c-0.1,0.1-0.6,0.4-2.8,0.8c-1.8,0.3-4.2,0.5-7.4,0.7C66,50,58.2,50.2,49.9,50.2L49.9,50.2z"></path>	<path d="M26.9,66.1c-0.4-0.3-1.3-0.7-1.4-0.8l0,0c-1.6-0.8-3.6-1.4-5.4-2c-1.7-0.5-3.7-1.1-5.4-1.1c-1.9,0-3.1,0.7-3.8,2.1  c-0.5,1.1-0.7,2.9-0.6,5.4c0.1,2.1,0.3,4,1.5,5.3c1.2,1.2,3,1.4,5.7,1.4c0.8,0,1.7,0,2.4,0c4.6-0.1,7.2-0.8,8.6-2.3  c0.9-0.9,1.2-2.5,1-4.5C29.5,68.9,29.1,67.5,26.9,66.1L26.9,66.1z M27,71.9c-0.6,0.6-2.3,1.5-7.1,1.6c-0.7,0-1.6,0-2.4,0  c-1.6,0-3.5-0.1-4.2-0.8c-0.4-0.4-0.5-1.4-0.7-3.3c-0.2-2.6,0.1-3.5,0.2-3.7c0.3-0.5,1.1-0.6,1.7-0.6c1.4,0,3.2,0.5,4.8,1  c1.7,0.5,3.6,1.1,5.1,1.9c0.3,0.1,0.9,0.5,1.2,0.7c1.2,0.7,1.4,1.3,1.4,1.4C27.4,71.1,27.2,71.8,27,71.9L27,71.9z"></path>	<path d="M85.3,62.3c-1.6,0-3.6,0.5-5.4,1.1c-2.9,0.9-5.2,1.7-6.9,2.8c-2.1,1.3-2.6,2.8-2.7,3.6c-0.2,1.9,0.1,3.6,1,4.5  c1.4,1.5,4,2.2,8.6,2.3c0.8,0,1.6,0,2.4,0c2.7,0,4.5-0.2,5.7-1.4c1.2-1.3,1.4-3.2,1.5-5.3c0.2-2.5,0-4.3-0.6-5.4  C88.5,63,87.2,62.3,85.3,62.3L85.3,62.3z M87.3,69.5c-0.1,2-0.3,2.9-0.7,3.3c-0.6,0.7-2.6,0.8-4.2,0.8c-0.8,0-1.6,0-2.4,0  c-4.8-0.1-6.5-0.9-7.1-1.6c-0.2-0.2-0.3-0.9-0.2-1.8c0,0,0.2-0.6,1.4-1.4c1.5-0.9,3.6-1.7,6.3-2.5c1.6-0.5,3.4-1,4.8-1  c0.7,0,1.5,0.1,1.7,0.6C87.2,66,87.5,66.9,87.3,69.5L87.3,69.5z"></path>	<path d="M40.3,10.6h1.1c0.2,0,0.3,0.2,0.3,0.4v4.6c0,0.2,0.2,0.4,0.3,0.4H43c0.2,0,0.3-0.2,0.3-0.4V11c0-0.2,0.2-0.4,0.3-0.4h1.1  c0.2,0,0.3-0.2,0.3-0.4V9.3c0-0.2-0.2-0.4-0.3-0.4h-4.4C40.1,8.9,40,9,40,9.3v0.9C40,10.4,40.1,10.6,40.3,10.6L40.3,10.6z"></path>	<path d="M45.6,16h1c0.2,0,0.4-0.2,0.5-0.4l0.2-0.5c0.1-0.2,0.3-0.4,0.5-0.4h1.5c0.2,0,0.4,0.2,0.5,0.4l0.2,0.5  c0.1,0.2,0.3,0.4,0.5,0.4h1c0.2,0,0.3-0.2,0.2-0.4l-2.2-6.4c-0.1-0.2-0.3-0.4-0.5-0.4h-0.9c-0.2,0-0.4,0.2-0.5,0.4l-2.2,6.4  C45.3,15.8,45.4,16,45.6,16z M48,12.8l0.4-1.2c0.1-0.2,0.2-0.2,0.2,0l0.4,1.2c0.1,0.2,0,0.4-0.2,0.4h-0.6C48,13.2,47.9,13,48,12.8z"></path>	<path d="M52.2,16h1.1c0.2,0,0.4-0.2,0.5-0.4l0.7-1.4c0.1-0.2,0.3-0.2,0.4,0l0.7,1.4c0.1,0.2,0.3,0.4,0.5,0.4h1.2  c0.2,0,0.3-0.2,0.2-0.3l-1.6-2.9c-0.1-0.2-0.1-0.5,0-0.7l1.5-2.8c0.1-0.2,0-0.3-0.2-0.3h-1.1c-0.2,0-0.4,0.2-0.5,0.4L55,10.5  c-0.1,0.2-0.3,0.2-0.4,0L54,9.2c-0.1-0.2-0.3-0.4-0.5-0.4h-1.2c-0.2,0-0.3,0.2-0.2,0.3l1.5,2.8c0.1,0.2,0.1,0.5,0,0.7L52,15.6  C51.9,15.8,52,16,52.2,16L52.2,16z"></path>	<path d="M59.6,8.9h-0.9c-0.2,0-0.3,0.2-0.3,0.4v6.3c0,0.2,0.2,0.4,0.3,0.4h0.9c0.2,0,0.3-0.2,0.3-0.4V9.3C59.9,9,59.8,8.9,59.6,8.9z  "></path></svg>