<svg xmlns="http://www.w3.org/2000/svg" xmlns:xlink="http://www.w3.org/1999/xlink" x="0px" y="0px" viewBox="0 0 100 100" xml:space="preserve">	<path d="M47.7,21.9c-5.8,0-10.5-4.7-10.5-10.5S42,1,47.7,1s10.5,4.7,10.5,10.5S53.5,21.9,47.7,21.9z M47.7,3.8  c-4.2,0-7.7,3.4-7.7,7.7s3.4,7.7,7.7,7.7s7.7-3.4,7.7-7.7S52,3.8,47.7,3.8z"></path>	<path d="M86.3,78.6c-5.8,0-10.5-4.7-10.5-10.5s4.7-10.5,10.5-10.5c5.8,0,10.5,4.7,10.5,10.5S92,78.6,86.3,78.6z M86.3,60.5  c-4.2,0-7.7,3.4-7.7,7.7s3.4,7.7,7.7,7.7s7.7-3.4,7.7-7.7S90.5,60.5,86.3,60.5z"></path>	<path d="M88.5,96.7H72.7c-0.3,0-0.7-0.1-0.9-0.3L55.9,82.8c-0.6-0.5-0.7-1.4-0.2-2c0.5-0.6,1.4-0.7,2-0.2l15.5,13.3h15.3  c4.1,0,6.3-4.1,7.2-6.5L77,85.4c-0.4,0-0.7-0.2-1-0.5c-0.2-0.3-4.8-6.3-6.8-9.2c-1.8-2.7-4.1-6.1-10.7-6.1H25.1  c-0.8,0-1.4-0.6-1.4-1.4s0.6-1.4,1.4-1.4h33.5c8.1,0,11.1,4.4,13,7.4c1.6,2.4,5.2,7.1,6.3,8.6l19.8,2.2c0.4,0,0.8,0.3,1,0.6  c0.2,0.3,0.3,0.7,0.2,1.1C98.9,87,96.3,96.7,88.5,96.7z"></path>	<path d="M62.1,87.7h-37c-0.8,0-1.4-0.6-1.4-1.4s0.6-1.4,1.4-1.4h37c0.8,0,1.4,0.6,1.4,1.4S62.9,87.7,62.1,87.7z"></path>	<path d="M25.1,99c-0.8,0-1.4-0.6-1.4-1.4V67.3H2.4c-0.8,0-1.4-0.6-1.4-1.4s0.6-1.4,1.4-1.4h22.7c0.8,0,1.4,0.6,1.4,1.4v31.7  C26.5,98.4,25.8,99,25.1,99z"></path>	<path d="M37.5,63.1c-0.2,0-0.3,0-0.5-0.1c-0.7-0.3-1.1-1-0.9-1.8L39,53c0.3-0.7,1-1.1,1.8-0.9c0.7,0.3,1.1,1,0.9,1.8l-2.8,8.2  C38.6,62.7,38.1,63.1,37.5,63.1z"></path>	<path d="M53.1,62.2c-2,0-4.1-0.7-5.9-2.2L36,52.1c-0.3-0.2-0.5-0.5-0.6-0.8l-3.3-13c-0.2-0.8,0.3-1.5,1-1.7c0.7-0.2,1.5,0.3,1.7,1  l3.2,12.5l10.8,7.6c3.1,2.4,6.3,2.2,9-0.6l0.1-0.1L46.5,45.9c-0.2-0.2-0.3-0.4-0.4-0.7c0-0.1-1.9-9.1-2.6-11.6  c-0.4-1.5-2.2-6.6-7.1-7.7c-4.9-1.1-7.5-0.2-8.9,3.2L14.7,60.4c-0.3,0.7-1.1,1.1-1.8,0.8c-0.7-0.3-1.1-1.1-0.8-1.8L25,28.1  c1.9-4.7,5.9-6.4,12.1-4.9c6.3,1.5,8.6,7.8,9.1,9.7c0.7,2.3,2.2,9.5,2.6,11.4L61,56.1c0.3,0.3,0.4,0.6,0.4,1c0,0.4-0.1,0.7-0.4,1  l-1.1,1.1C57.9,61.2,55.5,62.2,53.1,62.2z"></path></svg>