<svg xmlns="http://www.w3.org/2000/svg" xmlns:xlink="http://www.w3.org/1999/xlink" x="0px" y="0px" viewBox="0 0 100 100" xml:space="preserve">	<path d="M55.3,73.4l-0.3-0.3l-0.4-0.3c-1.3-0.9-2.9-1.4-4.5-1.4c-0.5,0-0.9,0-1.4,0.1c-2.1,0.4-3.9,1.5-5.1,3.3  c-2.5,3.6-1.6,8.5,1.9,11.1c1.3,0.9,2.9,1.4,4.5,1.4c2.6,0,5-1.3,6.5-3.4C58.8,80.6,58.3,76.1,55.3,73.4z M55,82.9L55,82.9  c-1.3,1.7-3.1,2.6-5,2.6c-1.2,0-2.4-0.4-3.5-1.1l0,0v0c0,0,0,0-0.1,0l-0.1-0.1l0,0c-1.3-0.9-2.1-2.3-2.4-3.8c-0.3-1.6,0.1-3.2,1-4.6  c0.9-1.3,2.3-2.2,4-2.5c1.6-0.3,3.1,0.1,4.4,0.9l0,0l0.2,0.1c1.3,0.9,2.2,2.3,2.5,4C56.3,79.9,56,81.5,55,82.9z"></path>	<path d="M55.4,73.2L55.4,73.2l-0.7-0.6c-1.8-1.2-3.9-1.7-6.1-1.3h0c-2.1,0.4-4,1.6-5.2,3.3c-2.6,3.7-1.7,8.8,2,11.3l0,0  c1.4,1,3,1.5,4.7,1.5c2.6,0,5.1-1.2,6.7-3.5C59,80.6,58.4,75.9,55.4,73.2z M56.5,83.9C55,86,52.6,87.3,50,87.3  c-1.6,0-3.2-0.5-4.5-1.4c-3.6-2.5-4.5-7.5-1.9-11.1c1.2-1.7,3-2.9,5.1-3.3c0.5-0.1,0.9-0.1,1.4-0.1c1.6,0,3.2,0.5,4.5,1.4l0.4,0.3  l0.3,0.3C58.3,76.1,58.8,80.6,56.5,83.9z"></path>	<path d="M53.5,74.3l-0.2-0.1l0,0c-1.3-0.8-2.9-1.2-4.4-0.9c-1.6,0.3-3,1.2-4,2.5c-0.9,1.3-1.3,3-1,4.6c0.3,1.6,1.1,2.9,2.4,3.8l0,0  l0.1,0.1c0,0,0,0,0.1,0v0l0,0c1.1,0.7,2.3,1.1,3.5,1.1c1.9,0,3.8-0.9,5-2.5l0.1-0.1c0.9-1.3,1.3-3,1-4.6  C55.8,76.7,54.9,75.2,53.5,74.3z M54.9,82.7L54.9,82.7L54.9,82.7c-2,2.7-5.6,3.3-8.3,1.5h0c-1.3-0.9-2.2-2.3-2.4-3.8  c-0.3-1.6,0.1-3.1,1-4.4c0.9-1.3,2.3-2.2,3.8-2.4l1-0.1c1.2,0,2.4,0.4,3.4,1.1c1.3,0.9,2.2,2.3,2.4,3.8  C56.1,79.9,55.8,81.4,54.9,82.7z"></path>	<path d="M97.2,32.1L97.2,32.1C71.2,6,28.8,6,2.8,32.1l0,0c-2.4,2.4-2.4,6.3,0,8.7h0c2.4,2.4,6.3,2.4,8.7,0  C21.8,30.5,35.5,24.9,50,24.9c14.5,0,28.2,5.7,38.5,15.9c1.2,1.2,2.7,1.8,4.4,1.8c1.6,0,3.2-0.6,4.4-1.8s1.8-2.7,1.8-4.4  C99,34.8,98.4,33.2,97.2,32.1z M95.6,39.3L95.6,39.3c-0.8,0.8-1.7,1.2-2.8,1.2c-1.1,0-2.1-0.4-2.8-1.2C79.3,28.6,65.1,22.7,50,22.7  c-15.1,0-29.3,5.9-40,16.6c-1.6,1.6-4.1,1.6-5.6,0c-1.6-1.6-1.6-4.1,0-5.6c25.2-25.2,66.1-25.2,91.3,0c0.8,0.8,1.2,1.8,1.2,2.8  S96.4,38.5,95.6,39.3z"></path>	<path d="M92.8,42.8c-1.7,0-3.3-0.7-4.5-1.9C78.1,30.7,64.5,25.1,50,25.1c-14.5,0-28.1,5.6-38.3,15.9c-1.2,1.2-2.8,1.9-4.5,1.9  c-1.7,0-3.3-0.7-4.5-1.9c-2.5-2.5-2.5-6.5,0-9C15.3,19.3,32.1,12.3,50,12.3c17.9,0,34.7,7,47.3,19.6v0c1.2,1.2,1.9,2.8,1.9,4.5  s-0.7,3.3-1.9,4.5C96.1,42.2,94.5,42.8,92.8,42.8z M50,24.7c14.6,0,28.3,5.7,38.6,16c1.1,1.1,2.6,1.8,4.2,1.8c1.6,0,3.1-0.6,4.2-1.8  s1.8-2.6,1.8-4.2s-0.6-3.1-1.8-4.2C84.5,19.6,67.8,12.7,50,12.7c-17.8,0-34.5,6.9-47,19.5c-2.3,2.3-2.3,6.1,0,8.5  c1.1,1.1,2.6,1.8,4.2,1.8c1.6,0,3.1-0.6,4.2-1.8C21.7,30.4,35.4,24.7,50,24.7z M92.8,40.6c-1.1,0-2.2-0.4-3-1.2  C79.2,28.8,65.1,22.9,50,22.9c-15.1,0-29.2,5.9-39.9,16.5c-0.8,0.8-1.8,1.2-3,1.2s-2.2-0.4-3-1.2c-1.6-1.6-1.6-4.3,0-5.9  c12.2-12.2,28.5-19,45.8-19c17.3,0,33.6,6.7,45.8,19c0.8,0.8,1.2,1.8,1.2,3c0,1.1-0.4,2.2-1.2,3l0,0C95,40.2,93.9,40.6,92.8,40.6z  M50,22.5c15.2,0,29.4,5.9,40.2,16.6c0.7,0.7,1.7,1.1,2.7,1.1s2-0.4,2.7-1.1l0,0c0.7-0.7,1.1-1.7,1.1-2.7c0-1-0.4-2-1.1-2.7  C83.4,21.6,67.2,14.9,50,14.9c-17.2,0-33.4,6.7-45.5,18.8c-1.5,1.5-1.5,3.9,0,5.4c0.7,0.7,1.7,1.1,2.7,1.1s2-0.4,2.7-1.1  C20.6,28.4,34.8,22.5,50,22.5z"></path>	<path d="M16.6,54.7L16.6,54.7c2.4,2.4,6.3,2.4,8.7,0c6.6-6.6,15.3-10.2,24.6-10.2c9.3,0,18.1,3.6,24.6,10.2l0.2-0.2l-0.2,0.2  c1.2,1.2,2.7,1.8,4.4,1.8c1.6,0,3.2-0.6,4.4-1.8s1.8-2.7,1.8-4.4c0-1.7-0.6-3.2-1.8-4.4C74.5,37,62.6,32.1,50,32.1  c-12.6,0-24.5,4.9-33.4,13.8C14.2,48.3,14.2,52.2,16.6,54.7z M81.8,53.1c-0.8,0.8-1.8,1.2-2.8,1.2c-1.1,0-2.1-0.4-2.8-1.2  c-7-7-16.3-10.8-26.2-10.8s-19.2,3.9-26.2,10.8c-1.6,1.6-4.1,1.6-5.6,0c-1.6-1.6-1.6-4.1,0-5.6C26.7,39,38,34.3,50,34.3  c12,0,23.3,4.7,31.8,13.2c0.8,0.8,1.2,1.8,1.2,2.8C83,51.3,82.6,52.3,81.8,53.1z"></path>	<path d="M79,56.7c-1.6,0-3.2-0.6-4.4-1.7l0,0l-0.1-0.1C68,48.3,59.3,44.7,50,44.7c-9.3,0-18,3.6-24.5,10.1c-1.2,1.2-2.8,1.9-4.5,1.9  c-1.7,0-3.3-0.7-4.5-1.9l0,0c-2.5-2.5-2.5-6.5,0-9c8.9-9,20.8-13.9,33.5-13.9s24.6,4.9,33.5,13.9c1.2,1.2,1.9,2.8,1.9,4.5  c0,1.7-0.7,3.3-1.9,4.5C82.3,56,80.7,56.7,79,56.7z M74.9,54.7c1.1,1,2.6,1.6,4.1,1.6c1.6,0,3.1-0.6,4.2-1.8  c1.1-1.1,1.8-2.6,1.8-4.2c0-1.6-0.6-3.1-1.8-4.2C74.4,37.2,62.6,32.3,50,32.3c-12.6,0-24.4,4.9-33.2,13.8c-2.3,2.3-2.3,6.1,0,8.5  c1.1,1.1,2.6,1.8,4.2,1.8c1.6,0,3.1-0.6,4.2-1.8c6.6-6.6,15.4-10.3,24.8-10.3c9.3,0,18.1,3.6,24.6,10.1l0.1-0.1L74.9,54.7L74.9,54.7  z M79,54.5c-1.1,0-2.2-0.4-3-1.2c-6.9-7-16.2-10.8-26.1-10.8s-19.1,3.8-26.1,10.8c-0.8,0.8-1.8,1.2-3,1.2s-2.2-0.4-3-1.2  c-1.6-1.6-1.6-4.3,0-5.9c8.5-8.5,19.9-13.2,32-13.2c12.1,0,23.4,4.7,32,13.2c0.8,0.8,1.2,1.8,1.2,3c0,1.1-0.4,2.2-1.2,3l-0.1-0.1  l0.1,0.1C81.2,54,80.1,54.5,79,54.5z M50,42.1c10,0,19.3,3.9,26.3,10.9c0.7,0.7,1.7,1.1,2.7,1.1c1,0,2-0.4,2.7-1.1  c0.7-0.7,1.1-1.7,1.1-2.7c0-1-0.4-2-1.1-2.7C73.2,39.1,62,34.5,50,34.5c-12,0-23.2,4.7-31.7,13.1c-1.5,1.5-1.5,3.9,0,5.4  c0.7,0.7,1.7,1.1,2.7,1.1s2-0.4,2.7-1.1C30.7,45.9,40,42.1,50,42.1z"></path>	<path d="M69.6,59.7c-10.7-10.7-28-10.8-38.8-0.3l0,0l-0.3,0.3c-1.2,1.2-1.8,2.7-1.8,4.4c0,1.7,0.6,3.2,1.8,4.4l0,0  c1.2,1.2,2.7,1.8,4.4,1.8c1.6,0,3.2-0.6,4.4-1.8l0,0C42.1,65.6,45.9,64,50,64l0,0c4.1,0,7.9,1.6,10.8,4.5v0c2.4,2.4,6.3,2.4,8.7,0v0  c1.2-1.2,1.8-2.7,1.8-4.4C71.4,62.5,70.7,60.9,69.6,59.7L69.6,59.7z M68,66.9L68,66.9c-1.6,1.6-4.1,1.6-5.6,0  c-3.3-3.3-7.7-5.1-12.4-5.1c-4.7,0-9.1,1.8-12.4,5.1c-0.8,0.8-1.8,1.2-2.8,1.2c-1.1,0-2.1-0.4-2.8-1.2l0,0c-1.6-1.6-1.6-4.1,0-5.6  c5-5,11.5-7.5,18-7.5c6.5,0,13,2.5,18,7.5c0.8,0.8,1.2,1.8,1.2,2.8C69.2,65.2,68.8,66.2,68,66.9z"></path>	<path d="M34.8,70.5c-1.7,0-3.3-0.7-4.5-1.9c-1.2-1.2-1.9-2.8-1.9-4.5c0-1.7,0.7-3.3,1.9-4.5l0.5-0.5l0,0  c10.9-10.4,28.3-10.2,38.9,0.5l0,0c1.2,1.2,1.9,2.8,1.9,4.5c0,1.7-0.7,3.3-1.9,4.5c-1.2,1.2-2.8,1.9-4.5,1.9c-1.7,0-3.3-0.7-4.5-1.9  c-2.8-2.9-6.6-4.4-10.7-4.4c0,0,0,0,0,0c-4,0-7.8,1.6-10.7,4.4C38.1,69.8,36.5,70.5,34.8,70.5z M30.7,59.8l-0.1,0.1  c-1.1,1.1-1.8,2.6-1.8,4.2c0,1.6,0.6,3.1,1.8,4.2c1.1,1.1,2.6,1.8,4.2,1.8c1.6,0,3.1-0.6,4.2-1.8c2.9-2.9,6.8-4.5,11-4.5  c0,0,0,0,0,0c4.1,0,8,1.6,11,4.5c1.1,1.1,2.6,1.8,4.2,1.8c1.6,0,3.1-0.6,4.2-1.8c1.1-1.1,1.8-2.6,1.8-4.2c0-1.6-0.6-3.1-1.8-4.2  c-10.5-10.6-27.8-10.7-38.5-0.3L30.7,59.8L30.7,59.8z M34.8,68.3c-1.1,0-2.2-0.4-3-1.2c-1.6-1.6-1.6-4.3,0-5.9  c4.8-4.8,11.3-7.5,18.2-7.5c6.9,0,13.3,2.7,18.2,7.5c0.8,0.8,1.2,1.8,1.2,3s-0.4,2.2-1.2,3l0,0c-0.8,0.8-1.8,1.2-3,1.2h0  c-1.1,0-2.2-0.4-3-1.2C59,63.8,54.6,62,50,62c-4.6,0-9,1.8-12.2,5.1C37,67.9,35.9,68.3,34.8,68.3z M50,54c-6.8,0-13.1,2.6-17.9,7.4  c-1.5,1.5-1.5,3.9,0,5.4c0.7,0.7,1.7,1.1,2.7,1.1c1,0,2-0.4,2.7-1.1c3.3-3.3,7.8-5.2,12.5-5.2c4.7,0,9.2,1.8,12.5,5.2  c0.7,0.7,1.7,1.1,2.7,1.1c1,0,2-0.4,2.7-1.1v0c0.7-0.7,1.1-1.7,1.1-2.7s-0.4-2-1.1-2.7C63.1,56.7,56.8,54,50,54z"></path></svg>