<svg xmlns="http://www.w3.org/2000/svg" xmlns:xlink="http://www.w3.org/1999/xlink" x="0px" y="0px" viewBox="0 0 100 100" xml:space="preserve">	<path d="M45.3,64.7c0.2,0.2,0.4,0.4,0.7,0.4h0c0.3,0,0.5-0.1,0.7-0.4c0.2-0.2,0.3-0.5,0.3-0.8c0-0.3-0.1-0.6-0.3-0.8  c-0.2-0.2-0.4-0.4-0.7-0.4c-0.3,0-0.5,0.1-0.7,0.4c-0.2,0.2-0.3,0.5-0.3,0.8C45,64.1,45.1,64.5,45.3,64.7z"></path>	<path d="M46,65.1c-0.3,0-0.6-0.1-0.8-0.4l0,0c-0.2-0.2-0.3-0.6-0.3-0.9c0-0.3,0.1-0.7,0.3-0.9c0.2-0.2,0.5-0.4,0.8-0.4  c0.3,0,0.6,0.1,0.8,0.4c0.2,0.2,0.3,0.6,0.3,0.9c0,0.3-0.1,0.7-0.3,0.9C46.5,65,46.3,65.1,46,65.1z M45.3,64.6  c0.2,0.2,0.4,0.3,0.6,0.3c0.2,0,0.5-0.1,0.6-0.3c0.2-0.2,0.3-0.5,0.3-0.8c0-0.3-0.1-0.6-0.3-0.8c-0.2-0.2-0.4-0.3-0.6-0.3  c-0.2,0-0.5,0.1-0.6,0.3c-0.2,0.2-0.3,0.5-0.3,0.8C45.1,64.1,45.2,64.4,45.3,64.6L45.3,64.6z"></path>	<path d="M85.1,98.8c-0.4,0-0.7-0.3-0.8-0.7l-1.5-5.4h-5c-0.4,0-0.7-0.3-0.8-0.7l-7.3-27H52.7c-0.5,0-0.9-0.5-0.9-1.1  c0-0.6,0.4-1.1,0.9-1.1h29.5l3.8-7.3H75.4c-0.5,0-0.9-0.5-0.9-1.1c0-0.6,0.4-1.1,0.9-1.1h11.7l3.3-6.4H9.6l8.1,15.8h21  c0.5,0,0.9,0.5,0.9,1.1c0,0.6-0.4,1.1-0.9,1.1h-8.4l-7.3,27c-0.1,0.4-0.4,0.7-0.8,0.7h-5l-1.5,5.4c-0.1,0.4-0.4,0.7-0.8,0.7H8.1  c-0.3,0-0.5-0.2-0.7-0.4c-0.2-0.3-0.2-0.6-0.1-0.9L16.3,64l-9-17.5c-0.2-0.3-0.2-0.7,0-1.1c0.1-0.3,0.4-0.5,0.7-0.5h4.1L7.2,14.2  c0-0.3,0-0.6,0.2-0.9c0.2-0.2,0.4-0.4,0.7-0.4h24c0.3,0,0.5,0.1,0.7,0.4c0.2,0.2,0.2,0.6,0.2,0.9L28,44.9h6.6l-1-1.7  c-0.2-0.3-0.3-0.6-0.5-0.8c-2-4.1-1.2-9.5,1.9-12.5l6.5-6.3l0,0c1.2-1.3,2.7-2,4.3-2h8.3c1.6,0,3.1,0.7,4.3,2l0,0l0.6,0.5l0.5-0.3  c0.1-0.1,0.2-0.1,0.3-0.1h26.2c0.5,0,0.9,0.5,0.9,1.1v1.5h5.2c0.5,0,0.9,0.5,0.9,1.1v2.8c0,4.9-3.1,9-7,9.3l-0.5,0l-0.2,0.5  c-0.5,1.1-1,2.1-1.7,3l-1.2,1.7h9.8c0.3,0,0.6,0.2,0.7,0.5c0.1,0.3,0.1,0.7,0,1.1l-9,17.5l9.1,33.4c0.1,0.3,0,0.7-0.1,0.9  c-0.2,0.3-0.4,0.4-0.7,0.4H85.1L85.1,98.8z M85.7,96.7h5l-8.6-31.8h-5L85.7,96.7z M9.3,96.7h5l8.6-31.8h-5L9.3,96.7z M78.4,90.6h3.9  l-7-25.7h-3.9L78.4,90.6z M17.7,90.6h3.8l7-25.7h-3.8L17.7,90.6z M64.9,29.9c3.1,3,3.9,8.3,1.9,12.5c-0.1,0.3-0.3,0.5-0.5,0.8  l-1,1.7h13.8l0.2-0.2c3.6-2.7,5.8-7.7,5.8-12.8V26H60.8L64.9,29.9L64.9,29.9z M60.6,30.5c0,0.1,0,0.2,0,0.3l-1,9.3  c-0.1,1.1-0.5,2.2-1,3.2l-0.7,1.4l1.3,0.2c0,0,0.1,0,0.1,0l0.1,0h1.5l0.1,0c1.8-0.3,3.5-1.6,4.4-3.6c1.6-3.2,0.9-7.4-1.5-9.7l-3.1-3  L60.6,30.5L60.6,30.5z M45.8,23.8c-1.4,0-2.7,0.7-3.6,2c-0.9,1.3-1.3,3-1.1,4.7l1,9.3c0.3,2.9,2.4,5.1,4.8,5.1h6.2  c2.4,0,4.4-2.2,4.8-5.1l1-9.3c0.2-1.7-0.2-3.4-1.1-4.7c-0.1-0.2-0.2-0.3-0.4-0.5l0,0l0,0c0,0,0,0-0.1-0.1l0,0l0,0  c-0.9-0.9-2-1.4-3.1-1.4L45.8,23.8L45.8,23.8z M13.9,44.9h12.4l3-18.5H10.9L13.9,44.9z M36.1,31.6c-2.4,2.3-3,6.5-1.5,9.7  c1,2,2.6,3.3,4.4,3.6l0.1,0h1.5c0,0,0.2,0,0.2,0l1.3-0.2l-0.7-1.4c-0.5-1-0.8-2.1-1-3.2l-1-9.3c0-0.1,0-0.2,0-0.3l-0.2-1.9  L36.1,31.6L36.1,31.6z M86.8,31.9c0,1.3-0.1,2.5-0.3,3.8L86,37.8l1.6-0.9c2.1-1.2,3.5-3.8,3.5-6.6v-1.8h-4.3L86.8,31.9L86.8,31.9z  M10.6,24.4h19l1.5-9.3h-22L10.6,24.4L10.6,24.4z"></path>	<path d="M91.9,99h-6.8c-0.5,0-0.9-0.3-1-0.9l-1.4-5.3h-4.9c-0.5,0-0.9-0.3-1-0.9l-7.3-26.9H52.7c-0.6,0-1.1-0.6-1.1-1.3  s0.5-1.3,1.1-1.3h29.4l3.6-6.9H75.4c-0.6,0-1.1-0.6-1.1-1.3c0-0.7,0.5-1.3,1.1-1.3H87l3.1-6H9.9l7.9,15.4h20.9  c0.6,0,1.1,0.6,1.1,1.3s-0.5,1.3-1.1,1.3h-8.3L23.1,92c-0.1,0.5-0.5,0.9-1,0.9h-4.8l-1.4,5.3c-0.1,0.5-0.5,0.9-1,0.9H8.1  c-0.3,0-0.7-0.2-0.9-0.5C7,98.1,7,97.7,7.1,97.4L16.1,64L7.2,46.6c-0.2-0.4-0.2-0.9,0-1.2c0.2-0.4,0.5-0.7,0.9-0.7h3.9L7,14.2  c-0.1-0.4,0-0.7,0.2-1c0.2-0.3,0.5-0.5,0.8-0.5h24c0.3,0,0.6,0.2,0.8,0.5c0.2,0.3,0.3,0.7,0.2,1l-4.9,30.5h6l-0.8-1.4  c-0.2-0.3-0.3-0.6-0.5-0.9c-2-4.2-1.2-9.7,1.9-12.7l6.5-6.3c1.2-1.3,2.8-2,4.4-2h8.3c1.6,0,3.2,0.7,4.4,2L59,24l0.3-0.2  c0.1-0.1,0.3-0.1,0.4-0.1h26.2c0.6,0,1.1,0.6,1.1,1.3v1.3h5c0.6,0,1.1,0.6,1.1,1.3v2.8c0,5-3.2,9.2-7.2,9.5l-0.3,0l-0.2,0.4  c-0.5,1.1-1.1,2.1-1.7,3l-1,1.4h9.4c0.4,0,0.8,0.3,0.9,0.7c0.2,0.4,0.2,0.9,0,1.2l-9,17.4l9.1,33.3c0.1,0.4,0,0.8-0.1,1.1  C92.6,98.8,92.3,99,91.9,99z M85.1,98.6h6.8c0.2,0,0.4-0.1,0.5-0.3c0.1-0.2,0.2-0.5,0.1-0.8L83.4,64l0-0.1l9-17.5  c0.1-0.3,0.1-0.6,0-0.9c-0.1-0.3-0.3-0.4-0.6-0.4H81.8l1.4-2.1c0.6-0.9,1.2-1.9,1.7-3l0.3-0.6l0.6-0.1c3.8-0.3,6.9-4.4,6.9-9.1v-2.8  c0-0.5-0.3-0.9-0.7-0.9h-5.4v-1.7c0-0.5-0.3-0.9-0.7-0.9H59.8c-0.1,0-0.2,0-0.2,0.1l-0.6,0.3l-0.7-0.7c-1.2-1.2-2.6-1.9-4.1-1.9  h-8.3c-1.5,0-3,0.7-4.1,1.9l-6.5,6.3c-3,2.9-3.8,8.2-1.8,12.2c0.1,0.2,0.3,0.5,0.5,0.8l1.2,2h-7.2l0-0.2l4.9-30.7  c0-0.3,0-0.5-0.1-0.7c-0.1-0.2-0.3-0.3-0.5-0.3h-24c-0.2,0-0.4,0.1-0.5,0.3c-0.1,0.2-0.2,0.5-0.1,0.7l5,31H8.1  c-0.2,0-0.4,0.2-0.6,0.4c-0.1,0.3-0.1,0.6,0,0.9l9,17.5l0,0.1L7.5,97.5c-0.1,0.3,0,0.6,0.1,0.8c0.1,0.2,0.3,0.3,0.5,0.3h6.8  c0.3,0,0.5-0.2,0.6-0.6l1.5-5.6h5.1c0.3,0,0.5-0.2,0.6-0.6l7.4-27.2h8.6c0.4,0,0.7-0.4,0.7-0.9c0-0.5-0.3-0.9-0.7-0.9H17.6L9.3,46.8  h81.4l-3.5,6.8H75.4c-0.4,0-0.7,0.4-0.7,0.9c0,0.5,0.3,0.9,0.7,0.9h10.9l-4,7.7H52.7c-0.4,0-0.7,0.4-0.7,0.9c0,0.5,0.3,0.9,0.7,0.9  h17.1l7.4,27.2c0.1,0.3,0.3,0.6,0.6,0.6H83l1.5,5.6C84.6,98.4,84.8,98.6,85.1,98.6z M91,96.9h-5.4l-8.7-32.2h5.4L91,96.9z  M85.9,96.5h4.6L82,65.1h-4.6L85.9,96.5z M14.4,96.9H9l8.7-32.2h5.4L14.4,96.9z M9.5,96.5h4.6l8.5-31.4H18L9.5,96.5z M82.5,90.8  h-4.3l-7.1-26.1h4.3L82.5,90.8z M78.6,90.4H82l-6.9-25.3h-3.4L78.6,90.4z M21.7,90.8h-4.2l7.1-26.1h4.2L21.7,90.8z M18,90.4h3.4  l6.9-25.3h-3.4L18,90.4z M53.1,45.1h-6.2c-2.5,0-4.6-2.3-5-5.3l-1-9.3C40.6,28.8,41,27,42,25.7c1-1.3,2.3-2.1,3.8-2.1l8.3,0  c1.2,0,2.3,0.5,3.2,1.4l0,0c0,0,0.1,0.1,0.1,0.1l0,0c0.2,0.2,0.3,0.3,0.4,0.5c0.9,1.3,1.4,3.1,1.2,4.9l-1,9.3  C57.7,42.8,55.6,45.1,53.1,45.1z M45.7,24c-1.3,0-2.5,0.7-3.4,2c-0.9,1.3-1.3,2.9-1.1,4.6l1,9.3c0.3,2.8,2.3,5,4.6,5h6.2  c2.3,0,4.3-2.1,4.6-5l1-9.3c0.2-1.7-0.2-3.3-1.1-4.6c-0.1-0.2-0.3-0.3-0.4-0.5l0.1-0.2l-0.1,0.1c0,0-0.1-0.1-0.1-0.1l0.1-0.2  L57,25.3c-0.8-0.8-1.9-1.3-2.9-1.3L45.7,24z M39.1,45.1L39.1,45.1c-2-0.3-3.7-1.7-4.7-3.7c-1.6-3.3-0.9-7.6,1.5-10l0,0l3.4-3.3  l0.2,2.5c0,0.1,0,0.1,0,0.2l1,9.3c0.1,1.1,0.4,2.2,0.9,3.1l0.8,1.6l-1.6,0.3c0,0-0.2,0-0.2,0L39.1,45.1z M36.2,31.7  c-2.3,2.3-2.9,6.3-1.4,9.5c0.9,1.9,2.5,3.2,4.3,3.5l0.1,0l1.4,0c0,0,0.1,0,0.2,0l1-0.2l-0.6-1.1c-0.5-1-0.8-2.1-1-3.3l-1-9.3  c0-0.1,0-0.1,0-0.2L39,29L36.2,31.7L36.2,31.7z M79.1,45.1H64.9l1.2-2c0.2-0.3,0.3-0.6,0.4-0.8c2-4.1,1.2-9.3-1.8-12.2l-0.4-0.3h0  l-4.1-4h25v6.1c0,5.2-2.3,10.2-5.9,13L79.1,45.1z M65.6,44.7H79l0.2-0.1c3.5-2.7,5.7-7.6,5.7-12.7v-5.7H61.3l4.1,4h0  c2.9,3.1,3.5,8.3,1.6,12.4c-0.1,0.2-0.3,0.5-0.5,0.9L65.6,44.7z M59.3,45.1l-0.1,0c0,0-0.1,0-0.1,0l-1.6-0.3l0.8-1.6  c0.5-1,0.8-2,0.9-3.1l1-9.3c0-0.1,0-0.1,0-0.2l0.2-2.5l3.4,3.3c2.5,2.4,3.1,6.7,1.5,10c-1,2-2.6,3.4-4.6,3.7l-0.1,0L59.3,45.1z  M58.2,44.5l1,0.2c0,0,0.1,0,0.1,0l0.1,0l1.5,0c1.8-0.3,3.3-1.6,4.3-3.5c1.5-3.2,0.9-7.2-1.4-9.5L60.9,29l-0.1,1.6  c0,0.1,0,0.1,0,0.2l-1,9.3c-0.1,1.2-0.5,2.3-1,3.3L58.2,44.5z M26.4,45.1H13.7l-3-18.9h18.8l0,0.2L26.4,45.1z M14.1,44.7h12l2.9-18  H11.2L14.1,44.7z M85.8,38.1l0.5-2.5c0.2-1.2,0.3-2.5,0.3-3.8l0-3.6h4.7v2c0,2.9-1.4,5.6-3.6,6.8L85.8,38.1z M87,32.1  c0,1.2-0.1,2.4-0.3,3.6l-0.3,1.6l1.2-0.7c2-1.1,3.4-3.7,3.4-6.5v-1.6H87L87,32.1z M29.7,24.6H10.4l-1.6-9.7h22.4L29.7,24.6z  M10.8,24.2h18.6l1.4-8.9H9.3L10.8,24.2z"></path>	<path d="M68.9,55.3L68.9,55.3L68.9,55.3c0.2,0.2,0.4,0.4,0.7,0.4c0.3,0,0.5-0.1,0.7-0.4c0.2-0.2,0.3-0.5,0.3-0.8  c0-0.3-0.1-0.6-0.3-0.8c-0.2-0.2-0.4-0.4-0.7-0.4c-0.3,0-0.5,0.1-0.7,0.4l0,0l0,0c-0.2,0.2-0.3,0.5-0.3,0.8  C68.6,54.7,68.8,55,68.9,55.3z"></path>	<path d="M69.6,55.7c-0.3,0-0.6-0.1-0.8-0.4l0,0l0,0c-0.2-0.2-0.3-0.6-0.3-0.9c0-0.3,0.1-0.6,0.3-0.9c0.2-0.2,0.5-0.4,0.8-0.4  c0.3,0,0.6,0.1,0.8,0.4c0.2,0.2,0.3,0.6,0.3,0.9c0,0.3-0.1,0.7-0.3,0.9C70.2,55.6,69.9,55.7,69.6,55.7z M69,55.2  c0.2,0.2,0.4,0.3,0.6,0.3c0.2,0,0.5-0.1,0.6-0.3c0.2-0.2,0.3-0.5,0.3-0.8c0-0.3-0.1-0.6-0.3-0.8c-0.2-0.2-0.4-0.3-0.6-0.3  c-0.2,0-0.5,0.1-0.6,0.3c-0.2,0.2-0.3,0.5-0.3,0.8C68.8,54.7,68.8,55,69,55.2L69,55.2z"></path>	<path d="M73.9,1c1.2,1.2-0.2,2.1-0.4,3.3C73.1,6.7,75.8,8,76,10.7c0.1,1.1-0.3,4.6-1.9,4.4c-1.5-0.1,0-2.3,0.1-2.9  c0.5-3-1.3-3.1-2.1-5.2c-0.7-1.9-0.4-4.6,1.3-6L73.9,1L73.9,1z"></path>	<path d="M67.3,6.6c2.2-0.6,0.5,2.3,0.3,2.9c-0.5,2.8,1.3,3.1,2.1,5.2c0.7,1.9,0.4,4.5-1.2,5.9c-2.3-0.5-0.4-2-0.2-3.2  c0.5-2.5-2.1-3.7-2.4-6.2C65.8,10.1,66.1,7,67.3,6.6z"></path></svg>