<svg xmlns="http://www.w3.org/2000/svg" xmlns:xlink="http://www.w3.org/1999/xlink" x="0px" y="0px" viewBox="0 0 100 100" xml:space="preserve">	<path d="M98.7,3.2c-0.2-0.3-0.6-0.5-1-0.5H61.4c-0.4,0-0.7,0.2-1,0.5c-0.2,0.3-0.3,0.7-0.2,1.1l6.9,27.4v5.7c0,4.9,3.3,8.9,7.8,10  v49.1c0,0.7,0.6,1.2,1.2,1.2c0.7,0,1.2-0.6,1.2-1.2V47.7h4.4v48.8c0,0.7,0.6,1.2,1.2,1.2c0.7,0,1.2-0.6,1.2-1.2V47.4  c4.5-1.1,7.8-5.2,7.8-10v-5.7L99,4.3C99.1,3.9,99,3.5,98.7,3.2L98.7,3.2z M89.6,37.4c0,4.3-3.5,7.8-7.8,7.8h-4.5  c-4.3,0-7.8-3.5-7.8-7.8v-4.6h20V37.4z M89.9,30.2H69.3L63,5.2h5.3V12c0,0.7,0.6,1.2,1.2,1.2c0.7,0,1.2-0.6,1.2-1.2V5.2h3.7v11.1  c0,0.7,0.6,1.2,1.2,1.2s1.2-0.6,1.2-1.2V5.2h19.3L89.9,30.2L89.9,30.2z M41.5,86.9c-2.6,0-4.7,2.1-4.7,4.7c0,2.6,2.1,4.7,4.7,4.7  c2.6,0,4.7-2.1,4.7-4.7C46.2,89,44.1,86.9,41.5,86.9z M41.5,93.9c-1.2,0-2.2-1-2.2-2.2c0-1.2,1-2.2,2.2-2.2c1.2,0,2.2,1,2.2,2.2  C43.7,92.8,42.7,93.9,41.5,93.9z M19.2,86.9c-2.6,0-4.7,2.1-4.7,4.7c0,2.6,2.1,4.7,4.7,4.7c2.6,0,4.7-2.1,4.7-4.7  C23.9,89,21.8,86.9,19.2,86.9z M19.2,93.9c-1.2,0-2.2-1-2.2-2.2c0-1.2,1-2.2,2.2-2.2c1.2,0,2.2,1,2.2,2.2  C21.5,92.8,20.5,93.9,19.2,93.9z M38.6,50.3c-0.6-0.2-1.3,0.2-1.5,0.8c0,0.1-1.1,3.5-6.7,3.5s-6.6-3.4-6.6-3.5  c-0.2-0.7-0.9-1.1-1.5-0.9c-0.7,0.2-1,0.9-0.9,1.5c0.1,0.2,1.5,5.3,9,5.3s9-5.1,9-5.3C39.6,51.2,39.2,50.5,38.6,50.3L38.6,50.3z  M22.6,38.2c-0.7,0-1.2,0.6-1.2,1.2v5.1c0,0.7,0.6,1.2,1.2,1.2s1.2-0.6,1.2-1.2v-5.1C23.8,38.7,23.2,38.2,22.6,38.2z M22.6,38.2  c-0.7,0-1.2,0.6-1.2,1.2v5.1c0,0.7,0.6,1.2,1.2,1.2s1.2-0.6,1.2-1.2v-5.1C23.8,38.7,23.2,38.2,22.6,38.2z M38.6,50.3  c-0.6-0.2-1.3,0.2-1.5,0.8c0,0.1-1.1,3.5-6.7,3.5s-6.6-3.4-6.6-3.5c-0.2-0.7-0.9-1.1-1.5-0.9c-0.7,0.2-1,0.9-0.9,1.5  c0.1,0.2,1.5,5.3,9,5.3s9-5.1,9-5.3C39.6,51.2,39.2,50.5,38.6,50.3L38.6,50.3z M38.6,50.3c-0.6-0.2-1.3,0.2-1.5,0.8  c0,0.1-1.1,3.5-6.7,3.5s-6.6-3.4-6.6-3.5c-0.2-0.7-0.9-1.1-1.5-0.9c-0.7,0.2-1,0.9-0.9,1.5c0.1,0.2,1.5,5.3,9,5.3s9-5.1,9-5.3  C39.6,51.2,39.2,50.5,38.6,50.3L38.6,50.3z M22.6,38.2c-0.7,0-1.2,0.6-1.2,1.2v5.1c0,0.7,0.6,1.2,1.2,1.2s1.2-0.6,1.2-1.2v-5.1  C23.8,38.7,23.2,38.2,22.6,38.2z M22.6,38.2c-0.7,0-1.2,0.6-1.2,1.2v5.1c0,0.7,0.6,1.2,1.2,1.2s1.2-0.6,1.2-1.2v-5.1  C23.8,38.7,23.2,38.2,22.6,38.2z M38.6,50.3c-0.6-0.2-1.3,0.2-1.5,0.8c0,0.1-1.1,3.5-6.7,3.5s-6.6-3.4-6.6-3.5  c-0.2-0.7-0.9-1.1-1.5-0.9c-0.7,0.2-1,0.9-0.9,1.5c0.1,0.2,1.5,5.3,9,5.3s9-5.1,9-5.3C39.6,51.2,39.2,50.5,38.6,50.3L38.6,50.3z  M38.6,50.3c-0.6-0.2-1.3,0.2-1.5,0.8c0,0.1-1.1,3.5-6.7,3.5s-6.6-3.4-6.6-3.5c-0.2-0.7-0.9-1.1-1.5-0.9c-0.7,0.2-1,0.9-0.9,1.5  c0.1,0.2,1.5,5.3,9,5.3s9-5.1,9-5.3C39.6,51.2,39.2,50.5,38.6,50.3L38.6,50.3z M22.6,38.2c-0.7,0-1.2,0.6-1.2,1.2v5.1  c0,0.7,0.6,1.2,1.2,1.2s1.2-0.6,1.2-1.2v-5.1C23.8,38.7,23.2,38.2,22.6,38.2z M22.6,38.2c-0.7,0-1.2,0.6-1.2,1.2v5.1  c0,0.7,0.6,1.2,1.2,1.2s1.2-0.6,1.2-1.2v-5.1C23.8,38.7,23.2,38.2,22.6,38.2z M38.6,50.3c-0.6-0.2-1.3,0.2-1.5,0.8  c0,0.1-1.1,3.5-6.7,3.5s-6.6-3.4-6.6-3.5c-0.2-0.7-0.9-1.1-1.5-0.9c-0.7,0.2-1,0.9-0.9,1.5c0.1,0.2,1.5,5.3,9,5.3s9-5.1,9-5.3  C39.6,51.2,39.2,50.5,38.6,50.3L38.6,50.3z M38.6,50.3c-0.6-0.2-1.3,0.2-1.5,0.8c0,0.1-1.1,3.5-6.7,3.5s-6.6-3.4-6.6-3.5  c-0.2-0.7-0.9-1.1-1.5-0.9c-0.7,0.2-1,0.9-0.9,1.5c0.1,0.2,1.5,5.3,9,5.3s9-5.1,9-5.3C39.6,51.2,39.2,50.5,38.6,50.3L38.6,50.3z  M22.6,38.2c-0.7,0-1.2,0.6-1.2,1.2v5.1c0,0.7,0.6,1.2,1.2,1.2s1.2-0.6,1.2-1.2v-5.1C23.8,38.7,23.2,38.2,22.6,38.2z M22.6,38.2  c-0.7,0-1.2,0.6-1.2,1.2v5.1c0,0.7,0.6,1.2,1.2,1.2s1.2-0.6,1.2-1.2v-5.1C23.8,38.7,23.2,38.2,22.6,38.2z M38.6,50.3  c-0.6-0.2-1.3,0.2-1.5,0.8c0,0.1-1.1,3.5-6.7,3.5s-6.6-3.4-6.6-3.5c-0.2-0.7-0.9-1.1-1.5-0.9c-0.7,0.2-1,0.9-0.9,1.5  c0.1,0.2,1.5,5.3,9,5.3s9-5.1,9-5.3C39.6,51.2,39.2,50.5,38.6,50.3L38.6,50.3z M38.6,50.3c-0.6-0.2-1.3,0.2-1.5,0.8  c0,0.1-1.1,3.5-6.7,3.5s-6.6-3.4-6.6-3.5c-0.2-0.7-0.9-1.1-1.5-0.9c-0.7,0.2-1,0.9-0.9,1.5c0.1,0.2,1.5,5.3,9,5.3s9-5.1,9-5.3  C39.6,51.2,39.2,50.5,38.6,50.3L38.6,50.3z M22.6,38.2c-0.7,0-1.2,0.6-1.2,1.2v5.1c0,0.7,0.6,1.2,1.2,1.2s1.2-0.6,1.2-1.2v-5.1  C23.8,38.7,23.2,38.2,22.6,38.2z M22.6,38.2c-0.7,0-1.2,0.6-1.2,1.2v5.1c0,0.7,0.6,1.2,1.2,1.2s1.2-0.6,1.2-1.2v-5.1  C23.8,38.7,23.2,38.2,22.6,38.2z M38.6,50.3c-0.6-0.2-1.3,0.2-1.5,0.8c0,0.1-1.1,3.5-6.7,3.5s-6.6-3.4-6.6-3.5  c-0.2-0.7-0.9-1.1-1.5-0.9c-0.7,0.2-1,0.9-0.9,1.5c0.1,0.2,1.5,5.3,9,5.3s9-5.1,9-5.3C39.6,51.2,39.2,50.5,38.6,50.3L38.6,50.3z  M38.6,50.3c-0.6-0.2-1.3,0.2-1.5,0.8c0,0.1-1.1,3.5-6.7,3.5s-6.6-3.4-6.6-3.5c-0.2-0.7-0.9-1.1-1.5-0.9c-0.7,0.2-1,0.9-0.9,1.5  c0.1,0.2,1.5,5.3,9,5.3s9-5.1,9-5.3C39.6,51.2,39.2,50.5,38.6,50.3L38.6,50.3z M22.6,38.2c-0.7,0-1.2,0.6-1.2,1.2v5.1  c0,0.7,0.6,1.2,1.2,1.2s1.2-0.6,1.2-1.2v-5.1C23.8,38.7,23.2,38.2,22.6,38.2z M22.6,38.2c-0.7,0-1.2,0.6-1.2,1.2v5.1  c0,0.7,0.6,1.2,1.2,1.2s1.2-0.6,1.2-1.2v-5.1C23.8,38.7,23.2,38.2,22.6,38.2z M38.6,50.3c-0.6-0.2-1.3,0.2-1.5,0.8  c0,0.1-1.1,3.5-6.7,3.5s-6.6-3.4-6.6-3.5c-0.2-0.7-0.9-1.1-1.5-0.9c-0.7,0.2-1,0.9-0.9,1.5c0.1,0.2,1.5,5.3,9,5.3s9-5.1,9-5.3  C39.6,51.2,39.2,50.5,38.6,50.3L38.6,50.3z M38.6,50.3c-0.6-0.2-1.3,0.2-1.5,0.8c0,0.1-1.1,3.5-6.7,3.5s-6.6-3.4-6.6-3.5  c-0.2-0.7-0.9-1.1-1.5-0.9c-0.7,0.2-1,0.9-0.9,1.5c0.1,0.2,1.5,5.3,9,5.3s9-5.1,9-5.3C39.6,51.2,39.2,50.5,38.6,50.3L38.6,50.3z  M22.6,45.7c0.7,0,1.2-0.6,1.2-1.2v-5.1c0-0.7-0.6-1.2-1.2-1.2s-1.2,0.6-1.2,1.2v5.1C21.3,45.2,21.9,45.7,22.6,45.7z M34.7,2.2h-8.7  C12.2,2.2,1,14.5,1,29.6v9.9c0,0.7,0.6,1.2,1.2,1.2h4c0.5,0,0.9,0,1.4-0.1v6.6c0,10,5.5,18.7,13.4,22.6c-1,0.3-2.2,0.7-3.4,1.2  c-0.2,0-0.5,0.1-0.6,0.3c-2,0.9-4.1,2.2-6.2,3.9c-0.2,0.1-0.3,0.2-0.5,0.4c-4.4,4-8,10.5-8,20.9c0,0.7,0.6,1.2,1.2,1.2  c0.7,0,1.2-0.6,1.2-1.2c0-8,2.3-13.5,5.3-17.2v17.2c0,0.7,0.6,1.2,1.2,1.2s1.2-0.6,1.2-1.2V76.8c1.3-1.1,2.6-2,3.9-2.7V82  c0,2.4,1.9,4.3,4.2,4.3h19.4c2.3,0,4.2-1.9,4.2-4.3v-7.8c1.3,0.7,2.6,1.6,3.9,2.7v19.7c0,0.7,0.6,1.2,1.2,1.2c0.7,0,1.2-0.6,1.2-1.2  V79.3c3,3.7,5.3,9.2,5.3,17.2c0,0.7,0.6,1.2,1.2,1.2c0.7,0,1.2-0.6,1.2-1.2c0-10.4-3.6-16.9-8-20.9c-0.1-0.2-0.3-0.3-0.5-0.4  c-2-1.8-4.1-3-6.2-3.9c-0.2-0.1-0.4-0.2-0.6-0.3c-1.2-0.5-2.4-0.9-3.4-1.2c7.9-3.9,13.4-12.6,13.4-22.6v-6.5h5.4  c0.7,0,1.2-0.6,1.2-1.2v-9.9C59.8,14.5,48.5,2.2,34.7,2.2z M41.8,73v9c0,1-0.8,1.8-1.8,1.8H20.7c-1,0-1.8-0.8-1.8-1.8V73  c3.2-1.3,5.9-1.5,6.6-1.6c1.6,0.4,3.2,0.6,4.9,0.6c1.7,0,3.3-0.2,4.9-0.6C36,71.5,38.6,71.8,41.8,73z M50.7,47.2  C50.7,57.8,44,66.6,35,69c-0.2,0-0.3,0-0.5,0.1c-1.3,0.3-2.7,0.5-4.1,0.5c-1.4,0-2.9-0.2-4.2-0.5c-0.1,0-0.2-0.1-0.3-0.1  c-9-2.3-15.7-11.2-15.7-21.8v-7.4c3.4-1.6,5.8-5.3,5.8-9.6v-1.6c5,7.2,12.7,11.7,21.1,12v3.8c0,0.7,0.6,1.2,1.2,1.2  c0.7,0,1.2-0.6,1.2-1.2v-3.8h11.2L50.7,47.2L50.7,47.2z M57.3,38.2H38c-9.3,0-17.9-5.6-22.3-14.7c-0.2-0.4-0.6-0.7-1.1-0.7  c-0.1,0-0.2,0-0.3,0c-0.6,0.1-1,0.6-1,1.2v6.1c0,4.4-3.2,8-7.2,8H3.5v-8.6c0-13.7,10.1-24.8,22.6-24.8h8.7  c12.5,0,22.6,11.1,22.6,24.8L57.3,38.2L57.3,38.2z M38.6,50.3c-0.6-0.2-1.3,0.2-1.5,0.8c0,0.1-1.1,3.5-6.7,3.5  c-5.6,0-6.6-3.4-6.6-3.5c-0.2-0.7-0.9-1.1-1.5-0.9c-0.7,0.2-1,0.9-0.9,1.5c0.1,0.2,1.5,5.3,9,5.3s9-5.1,9-5.3  C39.6,51.2,39.2,50.5,38.6,50.3L38.6,50.3z M22.6,45.7c0.7,0,1.2-0.6,1.2-1.2v-5.1c0-0.7-0.6-1.2-1.2-1.2c-0.7,0-1.2,0.6-1.2,1.2  v5.1C21.3,45.2,21.9,45.7,22.6,45.7z M22.6,38.2c-0.7,0-1.2,0.6-1.2,1.2v5.1c0,0.7,0.6,1.2,1.2,1.2c0.7,0,1.2-0.6,1.2-1.2v-5.1  C23.8,38.7,23.2,38.2,22.6,38.2z M38.6,50.3c-0.6-0.2-1.3,0.2-1.5,0.8c0,0.1-1.1,3.5-6.7,3.5c-5.6,0-6.6-3.4-6.6-3.5  c-0.2-0.7-0.9-1.1-1.5-0.9c-0.7,0.2-1,0.9-0.9,1.5c0.1,0.2,1.5,5.3,9,5.3s9-5.1,9-5.3C39.6,51.2,39.2,50.5,38.6,50.3L38.6,50.3z  M38.6,50.3c-0.6-0.2-1.3,0.2-1.5,0.8c0,0.1-1.1,3.5-6.7,3.5c-5.6,0-6.6-3.4-6.6-3.5c-0.2-0.7-0.9-1.1-1.5-0.9  c-0.7,0.2-1,0.9-0.9,1.5c0.1,0.2,1.5,5.3,9,5.3s9-5.1,9-5.3C39.6,51.2,39.2,50.5,38.6,50.3L38.6,50.3z M22.6,38.2  c-0.7,0-1.2,0.6-1.2,1.2v5.1c0,0.7,0.6,1.2,1.2,1.2c0.7,0,1.2-0.6,1.2-1.2v-5.1C23.8,38.7,23.2,38.2,22.6,38.2z M22.6,38.2  c-0.7,0-1.2,0.6-1.2,1.2v5.1c0,0.7,0.6,1.2,1.2,1.2c0.7,0,1.2-0.6,1.2-1.2v-5.1C23.8,38.7,23.2,38.2,22.6,38.2z M38.6,50.3  c-0.6-0.2-1.3,0.2-1.5,0.8c0,0.1-1.1,3.5-6.7,3.5c-5.6,0-6.6-3.4-6.6-3.5c-0.2-0.7-0.9-1.1-1.5-0.9c-0.7,0.2-1,0.9-0.9,1.5  c0.1,0.2,1.5,5.3,9,5.3s9-5.1,9-5.3C39.6,51.2,39.2,50.5,38.6,50.3L38.6,50.3z M38.6,50.3c-0.6-0.2-1.3,0.2-1.5,0.8  c0,0.1-1.1,3.5-6.7,3.5c-5.6,0-6.6-3.4-6.6-3.5c-0.2-0.7-0.9-1.1-1.5-0.9c-0.7,0.2-1,0.9-0.9,1.5c0.1,0.2,1.5,5.3,9,5.3s9-5.1,9-5.3  C39.6,51.2,39.2,50.5,38.6,50.3L38.6,50.3z M22.6,38.2c-0.7,0-1.2,0.6-1.2,1.2v5.1c0,0.7,0.6,1.2,1.2,1.2c0.7,0,1.2-0.6,1.2-1.2  v-5.1C23.8,38.7,23.2,38.2,22.6,38.2z M22.6,38.2c-0.7,0-1.2,0.6-1.2,1.2v5.1c0,0.7,0.6,1.2,1.2,1.2c0.7,0,1.2-0.6,1.2-1.2v-5.1  C23.8,38.7,23.2,38.2,22.6,38.2z M38.6,50.3c-0.6-0.2-1.3,0.2-1.5,0.8c0,0.1-1.1,3.5-6.7,3.5c-5.6,0-6.6-3.4-6.6-3.5  c-0.2-0.7-0.9-1.1-1.5-0.9c-0.7,0.2-1,0.9-0.9,1.5c0.1,0.2,1.5,5.3,9,5.3s9-5.1,9-5.3C39.6,51.2,39.2,50.5,38.6,50.3L38.6,50.3z  M38.6,50.3c-0.6-0.2-1.3,0.2-1.5,0.8c0,0.1-1.1,3.5-6.7,3.5c-5.6,0-6.6-3.4-6.6-3.5c-0.2-0.7-0.9-1.1-1.5-0.9  c-0.7,0.2-1,0.9-0.9,1.5c0.1,0.2,1.5,5.3,9,5.3s9-5.1,9-5.3C39.6,51.2,39.2,50.5,38.6,50.3L38.6,50.3z M22.6,38.2  c-0.7,0-1.2,0.6-1.2,1.2v5.1c0,0.7,0.6,1.2,1.2,1.2c0.7,0,1.2-0.6,1.2-1.2v-5.1C23.8,38.7,23.2,38.2,22.6,38.2z M22.6,38.2  c-0.7,0-1.2,0.6-1.2,1.2v5.1c0,0.7,0.6,1.2,1.2,1.2c0.7,0,1.2-0.6,1.2-1.2v-5.1C23.8,38.7,23.2,38.2,22.6,38.2z M38.6,50.3  c-0.6-0.2-1.3,0.2-1.5,0.8c0,0.1-1.1,3.5-6.7,3.5c-5.6,0-6.6-3.4-6.6-3.5c-0.2-0.7-0.9-1.1-1.5-0.9c-0.7,0.2-1,0.9-0.9,1.5  c0.1,0.2,1.5,5.3,9,5.3s9-5.1,9-5.3C39.6,51.2,39.2,50.5,38.6,50.3L38.6,50.3z M38.6,50.3c-0.6-0.2-1.3,0.2-1.5,0.8  c0,0.1-1.1,3.5-6.7,3.5c-5.6,0-6.6-3.4-6.6-3.5c-0.2-0.7-0.9-1.1-1.5-0.9c-0.7,0.2-1,0.9-0.9,1.5c0.1,0.2,1.5,5.3,9,5.3s9-5.1,9-5.3  C39.6,51.2,39.2,50.5,38.6,50.3L38.6,50.3z M22.6,38.2c-0.7,0-1.2,0.6-1.2,1.2v5.1c0,0.7,0.6,1.2,1.2,1.2c0.7,0,1.2-0.6,1.2-1.2  v-5.1C23.8,38.7,23.2,38.2,22.6,38.2z M22.6,38.2c-0.7,0-1.2,0.6-1.2,1.2v5.1c0,0.7,0.6,1.2,1.2,1.2c0.7,0,1.2-0.6,1.2-1.2v-5.1  C23.8,38.7,23.2,38.2,22.6,38.2z M38.6,50.3c-0.6-0.2-1.3,0.2-1.5,0.8c0,0.1-1.1,3.5-6.7,3.5c-5.6,0-6.6-3.4-6.6-3.5  c-0.2-0.7-0.9-1.1-1.5-0.9c-0.7,0.2-1,0.9-0.9,1.5c0.1,0.2,1.5,5.3,9,5.3s9-5.1,9-5.3C39.6,51.2,39.2,50.5,38.6,50.3L38.6,50.3z  M38.6,50.3c-0.6-0.2-1.3,0.2-1.5,0.8c0,0.1-1.1,3.5-6.7,3.5c-5.6,0-6.6-3.4-6.6-3.5c-0.2-0.7-0.9-1.1-1.5-0.9  c-0.7,0.2-1,0.9-0.9,1.5c0.1,0.2,1.5,5.3,9,5.3s9-5.1,9-5.3C39.6,51.2,39.2,50.5,38.6,50.3L38.6,50.3z M22.6,38.2  c-0.7,0-1.2,0.6-1.2,1.2v5.1c0,0.7,0.6,1.2,1.2,1.2c0.7,0,1.2-0.6,1.2-1.2v-5.1C23.8,38.7,23.2,38.2,22.6,38.2z M22.6,38.2  c-0.7,0-1.2,0.6-1.2,1.2v5.1c0,0.7,0.6,1.2,1.2,1.2c0.7,0,1.2-0.6,1.2-1.2v-5.1C23.8,38.7,23.2,38.2,22.6,38.2z M38.6,50.3  c-0.6-0.2-1.3,0.2-1.5,0.8c0,0.1-1.1,3.5-6.7,3.5c-5.6,0-6.6-3.4-6.6-3.5c-0.2-0.7-0.9-1.1-1.5-0.9c-0.7,0.2-1,0.9-0.9,1.5  c0.1,0.2,1.5,5.3,9,5.3s9-5.1,9-5.3C39.6,51.2,39.2,50.5,38.6,50.3L38.6,50.3z M38.6,50.3c-0.6-0.2-1.3,0.2-1.5,0.8  c0,0.1-1.1,3.5-6.7,3.5c-5.6,0-6.6-3.4-6.6-3.5c-0.2-0.7-0.9-1.1-1.5-0.9c-0.7,0.2-1,0.9-0.9,1.5c0.1,0.2,1.5,5.3,9,5.3s9-5.1,9-5.3  C39.6,51.2,39.2,50.5,38.6,50.3L38.6,50.3z M22.6,38.2c-0.7,0-1.2,0.6-1.2,1.2v5.1c0,0.7,0.6,1.2,1.2,1.2c0.7,0,1.2-0.6,1.2-1.2  v-5.1C23.8,38.7,23.2,38.2,22.6,38.2z M22.6,38.2c-0.7,0-1.2,0.6-1.2,1.2v5.1c0,0.7,0.6,1.2,1.2,1.2c0.7,0,1.2-0.6,1.2-1.2v-5.1  C23.8,38.7,23.2,38.2,22.6,38.2z M38.6,50.3c-0.6-0.2-1.3,0.2-1.5,0.8c0,0.1-1.1,3.5-6.7,3.5c-5.6,0-6.6-3.4-6.6-3.5  c-0.2-0.7-0.9-1.1-1.5-0.9c-0.7,0.2-1,0.9-0.9,1.5c0.1,0.2,1.5,5.3,9,5.3s9-5.1,9-5.3C39.6,51.2,39.2,50.5,38.6,50.3L38.6,50.3z"></path>	<path d="M83,97.9c-0.7,0-1.3-0.6-1.3-1.3V47.8h-4.2v48.7c0,0.7-0.6,1.3-1.3,1.3c-0.7,0-1.3-0.6-1.3-1.3V47.5  c-4.6-1.2-7.8-5.3-7.8-10.1v-5.7L60.1,4.3c-0.1-0.4,0-0.8,0.2-1.2c0.3-0.3,0.6-0.5,1.1-0.5h36.4c0.4,0,0.8,0.2,1.1,0.5l0,0  c0.3,0.3,0.3,0.8,0.2,1.2l-6.9,27.4l0,5.7c0,4.8-3.2,8.9-7.8,10.1v49.1C84.4,97.3,83.8,97.9,83,97.9z M77.3,47.6h4.6v48.9  c0,0.6,0.5,1.1,1.1,1.1c0.6,0,1.1-0.5,1.1-1.1V47.3l0.1,0c4.5-1.1,7.7-5.2,7.7-9.9v-5.7l6.9-27.4c0.1-0.3,0-0.7-0.2-1l0,0  c-0.2-0.3-0.5-0.4-0.9-0.4H61.4c-0.4,0-0.7,0.2-0.9,0.4c-0.2,0.3-0.3,0.6-0.2,1l6.9,27.4l0,5.8c0,4.7,3.2,8.8,7.7,9.9l0.1,0v49.2  c0,0.6,0.5,1.1,1.1,1.1c0.6,0,1.1-0.5,1.1-1.1V47.6z M57.2,97.9c-0.7,0-1.3-0.6-1.3-1.3c0-7-1.7-12.7-5.1-16.9v16.9  c0,0.7-0.6,1.3-1.3,1.3c-0.7,0-1.3-0.6-1.3-1.3V76.8c-1.1-1-2.4-1.8-3.7-2.5V82c0,2.4-1.9,4.4-4.3,4.4H20.7c-2.4,0-4.3-2-4.3-4.4  v-7.6c-1.3,0.7-2.6,1.6-3.7,2.5v19.7c0,0.7-0.6,1.3-1.3,1.3c-0.7,0-1.3-0.6-1.3-1.3V79.6c-3.4,4.3-5.1,9.9-5.1,16.9  c0,0.7-0.6,1.3-1.3,1.3c-0.7,0-1.3-0.6-1.3-1.3c0-9,2.7-16.1,8-21c0.1-0.2,0.3-0.3,0.5-0.4c1.8-1.6,3.9-2.9,6.1-3.9  c0.2-0.2,0.4-0.3,0.7-0.3c1-0.4,2.1-0.8,3.2-1.1c-8-4.1-13.2-12.9-13.2-22.6v-6.5c-0.4,0.1-0.9,0.1-1.3,0.1h-4  c-0.7,0-1.3-0.6-1.3-1.3v-9.9c0-15.1,11.3-27.4,25.2-27.4h8.7c13.9,0,25.2,12.3,25.2,27.4v9.9c0,0.7-0.6,1.3-1.3,1.3h-5.3v6.4  c0,9.7-5.2,18.5-13.2,22.6c1.1,0.3,2.1,0.7,3.2,1.1c0.2,0,0.5,0.1,0.7,0.3c2.3,1,4.4,2.4,6.2,3.9c0.2,0.1,0.4,0.3,0.5,0.4  c5.3,4.9,8,12,8,21C58.5,97.3,57.9,97.9,57.2,97.9z M50.6,79l0.2,0.2c3.5,4.3,5.3,10.1,5.3,17.3c0,0.6,0.5,1.1,1.1,1.1  c0.6,0,1.1-0.5,1.1-1.1c0-9-2.7-16-7.9-20.8c-0.1-0.2-0.3-0.3-0.4-0.4c-1.8-1.6-3.9-2.9-6.1-3.9l0,0c-0.2-0.1-0.4-0.2-0.6-0.3l0,0  c-1.1-0.5-2.3-0.9-3.4-1.2l-0.3-0.1l0.2-0.1c8.1-4,13.3-12.9,13.3-22.5v-6.6h5.5c0.6,0,1.1-0.5,1.1-1.1v-9.9c0-15-11.2-27.2-25-27.2  h-8.7c-13.8,0-25,12.2-25,27.2v9.9c0,0.6,0.5,1.1,1.1,1.1h4c0.5,0,0.9,0,1.4-0.1l0.1,0v6.8c0,9.7,5.2,18.5,13.3,22.5l0.2,0.1  L21,69.9c-1.2,0.3-2.3,0.7-3.4,1.2l0,0c-0.2,0-0.4,0.1-0.6,0.3l0,0c-2.3,1-4.3,2.3-6.1,3.9c-0.2,0.1-0.3,0.2-0.4,0.4  c-5.3,4.9-7.9,11.9-7.9,20.9c0,0.6,0.5,1.1,1.1,1.1c0.6,0,1.1-0.5,1.1-1.1c0-7.1,1.8-12.9,5.3-17.2l0.2-0.2v17.5  c0,0.6,0.5,1.1,1.1,1.1c0.6,0,1.1-0.5,1.1-1.1V76.8l0,0c1.2-1,2.5-1.9,3.9-2.7l0.1-0.1v8c0,2.3,1.9,4.2,4.1,4.2h19.4  c2.3,0,4.1-1.9,4.1-4.2v-8l0.1,0.1c1.4,0.8,2.7,1.7,3.9,2.7l0,0v19.8c0,0.6,0.5,1.1,1.1,1.1c0.6,0,1.1-0.5,1.1-1.1V79z M41.5,96.4  c-2.6,0-4.8-2.2-4.8-4.8c0-2.7,2.1-4.8,4.8-4.8c2.6,0,4.8,2.2,4.8,4.8C46.3,94.3,44.2,96.4,41.5,96.4z M41.5,87  C39,87,37,89.1,37,91.6c0,2.5,2.1,4.6,4.6,4.6c2.5,0,4.6-2.1,4.6-4.6C46.1,89.1,44.1,87,41.5,87z M19.2,96.4c-2.6,0-4.8-2.2-4.8-4.8  c0-2.7,2.1-4.8,4.8-4.8c2.6,0,4.8,2.2,4.8,4.8C24,94.3,21.9,96.4,19.2,96.4z M19.2,87c-2.5,0-4.6,2.1-4.6,4.6c0,2.5,2.1,4.6,4.6,4.6  c2.5,0,4.6-2.1,4.6-4.6C23.8,89.1,21.8,87,19.2,87z M41.5,94c-1.3,0-2.3-1-2.3-2.3s1-2.3,2.3-2.3c1.3,0,2.3,1,2.3,2.3  S42.8,94,41.5,94z M41.5,89.5c-1.2,0-2.1,1-2.1,2.1s0.9,2.1,2.1,2.1c1.2,0,2.1-1,2.1-2.1S42.7,89.5,41.5,89.5z M19.2,94  c-1.3,0-2.3-1-2.3-2.3s1-2.3,2.3-2.3c1.3,0,2.3,1,2.3,2.3S20.5,94,19.2,94z M19.2,89.5c-1.2,0-2.1,1-2.1,2.1s0.9,2.1,2.1,2.1  c1.2,0,2.1-1,2.1-2.1S20.4,89.5,19.2,89.5z M40.1,83.8H20.7c-1,0-1.9-0.8-1.9-1.9v-9l0.1,0c3.2-1.3,5.9-1.5,6.6-1.6l0,0l0,0  c3.2,0.8,6.5,0.8,9.7,0l0,0l0,0c0.7,0,3.4,0.3,6.6,1.6l0.1,0v9C41.9,83,41.1,83.8,40.1,83.8z M19.1,73.1V82c0,0.9,0.7,1.7,1.7,1.7  h19.4c0.9,0,1.7-0.8,1.7-1.7v-8.9c-3.1-1.2-5.7-1.5-6.5-1.5c-3.2,0.8-6.5,0.8-9.7,0C24.8,71.6,22.2,71.9,19.1,73.1z M30.4,69.6  c-1.4,0-2.9-0.2-4.3-0.5c-0.1,0-0.2-0.1-0.3-0.1c-4.4-1.1-8.5-3.9-11.3-7.8c-2.9-4-4.5-9-4.5-14.1v-7.5l0.1,0  c3.5-1.7,5.7-5.4,5.7-9.5v-1.9l0.2,0.3c5,7.3,12.7,11.6,21.1,12l0.1,0v3.9c0,0.6,0.5,1.1,1.1,1.1c0.6,0,1.1-0.5,1.1-1.1v-3.9h11.4  l0,6.6c0,5.1-1.6,10.1-4.5,14c-2.9,3.9-6.9,6.7-11.3,7.8l0,0c-0.2,0-0.3,0-0.4,0.1l0,0C33.2,69.5,31.8,69.6,30.4,69.6z M10.2,39.8  v7.3c0,10.3,6.6,19.4,15.7,21.7c0.1,0,0.2,0,0.4,0.1c1.3,0.3,2.8,0.5,4.2,0.5c1.4,0,2.8-0.2,4.1-0.5c0.2-0.1,0.3-0.1,0.5-0.1  c9.2-2.4,15.6-11.3,15.6-21.7l0-6.4h-11v3.7c0,0.7-0.6,1.3-1.3,1.3c-0.7,0-1.3-0.6-1.3-1.3v-3.7C28.6,40.4,21,36.1,16,29v1.2  C16,34.4,13.7,38.1,10.2,39.8z M30.4,57.3c-7.6,0-9.1-5.2-9.1-5.4c0,0,0,0,0,0c0-0.1,0-0.2,0-0.3c0-0.6,0.4-1.1,1-1.3  c0.1,0,0.2-0.1,0.3-0.1c0.2,0,0.4,0.1,0.6,0.2c0.3,0.2,0.6,0.5,0.7,0.8c0,0.1,1.1,3.4,6.6,3.4c5.3,0,6.4-3.1,6.6-3.4  c0.2-0.6,0.7-1,1.3-1l0,0c0,0,0,0,0,0c0.1,0,0.2,0,0.3,0h0c0.6,0.2,1,0.7,1,1.3c0,0.1,0,0.2,0,0.3C39.5,52.1,38,57.3,30.4,57.3z  M30.4,57.1c7.4,0,8.9-5,8.9-5.3c0,0,0,0,0,0c0,0,0,0,0,0c0,0,0,0,0,0c0-0.1,0-0.2,0-0.3c0-0.5-0.3-1-0.8-1.1v0c0,0,0,0,0,0h0  c-0.1,0-0.2,0-0.3,0c-0.5,0-1,0.3-1.1,0.8c-0.1,0.4-1.3,3.6-6.8,3.6c-5.6,0-6.7-3.4-6.7-3.6c-0.1-0.3-0.3-0.6-0.6-0.7  c-0.2-0.1-0.4-0.1-0.5-0.1c-0.1,0-0.2,0-0.3,0c-0.5,0.1-0.8,0.6-0.8,1.1c0,0.1,0,0.2,0,0.3c0,0,0,0,0,0c0,0,0,0,0,0  C21.5,52.1,23,57.1,30.4,57.1z M22.6,45.8c-0.7,0-1.3-0.6-1.3-1.3v-5.1c0-0.7,0.6-1.3,1.3-1.3c0.7,0,1.3,0.6,1.3,1.3v5.1  C23.9,45.2,23.3,45.8,22.6,45.8z M22.6,45.6c0.6,0,1.1-0.5,1.1-1.1v-5.1c0-0.6-0.5-1.1-1.1-1.1c-0.6,0-1.1,0.5-1.1,1.1v5.1  C21.4,45.1,21.9,45.6,22.6,45.6z M81.8,45.3h-4.5c-4.3,0-7.9-3.6-7.9-7.9v-4.7h20.2v4.7C89.7,41.7,86.2,45.3,81.8,45.3z M69.7,32.8  v4.5c0,4.3,3.4,7.7,7.7,7.7h4.5c4.2,0,7.7-3.5,7.7-7.7v-4.5H69.7z M57.4,38.3H38c-9.4,0-17.9-5.6-22.3-14.7c-0.2-0.4-0.6-0.6-1-0.6  c-0.1,0-0.2,0-0.3,0c-0.5,0.1-0.9,0.6-0.9,1.1v6.1c0,4.5-3.3,8.1-7.3,8.1H3.4v-8.7c0-13.8,10.2-24.9,22.7-24.9h8.7  c12.5,0,22.7,11.2,22.7,24.9V38.3z M14.6,22.7c0.5,0,1,0.3,1.2,0.8c4.4,9,12.9,14.6,22.2,14.6h19.2v-8.5c0-13.6-10.1-24.7-22.5-24.7  h-8.7C13.7,4.8,3.6,15.9,3.6,29.6v8.5h2.6c3.9,0,7.1-3.5,7.1-7.9v-6.1c0-0.6,0.4-1.2,1-1.3C14.4,22.7,14.5,22.7,14.6,22.7z  M89.9,30.3H69.2l0-0.1L62.8,5.1h5.5V12c0,0.6,0.5,1.1,1.1,1.1c0.6,0,1.1-0.5,1.1-1.1V5.1h3.9v11.2c0,0.6,0.5,1.1,1.1,1.1  c0.6,0,1.1-0.5,1.1-1.1V5.1h19.5l0,0.1L89.9,30.3z M69.4,30.1h20.4l6.3-24.8H77v11c0,0.7-0.6,1.3-1.3,1.3c-0.7,0-1.3-0.6-1.3-1.3  v-11h-3.5V12c0,0.7-0.6,1.3-1.3,1.3c-0.7,0-1.3-0.6-1.3-1.3V5.3h-5.1L69.4,30.1z"></path></svg>