<svg xmlns="http://www.w3.org/2000/svg" xmlns:xlink="http://www.w3.org/1999/xlink" x="0px" y="0px" viewBox="0 0 100 100" xml:space="preserve">	<path d="M89.3,61.4c0.8,0,1.4,0.6,1.4,1.4v11.9c0,1.3-1,2.3-2.2,2.3H54.9c-0.8,0-1.4-0.6-1.4-1.4s0.6-1.4,1.4-1.4h33V62.8  C87.9,62,88.5,61.4,89.3,61.4z"></path>	<path d="M17.9,45c-7.8,0-14.2,6.3-14.2,14.1v15h50.8c0.8,0,1.4,0.6,1.4,1.4c0,0.8-0.6,1.4-1.4,1.4H3.2c-1.2,0-2.2-1-2.2-2.2V59.1  c0-9.3,7.6-16.9,16.9-16.9h31.8c0.8,0,1.4,0.6,1.4,1.4c0,0.8-0.6,1.4-1.4,1.4H17.9z"></path>	<path d="M2.5,76.9c0.8,0,1.5,0.7,1.5,1.5v4.9c0,1.2,1.1,2.5,2.8,2.5h6.5c1.7,0,2.8-1.2,2.8-2.5v-4.9c0-0.8,0.7-1.5,1.5-1.5  c0.8,0,1.5,0.7,1.5,1.5v4.9c0,3.2-2.7,5.5-5.7,5.5H6.7c-3,0-5.7-2.3-5.7-5.5v-4.9C1,77.6,1.7,76.9,2.5,76.9z"></path>	<path d="M75.3,76.9c0.8,0,1.4,0.6,1.4,1.4v5.2c0,1.5,1.2,2.6,2.6,2.6h6.1c1.4,0,2.6-1.2,2.6-2.6v-4.6c0-0.8,0.6-1.4,1.4-1.4  c0.8,0,1.4,0.6,1.4,1.4v4.6c0,3-2.4,5.4-5.3,5.4h-6.1c-2.9,0-5.3-2.4-5.3-5.4v-5.2C73.9,77.5,74.5,76.9,75.3,76.9z"></path>	<path d="M12.4,57.1c-1.5-0.3-2.8,0.8-2.8,2.5V62c0,1.4,1,2.5,2.3,2.5h10.4c1.3,0,2.3-1.1,2.3-2.5c0-1.2-0.8-2.2-1.8-2.5L12.4,57.1  C12.4,57.1,12.4,57.1,12.4,57.1z M22.3,67.3C22.3,67.3,22.3,67.3,22.3,67.3H11.9c-2.7,0-5-2.4-5-5.3v-2.5c0-3.4,2.9-5.9,6-5.2l0,0  l10.4,2.5c2.3,0.5,3.9,2.7,3.9,5.2C27.3,64.9,25.1,67.3,22.3,67.3"></path>	<path d="M1.5,36.4c0.4-1.4,1.7-2.6,3.4-2.5l0,0l5.5,0.3c0.8,0,1.3,0.6,1.3,1.3c0,0.7-0.7,1.2-1.4,1.2l-5.5-0.3c0,0,0,0,0,0  c-0.2,0-0.5,0.1-0.6,0.6c0,0,0,0,0,0l-0.4,1.5c0,0,0,0,0,0c-0.3,1.1,0.5,1.8,1.2,1.9c0.1,0,0.2,0,0.3,0l2.5,0.6  c0.7,0.2,1.2,0.9,1,1.5c-0.2,0.7-0.9,1.1-1.7,0.9l-2.4-0.6c-2.6-0.2-4.1-2.7-3.6-5L1.5,36.4z"></path>	<path d="M30.9,68.5c0-0.7,0.6-1.2,1.4-1.2h28.3c0.8,0,1.4,0.5,1.4,1.2c0,0.7-0.6,1.2-1.4,1.2H32.3C31.5,69.7,30.9,69.2,30.9,68.5z"></path>	<path d="M30.2,23.5c-5.7,0-11,4.6-12.6,11.7l-1.9,8.4c-0.2,0.7-0.9,1.2-1.7,1c-0.8-0.2-1.2-0.9-1.1-1.6l1.9-8.4c0,0,0,0,0,0  c1.8-8,8-13.9,15.4-13.9h19.6c0.8,0,1.4,0.6,1.4,1.4c0,0.8-0.6,1.4-1.4,1.4H30.2z"></path>	<path d="M62.5,13.9c-2.7,0-4.9,2.2-4.9,4.9v28.8c0,2.7,2.2,4.9,4.9,4.9h28.8c2.7,0,4.9-2.2,4.9-4.9V18.9c0-2.7-2.2-4.9-4.9-4.9H62.5  z M54.8,18.9c0-4.3,3.5-7.7,7.7-7.7h28.8c4.3,0,7.7,3.5,7.7,7.7v28.8c0,4.3-3.5,7.7-7.7,7.7H62.5c-4.3,0-7.7-3.5-7.7-7.7V18.9z"></path>	<path d="M65.5,19c0-1,0.8-1.9,1.9-1.9h12.1c1.6,0,3.1,0.3,4.5,1l0,0c1.4,0.7,2.5,1.5,3.5,2.7l0.2,0.2c0.9,1,1.6,2.2,2.1,3.5v0  c0.5,1.4,0.8,2.8,0.8,4.2c0,2-0.5,3.8-1.4,5.6l0,0c-0.9,1.8-2.2,3.2-3.8,4.3c-1.7,1.2-3.6,1.7-5.8,1.7h-2.9c-0.3,0-0.5,0.2-0.5,0.5  v6.7c0,1-0.8,1.9-1.9,1.9h-7c-1,0-1.8-0.8-1.8-1.8V19z M68.3,20.4v25.8c0,0.3,0.2,0.5,0.5,0.5h4.3c0.3,0,0.5-0.2,0.5-0.5v-6.7  c0-1,0.8-1.9,1.9-1.9h4.3c1.7,0,3.1-0.4,4.3-1.2c1.2-0.9,2.2-2,2.9-3.3c0.7-1.4,1.1-2.8,1.1-4.3c0-1.1-0.2-2.1-0.6-3.2c0,0,0,0,0,0  c-0.4-1.1-1-2-1.8-2.9c-0.8-0.8-1.7-1.5-2.7-2c-1-0.5-2.1-0.7-3.4-0.7H68.7C68.5,19.9,68.3,20.1,68.3,20.4z M73.5,26  c0-1,0.8-1.9,1.9-1.9h3.5c0.6,0,1.1,0.2,1.6,0.4c0.7,0.3,1.1,0.9,1.4,1.5c0.4,0.7,0.5,1.6,0.5,2.6c0,0.9-0.1,1.7-0.4,2.4l0,0  c-0.3,0.6-0.7,1.2-1.3,1.6l0,0c-0.5,0.3-1.1,0.5-1.7,0.5h-4.2c-0.4,0-0.7-0.1-1-0.4l0,0c-0.3-0.3-0.4-0.6-0.4-1V26z M76.3,27V30  c0,0.3,0.2,0.5,0.5,0.5h2.4c0,0,0.1,0,0.2-0.1l0.2-0.4c0.1-0.2,0.2-0.6,0.2-1.3c0-0.7-0.1-1.1-0.2-1.3c-0.1-0.3-0.3-0.4-0.3-0.4  C79.1,27,79,27,78.9,27H76.3"></path></svg>