<svg xmlns="http://www.w3.org/2000/svg" xmlns:xlink="http://www.w3.org/1999/xlink" x="0px" y="0px" viewBox="0 0 100 100" xml:space="preserve">	<path d="M99,26.7C99,26.7,99,26.7,99,26.7c0-0.1-0.1-0.2-0.1-0.3c0,0,0,0,0,0c0-0.1-0.1-0.2-0.1-0.2L88.1,4.9  c-0.3-0.5-0.8-0.8-1.4-0.8H13.2c-0.6,0-1.1,0.3-1.4,0.8L1.2,26.3c0,0,0,0,0,0c0,0.1-0.1,0.2-0.1,0.3c0,0,0,0,0,0c0,0.1,0,0.2,0,0.3  c0,0,0,0,0,0v6.9c0,4.7,2.4,8.8,6.1,11.2v49.2c0,0.8,0.7,1.5,1.5,1.5h82.7c0.8,0,1.5-0.7,1.5-1.5V45.2c3.7-2.4,6.1-6.5,6.1-11.2  v-6.7c0,0,0-0.1,0-0.1C99,26.9,99,26.8,99,26.7L99,26.7z M85.8,7.1L95,25.5H75L71,7.1H85.8z M51.5,7.1h16.4l3.9,18.4H51.5L51.5,7.1  L51.5,7.1z M51.5,28.6h20.7v5.4c0,5.7-4.6,10.3-10.3,10.3c-5.7,0-10.3-4.6-10.3-10.3V28.6z M32.1,7.1h16.4v18.4H28.2L32.1,7.1  L32.1,7.1z M48.5,28.6v5.4c0,5.7-4.6,10.3-10.3,10.3c-5.7,0-10.3-4.6-10.3-10.3v-5.4H48.5z M14.2,7.1H29L25,25.5H5L14.2,7.1z  M8.5,42.4c-2.7-1.9-4.4-5-4.4-8.4v-5.4h20.7v5.4c0,5.7-4.6,10.3-10.3,10.3c-1.5,0-3-0.4-4.3-1C9.5,43,9,42.7,8.5,42.4L8.5,42.4z  M40.8,92.9H22.4V59.2h18.4V92.9z M89.8,92.9H43.9V57.7c0-0.8-0.7-1.5-1.5-1.5H20.9c-0.8,0-1.5,0.7-1.5,1.5v35.2h-9.2V46.6  c1.3,0.4,2.7,0.7,4.2,0.7c5.2,0,9.6-2.9,11.9-7.2c2.2,4.3,6.7,7.2,11.9,7.2c5.2,0,9.6-2.9,11.9-7.2c2.2,4.3,6.7,7.2,11.9,7.2  s9.6-2.9,11.9-7.2c2.2,4.3,6.7,7.2,11.9,7.2c1.5,0,2.9-0.2,4.2-0.7L89.8,92.9L89.8,92.9z M95.9,33.9c0,3.5-1.7,6.6-4.4,8.4  c-0.5,0.4-1,0.7-1.6,0.9c-1.3,0.6-2.8,1-4.3,1c-5.7,0-10.3-4.6-10.3-10.3v-5.4h20.7L95.9,33.9L95.9,33.9z"></path></svg>