<svg xmlns="http://www.w3.org/2000/svg" xmlns:xlink="http://www.w3.org/1999/xlink" x="0px" y="0px" viewBox="0 0 100 100" xml:space="preserve">	<path d="M2.4,58.3c3.5,0,5.2,1.4,7.1,3c2,1.7,4.3,3.6,8.7,3.6c4.4,0,6.7-1.9,8.7-3.6c1.9-1.6,3.6-3,7.1-3s5.2,1.4,7.1,3  c2,1.7,4.3,3.6,8.7,3.6s6.7-1.9,8.7-3.6c1.9-1.6,3.6-3,7.1-3c3.5,0,5.2,1.4,7.1,3c2,1.7,4.3,3.6,8.7,3.6c4.4,0,6.7-1.9,8.7-3.6  c1.9-1.6,3.6-3,7.1-3c0.8,0,1.4-0.7,1.4-1.7c0-0.9-0.6-1.7-1.4-1.7c-4.4,0-6.7,1.9-8.7,3.6c-1.9,1.6-3.6,3-7.1,3s-5.2-1.4-7.1-3  c-2-1.7-4.3-3.6-8.7-3.6c-4.4,0-6.7,1.9-8.7,3.6c-1.9,1.6-3.6,3-7.1,3s-5.2-1.4-7.1-3c-2-1.7-4.3-3.6-8.7-3.6  c-4.4,0-6.7,1.9-8.7,3.6c-1.9,1.6-3.6,3-7.1,3s-5.2-1.4-7.1-3c-2-1.7-4.3-3.6-8.7-3.6C1.6,55,1,55.7,1,56.6  C1,57.5,1.6,58.3,2.4,58.3z"></path>	<path d="M2.4,68.2c3.5,0,5.2,1.4,7.1,3c2,1.7,4.3,3.6,8.7,3.6c4.4,0,6.7-1.9,8.7-3.6c1.9-1.6,3.6-3,7.1-3s5.2,1.4,7.1,3  c2,1.7,4.3,3.6,8.7,3.6s6.7-1.9,8.7-3.6c1.9-1.6,3.6-3,7.1-3c3.5,0,5.2,1.4,7.1,3c2,1.7,4.3,3.6,8.7,3.6c4.4,0,6.7-1.9,8.7-3.6  c1.9-1.6,3.6-3,7.1-3c0.8,0,1.4-0.7,1.4-1.7c0-0.9-0.6-1.7-1.4-1.7c-4.4,0-6.7,1.9-8.7,3.6c-1.9,1.6-3.6,3-7.1,3s-5.2-1.4-7.1-3  c-2-1.7-4.3-3.6-8.7-3.6c-4.4,0-6.7,1.9-8.7,3.6c-1.9,1.6-3.6,3-7.1,3s-5.2-1.4-7.1-3c-2-1.7-4.3-3.6-8.7-3.6  c-4.4,0-6.7,1.9-8.7,3.6c-1.9,1.6-3.6,3-7.1,3s-5.2-1.4-7.1-3c-2-1.7-4.3-3.6-8.7-3.6c-0.8,0-1.4,0.7-1.4,1.7  C1,67.5,1.6,68.2,2.4,68.2z"></path>	<path d="M2.4,78.1c3.5,0,5.2,1.4,7.1,3c2,1.7,4.3,3.6,8.7,3.6c4.4,0,6.7-1.9,8.7-3.6c1.9-1.6,3.6-3,7.1-3s5.2,1.4,7.1,3  c2,1.7,4.3,3.6,8.7,3.6s6.7-1.9,8.7-3.6c1.9-1.6,3.6-3,7.1-3c3.5,0,5.2,1.4,7.1,3c2,1.7,4.3,3.6,8.7,3.6c4.4,0,6.7-1.9,8.7-3.6  c1.9-1.6,3.6-3,7.1-3c0.8,0,1.4-0.7,1.4-1.7c0-0.9-0.6-1.7-1.4-1.7c-4.4,0-6.7,1.9-8.7,3.6c-1.9,1.6-3.6,3-7.1,3s-5.2-1.4-7.1-3  c-2-1.7-4.3-3.6-8.7-3.6c-4.4,0-6.7,1.9-8.7,3.6c-1.9,1.6-3.6,3-7.1,3s-5.2-1.4-7.1-3c-2-1.7-4.3-3.6-8.7-3.6  c-4.4,0-6.7,1.9-8.7,3.6c-1.9,1.6-3.6,3-7.1,3s-5.2-1.4-7.1-3c-2-1.7-4.3-3.6-8.7-3.6c-0.8,0-1.4,0.7-1.4,1.7  C1,77.4,1.6,78.1,2.4,78.1z"></path>	<path d="M59.7,31.8V38H41v-6.2H59.7z M41,47.3v-6.2h18.7v6.2H41z M37.8,52.2c0,0.9,0.7,1.6,1.6,1.6s1.6-0.7,1.6-1.6v-1.7h18.7v1.7  c0,0.9,0.7,1.6,1.6,1.6c0.9,0,1.6-0.7,1.6-1.6V28c0,0,0-0.1,0-0.1c0,0-0.3-4.3,2.2-7c1.5-1.6,3.7-2.4,6.7-2.4c0.9,0,1.6-0.7,1.6-1.6  c0-0.9-0.7-1.6-1.6-1.6c-3.9,0-6.9,1.2-9,3.5c-3.3,3.6-3.1,8.6-3,9.3v0.6H41V28c0,0,0-0.1,0-0.1c0,0-0.3-4.3,2.2-7  c1.5-1.6,3.7-2.4,6.7-2.4c0.9,0,1.6-0.7,1.6-1.6c0-0.9-0.7-1.6-1.6-1.6c-3.9,0-6.9,1.2-9,3.5c-3.3,3.6-3.1,8.6-3,9.3V52.2L37.8,52.2  z"></path></svg>