<svg xmlns="http://www.w3.org/2000/svg" xmlns:xlink="http://www.w3.org/1999/xlink" x="0px" y="0px" viewBox="0 0 120 96" style="enable-background:new 0 0 120 96;" xml:space="preserve"><style type="text/css">	.st0{fill:currentcolor;}</style><path class="st0" d="M104.2,59.9c0.8,0,1.5,0.7,1.5,1.6v13.2c0,1.4-1.1,2.5-2.4,2.5H65.9c-0.8,0-1.5-0.7-1.5-1.6 c0-0.9,0.7-1.6,1.5-1.6h36.7V61.5C102.7,60.6,103.3,59.9,104.2,59.9z"></path><path class="st0" d="M24.7,41.7c-8.7,0-15.8,7.1-15.8,15.8v16.7h56.6c0.9,0,1.5,0.7,1.5,1.5c0,0.8-0.7,1.5-1.5,1.5H8.3 c-1.4,0-2.5-1.1-2.5-2.5V57.5c0-10.4,8.5-18.8,18.9-18.8h35.4c0.9,0,1.5,0.7,1.5,1.5c0,0.8-0.7,1.5-1.5,1.5H24.7z"></path><path class="st0" d="M7.4,77.2c0.9,0,1.6,0.8,1.6,1.7v5.5c0,1.4,1.2,2.8,3.1,2.8h7.3c1.9,0,3.1-1.4,3.1-2.8v-5.5 c0-0.9,0.7-1.7,1.6-1.7c0.9,0,1.6,0.8,1.6,1.7v5.5c0,3.5-3,6.1-6.3,6.1h-7.3c-3.4,0-6.3-2.6-6.3-6.1v-5.5C5.8,78,6.5,77.2,7.4,77.2z "></path><path class="st0" d="M88.6,77.2c0.8,0,1.5,0.7,1.5,1.5v5.8c0,1.6,1.3,2.9,2.9,2.9h6.8c1.6,0,2.9-1.3,2.9-2.9v-5.1 c0-0.8,0.7-1.5,1.5-1.5c0.8,0,1.5,0.7,1.5,1.5v5.1c0,3.3-2.7,6-5.9,6H93c-3.3,0-5.9-2.7-5.9-6v-5.8C87,77.9,87.7,77.2,88.6,77.2z"></path><path class="st0" d="M18.6,55.2c-1.6-0.4-3.2,0.9-3.2,2.7v2.8c0,1.5,1.2,2.8,2.6,2.8h11.6c1.4,0,2.6-1.3,2.6-2.8 c0-1.3-0.8-2.5-2-2.7L18.6,55.2C18.6,55.2,18.6,55.2,18.6,55.2z M29.6,66.6C29.6,66.6,29.6,66.6,29.6,66.6H18 c-3.1,0-5.5-2.7-5.5-5.9v-2.8c0-3.8,3.3-6.6,6.7-5.8l0,0l11.6,2.8c2.5,0.6,4.3,3,4.3,5.8C35.1,63.9,32.6,66.6,29.6,66.6"></path><path class="st0" d="M6.4,32.1c0.4-1.6,1.9-2.9,3.8-2.8h0l6.2,0.3c0.8,0,1.5,0.7,1.4,1.5c0,0.8-0.8,1.4-1.6,1.3L10,32.1c0,0,0,0,0,0 c-0.2,0-0.6,0.1-0.7,0.6c0,0,0,0,0,0l-0.4,1.6c0,0,0,0,0,0c-0.3,1.2,0.5,2,1.3,2.1c0.1,0,0.2,0,0.3,0l2.8,0.7c0.8,0.2,1.3,1,1.1,1.7 c-0.2,0.8-1,1.2-1.9,1l-2.7-0.6c-2.9-0.2-4.6-3-4-5.5L6.4,32.1z"></path><path class="st0" d="M39.1,67.9c0-0.7,0.7-1.3,1.5-1.3h31.5c0.8,0,1.5,0.6,1.5,1.3s-0.7,1.3-1.5,1.3H40.6 C39.8,69.3,39.1,68.7,39.1,67.9z"></path><path class="st0" d="M38.4,17.7c-6.4,0-12.3,5.2-14.1,13.1l-2.1,9.3c-0.2,0.8-1,1.3-1.9,1.2c-0.8-0.2-1.4-1-1.2-1.8l2.1-9.3 c0,0,0,0,0,0c2-8.9,8.9-15.5,17.1-15.5h21.8c0.9,0,1.6,0.7,1.6,1.5c0,0.8-0.7,1.5-1.6,1.5H38.4z"></path><path class="st0" d="M74.3,7.1c-3,0-5.5,2.5-5.5,5.5v32.1c0,3,2.5,5.5,5.5,5.5h32.1c3,0,5.5-2.5,5.5-5.5V12.6c0-3-2.5-5.5-5.5-5.5 H74.3z M65.7,12.6c0-4.7,3.8-8.6,8.6-8.6h32.1c4.7,0,8.6,3.8,8.6,8.6v32.1c0,4.7-3.8,8.6-8.6,8.6H74.3c-4.7,0-8.6-3.8-8.6-8.6V12.6z "></path><path class="st0" d="M77.7,12.2c0-0.8,0.7-1.5,1.5-1.5h14c1.8,0,3.5,0.4,5,1.1l0,0c1.5,0.7,2.8,1.7,3.9,3l0,0 c1.1,1.2,1.9,2.6,2.5,4.1l0,0c0.6,1.5,0.9,3.1,0.9,4.7c0,2.2-0.5,4.3-1.5,6.2l0,0c-1,2-2.4,3.6-4.2,4.8c-1.9,1.3-4,1.9-6.5,1.9h-3.8 v8.6c0,0.8-0.7,1.5-1.5,1.5h-8.9c-0.8,0-1.5-0.7-1.5-1.5V12.2z M80.7,13.7v29.8h5.9V35c0-0.8,0.7-1.5,1.5-1.5h5.3 c1.9,0,3.4-0.5,4.8-1.4c1.4-1,2.5-2.2,3.3-3.7c0.8-1.5,1.2-3.1,1.2-4.8c0-1.2-0.2-2.4-0.7-3.6c0,0,0,0,0,0c-0.5-1.2-1.1-2.3-2-3.2 c-0.8-0.9-1.8-1.7-3-2.3c-1.1-0.5-2.4-0.8-3.7-0.8H80.7z M86.6,20.1c0-0.8,0.7-1.5,1.5-1.5h4.5c0.7,0,1.3,0.2,1.8,0.5 c0.7,0.4,1.2,1,1.6,1.7c0.4,0.8,0.6,1.8,0.6,2.9c0,1-0.1,1.9-0.5,2.7l0,0c-0.3,0.7-0.7,1.3-1.4,1.8l0,0c-0.6,0.4-1.2,0.6-1.9,0.6 h-4.7c-0.4,0-0.8-0.2-1.1-0.5l0,0c-0.3-0.3-0.4-0.7-0.4-1.1V20.1z M89.7,21.6v4h3.2c0,0,0.1,0,0.2-0.1 M89.7,21.6h3 c0.1,0,0.2,0,0.4,0.1c0,0,0.2,0.1,0.3,0.4c0.1,0.2,0.2,0.6,0.2,1.4c0,0.7-0.1,1.2-0.2,1.5"></path></svg>