<svg xmlns="http://www.w3.org/2000/svg" xmlns:xlink="http://www.w3.org/1999/xlink" x="0px" y="0px" viewBox="0 0 100 100" xml:space="preserve">	<path d="M99,9.3v10.6h-5.5v7.3l-0.6,0.6h-6.9v17.4c0,0.6,4,9.4,4.5,11.5C97.1,84.5,59,87.4,41.8,96.4c-6,0.3-9.7,1.2-14.5-2.7  C20.6,88.2,17,78.8,15.9,70.4C8.1,69,3.4,55,11.9,51.3c15.6-4.4,31.3-11.7,46.8-15.9c2.5-0.7,4.7-1.4,7.3-1.1v-6.7h-6.5L59,27.1  v-7.3h-6.3c-0.4-1.9-0.9-8.5,0-9.9c0.1-0.2,0.8-0.7,1-0.7L99,9.3L99,9.3z M97.4,17.1c-0.2-1.6,0.6-3.9-0.6-5.1H55.1v5.1h26.1  c0.2,0,1.3,0.7,1.4,1c0.3,0.5-0.7,1.7-1,1.7H61.4v5.1h29.4v-5.1l-3.6-0.2l-0.4-1.9c0.1-0.3,0.9-0.7,1-0.7L97.4,17.1L97.4,17.1z  M83.7,27.7H68.8v6.7c5.7,0.3,10.9,3.1,14.9,7V27.7z M55.1,88.4c6.4-2.8,13.6-4.7,20-7.6c15.1-6.9,16.1-19.5,9.2-33.5  c-3.9-8-13.6-12-22.1-10L21.1,50.8c1.4,1.3,3.8,2.4,5.6,3.2c6.5,2.9,13.7,4.7,20.8,5.4c2.9,0.3,9.9-0.2,11.7,1.6  c3.4,3.4,1.3,16-0.4,20.3C57.9,83.8,56.2,86,55.1,88.4L55.1,88.4z M16,67.6c-0.3-4.9,1.1-10,4.7-13.5c-8.1-3.5-13.8,2.4-8.7,10.3  C12.4,65,15.2,68.4,16,67.6z M38.2,60.7c-0.6-0.5-7.5-2.3-9.1-2.8c-1.1-0.4-5.1-2.5-5.8-2.3c-8.3,6.9-4.5,21.7,0.3,29.7  c10.1,16.6,24.9,10.6,21.6-8.7c-0.6-3.3-2.2-7.8-3.7-10.7C41,64.8,38.8,61.2,38.2,60.7L38.2,60.7z M46.1,91.9  c1.2-0.8,2.9-0.8,3.9-1.7c2.9-2.6,6.4-9.7,7.3-13.4c0.6-2.4,2-13.2-0.5-14.1l-15-1.2C47.7,70.2,50.4,81.9,46.1,91.9L46.1,91.9z"></path>	<path d="M4.1,20.5c-1.7,1.4-3.7,0.4-2.9-2c0.1-0.5,4.1-4.4,4.8-5C15,5.7,26.5,2.4,38.5,3.4c1.7,0.1,7.2,0.7,5.5,3.5  c-0.8,1.3-6.2-0.3-7.8-0.4c-10-0.6-20.8,3.2-28.2,9.8C6.7,17.4,5.1,19.7,4.1,20.5L4.1,20.5z"></path>	<path d="M12.3,27.6c-0.7,0.5-1.8,0.6-2.6,0.5c-1.6-2.8,3.4-6.4,5.5-7.9c6.5-4.8,16-7.3,23.9-5.6c1.5,0.3,3.3,0.7,2.6,2.8  c-0.6,1.7-3.9,0.3-5.2,0.3c-9-0.3-15.2,1.6-22,7.4C13.8,25.6,12.8,27.2,12.3,27.6L12.3,27.6z"></path>	<path d="M30.8,25c1.7-0.2,8.1-0.6,8.6,1.3c1.1,3.5-3.9,1.7-5.6,1.7c-4.3,0-8.7,2.2-12,4.9c-0.9,0.8-1.3,2.6-3.2,2.1  c-3.7-1,2.2-5.7,3.5-6.5C24.6,26.8,27.7,25.4,30.8,25L30.8,25z"></path>	<path d="M34.6,65.4c2.5,2.3,4.8,7.7,5.2,11.1c0.7,5.9-2.1,12.8-8.9,8.5c-4-2.5-6.8-9.8-6.8-14.4C24.2,63.7,29.2,60.3,34.6,65.4z  M28.8,65.7C24,69.4,29.1,82.3,34,83.5c3.4,0.8,3.4-4.9,3.1-7C36.7,73.3,32.9,64.5,28.8,65.7L28.8,65.7z"></path>	<path d="M30.9,77.3c-2.2-1.9-1.4-7.8,1.9-5.2C35.4,74.1,33.7,79.7,30.9,77.3z"></path></svg>