<svg xmlns="http://www.w3.org/2000/svg" xmlns:xlink="http://www.w3.org/1999/xlink" x="0px" y="0px" viewBox="0 0 100 100" xml:space="preserve">	<path d="M78.1,50.7H21.9c-2.8,0-5.1-2.3-5.1-5.1V19.2c0-5.6,4.2-10.2,9.6-11V8.1l1.5,0h44.2c6.1,0,11.1,5,11.1,11.1v26.5  C83.2,48.4,80.9,50.7,78.1,50.7z M27.9,11c-4.5,0-8.1,3.6-8.1,8.1v26.4c0,1.2,1,2.1,2.1,2.1h56.2c1.2,0,2.1-1,2.1-2.1V19.1  c0-4.5-3.6-8.1-8.1-8.1L27.9,11z"></path>	<path d="M70.7,11c-0.8,0-1.5-0.7-1.5-1.5V4.8c0-0.8-0.6-1.4-1.4-1.4h-8c-0.8,0-1.4,0.6-1.4,1.4v4.7c0,0.8-0.7,1.5-1.5,1.5  c-0.8,0-1.5-0.7-1.5-1.5V4.8c0-2.4,2-4.3,4.3-4.3h8c2.4,0,4.3,2,4.3,4.3v4.7C72.2,10.4,71.5,11,70.7,11z"></path>	<path d="M43.1,11c-0.8,0-1.5-0.7-1.5-1.5V4.8c0-0.8-0.6-1.4-1.4-1.4h-8c-0.8,0-1.4,0.6-1.4,1.4v4.7c0,0.8-0.7,1.5-1.5,1.5  s-1.5-0.7-1.5-1.5V4.8c0-2.4,2-4.3,4.3-4.3h8c2.4,0,4.3,2,4.3,4.3v4.7C44.6,10.4,43.9,11,43.1,11z"></path>	<path d="M70.7,50.7c-0.8,0-1.5-0.7-1.5-1.5V36.1c0-1.8-1.4-3.2-3.2-3.2H34c-1.8,0-3.2,1.4-3.2,3.2v13.1c0,0.8-0.7,1.5-1.5,1.5  s-1.5-0.7-1.5-1.5V36.1c0-3.4,2.8-6.1,6.1-6.1H66c3.4,0,6.1,2.8,6.1,6.1v13.1C72.2,50,71.5,50.7,70.7,50.7z"></path>	<path d="M70.7,99.1c-0.8,0-1.5-0.7-1.5-1.5V84.5c0-1.8-1.4-3.2-3.2-3.2H34c-1.8,0-3.2,1.4-3.2,3.2v13.1c0,0.8-0.7,1.5-1.5,1.5  s-1.5-0.7-1.5-1.5V84.5c0-3.4,2.8-6.1,6.1-6.1H66c3.4,0,6.1,2.7,6.1,6.1v13.1C72.2,98.4,71.5,99.1,70.7,99.1z"></path>	<path d="M33.2,58.7c-2.9,0-5.3-2.4-5.3-5.3v-4.1c0-0.8,0.7-1.5,1.5-1.5s1.5,0.7,1.5,1.5v4.1c0,1.3,1.1,2.4,2.4,2.4  c1.3,0,2.4-1.1,2.4-2.4v-0.5c0-0.8,0.7-1.5,1.5-1.5c0.8,0,1.5,0.7,1.5,1.5v0.5C38.5,56.3,36.1,58.7,33.2,58.7z"></path>	<path d="M66.8,58.7c-2.9,0-5.3-2.4-5.3-5.3v-0.5c0-0.8,0.7-1.5,1.5-1.5s1.5,0.7,1.5,1.5v0.5c0,1.3,1.1,2.4,2.4,2.4  c1.3,0,2.4-1.1,2.4-2.4v-4.1c0-0.8,0.7-1.5,1.5-1.5s1.5,0.7,1.5,1.5v4.1C72.2,56.3,69.8,58.7,66.8,58.7z"></path>	<path d="M63,87.3H37c-0.8,0-1.5-0.7-1.5-1.5c0-0.8,0.7-1.5,1.5-1.5H63c0.8,0,1.5,0.7,1.5,1.5C64.5,86.6,63.8,87.3,63,87.3z"></path>	<path d="M77.3,89.6c-0.8,0-1.5-0.7-1.5-1.5V73.6c0-0.8,0.7-1.5,1.5-1.5s1.5,0.7,1.5,1.5v14.5C78.8,88.9,78.1,89.6,77.3,89.6z"></path>	<path d="M83.9,99.5H50c-0.8,0-1.5-0.7-1.5-1.5c0-0.8,0.7-1.5,1.5-1.5h33.9c0.9,0,1.6-0.7,1.6-1.6V78c0-1.6-1.3-2.9-2.9-2.9h-6.8  V49.2c0-0.8,0.7-1.5,1.5-1.5s1.5,0.7,1.5,1.5v22.9h3.8c3.2,0,5.8,2.6,5.8,5.8v17C88.4,97.5,86.4,99.5,83.9,99.5z"></path>	<path d="M22.7,89.6c-0.8,0-1.5-0.7-1.5-1.5V73.6c0-0.8,0.7-1.5,1.5-1.5c0.8,0,1.5,0.7,1.5,1.5v14.5C24.2,88.9,23.5,89.6,22.7,89.6z"></path>	<path d="M50,99.5H16.1c-2.5,0-4.6-2-4.6-4.6V78c0-3.2,2.6-5.8,5.8-5.8h3.8V49.2c0-0.8,0.7-1.5,1.5-1.5c0.8,0,1.5,0.7,1.5,1.5v25.9  h-6.8c-1.6,0-2.9,1.3-2.9,2.9v17c0,0.9,0.7,1.6,1.6,1.6H50c0.8,0,1.5,0.7,1.5,1.5C51.5,98.8,50.8,99.5,50,99.5z"></path>	<path d="M59.7,38.1H43.5c-0.8,0-1.5-0.7-1.5-1.5c0-0.8,0.7-1.5,1.5-1.5h16.2c0.8,0,1.5,0.7,1.5,1.5C61.2,37.5,60.5,38.1,59.7,38.1z"></path></svg>