<svg xmlns="http://www.w3.org/2000/svg" xmlns:xlink="http://www.w3.org/1999/xlink" x="0px" y="0px" viewBox="0 0 100 100" xml:space="preserve">	<path d="M80.1,82.5c-10,0-18.1-8.1-18.1-18.1c0-10,8.1-18.1,18.1-18.1c10,0,18.1,8.1,18.1,18.1C98.3,74.4,90.1,82.5,80.1,82.5z  M80.1,49.2c-8.4,0-15.2,6.8-15.2,15.2s6.8,15.2,15.2,15.2c8.4,0,15.2-6.8,15.2-15.2S88.5,49.2,80.1,49.2z"></path>	<path d="M90.9,65.9c-0.8,0-1.5-0.7-1.5-1.5c0-5.1-4.2-9.3-9.3-9.3c-0.8,0-1.5-0.7-1.5-1.5c0-0.8,0.7-1.5,1.5-1.5  c6.7,0,12.2,5.5,12.2,12.2C92.4,65.2,91.7,65.9,90.9,65.9z"></path>	<path d="M80.1,70.1c-3.1,0-5.7-2.5-5.7-5.7s2.5-5.7,5.7-5.7s5.7,2.5,5.7,5.7S83.2,70.1,80.1,70.1z M80.1,61.7  c-1.5,0-2.7,1.2-2.7,2.7c0,1.5,1.2,2.7,2.7,2.7s2.7-1.2,2.7-2.7C82.9,62.9,81.6,61.7,80.1,61.7z"></path>	<path d="M19.9,82.5c-10,0-18.1-8.1-18.1-18.1c0-10,8.1-18.1,18.1-18.1S38,54.4,38,64.4C38,74.4,29.9,82.5,19.9,82.5z M19.9,49.2  c-8.4,0-15.2,6.8-15.2,15.2s6.8,15.2,15.2,15.2s15.2-6.8,15.2-15.2S28.3,49.2,19.9,49.2z"></path>	<path d="M30.7,65.9c-0.8,0-1.5-0.7-1.5-1.5c0-5.1-4.2-9.3-9.3-9.3c-0.8,0-1.5-0.7-1.5-1.5c0-0.8,0.7-1.5,1.5-1.5  c6.7,0,12.2,5.5,12.2,12.2C32.1,65.2,31.5,65.9,30.7,65.9z"></path>	<path d="M19.9,70.1c-3.1,0-5.7-2.5-5.7-5.7s2.5-5.7,5.7-5.7c3.1,0,5.7,2.5,5.7,5.7S23,70.1,19.9,70.1z M19.9,61.7  c-1.5,0-2.7,1.2-2.7,2.7c0,1.5,1.2,2.7,2.7,2.7c1.5,0,2.7-1.2,2.7-2.7C22.6,62.9,21.4,61.7,19.9,61.7z"></path>	<path d="M57.7,65.9H42.3v-1.5c0-12.3-10-22.4-22.4-22.4c-6.2,0-12.1,2.6-16.4,7.1c-0.5,0.6-1.5,0.6-2.1,0.1  c-0.6-0.5-0.6-1.5-0.1-2.1c4.8-5.1,11.5-8,18.5-8c13.5,0,24.5,10.6,25.3,23.8h9.7c0.8-13.3,11.8-23.8,25.3-23.8c7,0,13.7,2.9,18.5,8  c0.6,0.6,0.5,1.5-0.1,2.1c-0.6,0.5-1.5,0.5-2.1-0.1C92.2,44.6,86.3,42,80.1,42c-12.3,0-22.4,10-22.4,22.4V65.9z"></path>	<path d="M94,46.5c-0.8,0-1.5-0.7-1.5-1.5v-8.6c0-1.6-1.3-2.9-2.9-2.9h-7c-2,0-3.9-0.6-5.6-1.6l-7.9-5.1L69,26.9v4.5  c0,1.8-0.9,3.5-2.4,4.5l-3.4,2.3c-3.1,2.1-6.7,3.2-10.5,3.2c-4.5,0-8.9-1.6-12.3-4.6l-3.8-3.2H7.5c-0.3,0-0.6,0.3-0.6,0.6v2.8  c0,0.4,0.2,0.9,0.5,1.1l4,3.3c0.6,0.5,0.7,1.4,0.2,2.1c-0.5,0.6-1.4,0.7-2.1,0.2l-4-3.3c-1-0.8-1.6-2.1-1.6-3.4v-2.8  c0-2,1.6-3.5,3.5-3.5h30.4l4.6,4c2.9,2.5,6.6,3.9,10.4,3.9c3.2,0,6.2-0.9,8.9-2.7l3.4-2.3c0.7-0.5,1.1-1.2,1.1-2v-4.5  c0-1.1,0.6-2.1,1.6-2.7c1-0.5,2.2-0.5,3.1,0.1l7.9,5.1c1.2,0.8,2.6,1.2,4,1.2h7c3.2,0,5.8,2.6,5.8,5.8v8.6  C95.5,45.9,94.9,46.5,94,46.5z"></path>	<path d="M43.2,38.5c-0.2,0-0.5-0.1-0.7-0.2c-0.7-0.4-1-1.3-0.6-2c0.1-0.2,0.3-0.5,0.4-0.7c2.7-4.6,7.8-7.4,13.3-7.4h11.9  c0.8,0,1.5,0.7,1.5,1.5s-0.7,1.5-1.5,1.5H55.7c-4.5,0-8.6,2.3-10.8,6c-0.1,0.2-0.2,0.4-0.3,0.6C44.2,38.2,43.7,38.5,43.2,38.5z"></path>	<path d="M72,28.3c-0.3,0-0.6-0.1-0.9-0.3l-9.4-6.9c-0.7-0.5-1.5-0.8-2.3-0.8h-6.7c-0.8,0-1.5-0.7-1.5-1.5c0-0.8,0.7-1.5,1.5-1.5h6.7  c1.4,0,2.9,0.5,4,1.3l9.4,6.9c0.7,0.5,0.8,1.4,0.3,2C72.9,28.1,72.4,28.3,72,28.3z"></path></svg>