<svg xmlns="http://www.w3.org/2000/svg" xmlns:xlink="http://www.w3.org/1999/xlink" x="0px" y="0px" viewBox="0 0 100 100" xml:space="preserve">	<path d="M67.6,95c-0.5,0-1-0.3-1.3-0.8C45.1,52.6,2.9,52,2.5,52C1.6,52,1,51.4,1,50.6c0-0.8,0.7-1.5,1.5-1.5c0,0,0,0,0,0  c0.4,0,44.5,0.6,66.5,43.8c0.4,0.7,0.1,1.6-0.6,2C68.1,94.9,67.8,95,67.6,95z"></path>	<path d="M44.7,95c-0.4,0-0.9-0.2-1.2-0.6C29.5,76.2,10,71.9,2.3,71c-0.8-0.1-1.4-0.8-1.3-1.6c0.1-0.8,0.8-1.4,1.6-1.3  c8.1,1,28.5,5.5,43.2,24.6c0.5,0.6,0.4,1.6-0.3,2C45.4,94.9,45,95,44.7,95z"></path>	<path d="M56.8,95c-0.5,0-1-0.3-1.3-0.7C38.1,64.9,8.2,61.5,2.4,61.1C1.6,61,1,60.3,1,59.5c0.1-0.8,0.7-1.4,1.6-1.4  c6.1,0.4,37.3,3.9,55.5,34.6c0.4,0.7,0.2,1.6-0.5,2C57.3,94.9,57.1,95,56.8,95z"></path>	<path d="M50.7,72.4c-0.8,0-1.5-0.7-1.5-1.5V30c0-0.8,0.7-1.5,1.5-1.5c0.8,0,1.5,0.7,1.5,1.5v41C52.2,71.8,51.5,72.4,50.7,72.4z"></path>	<path d="M7.5,52c-0.8,0-1.5-0.7-1.5-1.5V30c0-0.8,0.7-1.5,1.5-1.5S9,29.2,9,30v20.6C9,51.4,8.3,52,7.5,52z"></path>	<path d="M55.8,34.7c-0.3,0-0.6-0.1-0.9-0.3L29.1,15.3L3.3,34.4c-0.6,0.5-1.6,0.3-2-0.3c-0.5-0.6-0.3-1.6,0.3-2l27.5-20.4l27.5,20.4  c0.6,0.5,0.8,1.4,0.3,2C56.7,34.5,56.2,34.7,55.8,34.7z"></path>	<path d="M20.5,28c-0.4,0-0.9-0.2-1.2-0.6c-0.5-0.6-0.3-1.6,0.3-2l9.5-7l9.5,7c0.6,0.5,0.8,1.4,0.3,2c-0.5,0.6-1.4,0.8-2,0.3L29.1,22  l-7.7,5.7C21.1,27.9,20.8,28,20.5,28z"></path>	<path d="M37.7,62.8c-0.8,0-1.5-0.7-1.5-1.5V45.6c0-3.9-3.2-7.1-7.1-7.1S22,41.7,22,45.6v8.2c0,0.8-0.7,1.5-1.5,1.5  c-0.8,0-1.5-0.7-1.5-1.5v-8.2c0-5.5,4.5-10.1,10.1-10.1s10.1,4.5,10.1,10.1v15.7C39.2,62.1,38.5,62.8,37.7,62.8z"></path>	<path d="M57.5,79.6c-0.3,0-0.5-0.1-0.7-0.2c-0.7-0.4-0.9-1.3-0.5-2c0.4-0.7,10.2-17,41.2-17c0.8,0,1.5,0.7,1.5,1.5s-0.7,1.5-1.5,1.5  c-29.1,0-38.6,15.4-38.7,15.5C58.5,79.3,58,79.6,57.5,79.6z"></path>	<path d="M63.1,87.1c-0.2,0-0.5-0.1-0.7-0.2c-0.7-0.4-0.9-1.3-0.5-2c0.3-0.6,8.6-14.3,35.6-14.3c0.8,0,1.5,0.7,1.5,1.5  c0,0.8-0.7,1.5-1.5,1.5c-25.3,0-33,12.7-33.1,12.9C64.1,86.8,63.6,87.1,63.1,87.1z"></path>	<path d="M50.7,72.4c-0.3,0-0.6-0.1-0.8-0.3c-0.7-0.5-0.8-1.4-0.4-2c0.3-0.5,8.3-11.6,27.3-16.8c0.9-0.2,1.5-1,1.5-1.9l0-4.2H66.7  l7.4-12.9h-4.8l6.2-10.8h-3.4L82.8,5l10.7,18.5h-3.4l6.2,10.8h-4.8L99,47.2H87.4v3.4c0,0.2,0.1,0.4,0.2,0.4c0.1,0.1,0.2,0.2,0.4,0.1  c3-0.3,6.2-0.5,9.4-0.5c0.8,0,1.5,0.7,1.5,1.5s-0.7,1.5-1.5,1.5c-3.1,0-6.2,0.2-9.1,0.5c-1,0.1-2-0.2-2.7-0.9  c-0.7-0.7-1.2-1.6-1.2-2.6v-6.4h9.5l-7.4-12.9h4.8l-6.2-10.8h3.4l-5.6-9.8l-5.6,9.8h3.4l-6.2,10.8h4.8l-7.4,12.9h9.5l0,7.2  c0,2.2-1.5,4.1-3.6,4.7c-17.9,5-25.6,15.6-25.7,15.7C51.6,72.2,51.2,72.4,50.7,72.4z"></path></svg>