<svg xmlns="http://www.w3.org/2000/svg" xmlns:xlink="http://www.w3.org/1999/xlink" x="0px" y="0px" viewBox="0 0 100 100" xml:space="preserve">	<path d="M2.5,93.3c-0.8,0-1.5-0.7-1.5-1.5V75.5c0-0.8,0.7-1.5,1.5-1.5s1.5,0.7,1.5,1.5v16.3C3.9,92.7,3.3,93.3,2.5,93.3z"></path>	<path d="M97.5,93.3c-0.8,0-1.5-0.7-1.5-1.5V75.5c0-0.8,0.7-1.5,1.5-1.5s1.5,0.7,1.5,1.5v16.3C99,92.7,98.3,93.3,97.5,93.3z"></path>	<path d="M41.3,83.5H15.2V59c0-0.8,0.7-1.5,1.5-1.5c0.8,0,1.5,0.7,1.5,1.5v21.6h23.2c0.8,0,1.5,0.7,1.5,1.5S42.2,83.5,41.3,83.5z"></path>	<path d="M97.5,77c-0.4,0-0.8-0.2-1.1-0.5L50,22.5l-46.4,54c-0.5,0.6-1.4,0.7-2.1,0.2c-0.6-0.5-0.7-1.4-0.2-2.1L50,18l48.6,56.6  c0.5,0.6,0.5,1.5-0.2,2.1C98.2,76.9,97.9,77,97.5,77z"></path>	<path d="M84.8,83.5H58.7c-0.8,0-1.5-0.7-1.5-1.5s0.7-1.5,1.5-1.5h23.2V59c0-0.8,0.7-1.5,1.5-1.5s1.5,0.7,1.5,1.5V83.5z"></path>	<path d="M50,21.7c-0.8,0-1.5-0.7-1.5-1.5v-9.5c0-0.8,0.7-1.5,1.5-1.5s1.5,0.7,1.5,1.5v9.5C51.5,21.1,50.8,21.7,50,21.7z"></path>	<path d="M64.1,83.5c-0.8,0-1.5-0.7-1.5-1.5V68.5c0-7-5.7-12.6-12.6-12.6s-12.6,5.7-12.6,12.6v13.6c0,0.8-0.7,1.5-1.5,1.5  c-0.8,0-1.5-0.7-1.5-1.5V68.5c0-8.6,7-15.5,15.5-15.5c8.6,0,15.5,7,15.5,15.5v13.6C65.5,82.9,64.9,83.5,64.1,83.5z"></path>	<path d="M50,55.9c-0.8,0-1.5-0.7-1.5-1.5v-7.5c0-0.8,0.7-1.5,1.5-1.5s1.5,0.7,1.5,1.5v7.5C51.5,55.2,50.8,55.9,50,55.9z"></path>	<path d="M58.5,16.6h-10v-10h10V16.6z M51.5,13.7h4.1V9.6h-4.1V13.7z"></path>	<path d="M84.8,93.3H15.2V82.1c0-0.8,0.7-1.5,1.5-1.5c0.8,0,1.5,0.7,1.5,1.5v8.3h63.7v-8.3c0-0.8,0.7-1.5,1.5-1.5  c0.8,0,1.5,0.7,1.5,1.5V93.3z"></path></svg>