<svg xmlns="http://www.w3.org/2000/svg" xmlns:xlink="http://www.w3.org/1999/xlink" x="0px" y="0px" viewBox="0 0 100 100" xml:space="preserve">	<path d="M46.1,77.4c-0.6,0-1.1-0.4-1.3-1l-1.6-5.8c-1.4-4.9-4.8-8.9-9.4-11l-4.1-1.9c-2.7-1.3-4.8-3.7-5.6-6.6l-2-7.2l0.2-1.4  c0.2-1.8-0.6-3.6-2.2-4.6l0.6-1.2l0.7-1.1c2.5,1.6,3.8,4.4,3.4,7.2l-0.1,0.9l1.9,6.7c0.6,2.2,2.2,4,4.2,4.9l4.1,1.9  c5.3,2.4,9.2,7,10.8,12.6l1.6,5.8c0.2,0.7-0.2,1.4-0.9,1.6C46.4,77.4,46.2,77.4,46.1,77.4z"></path>	<path d="M29.7,83.3c-0.5,0-0.9-0.3-1.2-0.7c-1.3-2.4-3.5-4.1-6.1-4.6c-0.3-0.1-0.6-0.1-0.9-0.2c-4.8-1.2-9.1-4.5-11.7-9  c-3.2-5.6-8.1-11.4-8.1-11.5L1,56.3l0.8-0.8c0.1-0.1,2-2,4.9-1.9c2.6,0.1,5.1,1.7,7.5,4.8c2.7,3.4,6.8,5.3,11,4.9  c0.3,0,0.5-0.1,0.8-0.1c0.7-0.1,1.4,0.4,1.5,1.1c0.1,0.7-0.4,1.4-1.1,1.5c-0.3,0-0.6,0.1-0.9,0.1c-5.1,0.4-10.1-1.8-13.3-5.9  c-1.9-2.4-3.8-3.7-5.6-3.8c-0.8,0-1.5,0.2-2,0.4c1.6,2,4.9,6.4,7.5,10.8c2.3,3.9,5.9,6.8,10.1,7.8c0.3,0.1,0.5,0.1,0.8,0.2  c3.4,0.7,6.3,2.9,7.9,5.9c0.3,0.6,0.1,1.4-0.5,1.8C30.1,83.2,29.9,83.3,29.7,83.3z"></path>	<path d="M7.2,56.3c-0.6,0-1.1-0.4-1.3-1l-2.1-9.6L10.2,26l1.2,0.3c1.6,0.4,4.4,2.5,3.5,7.5l-2.6,11.6l1.8,7.2c0.2,0.7-0.3,1.4-1,1.6  c-0.7,0.2-1.4-0.3-1.6-1l-1.9-7.8l2.8-12.1c0.3-2-0.1-3.1-0.5-3.7L6.5,45.8l1.9,8.9c0.2,0.7-0.3,1.4-1,1.6  C7.4,56.3,7.3,56.3,7.2,56.3z"></path>	<path d="M17.2,53.2c-0.6,0-1.1-0.4-1.3-1L13.9,45l2.5-13.2c0.7-2.8-0.1-4.4-0.9-5.2l-1.1,3.3c-0.2,0.7-1,1.1-1.6,0.8  c-0.7-0.2-1.1-1-0.8-1.6l2-6.2l1.3,0.5c1.9,0.7,5.1,3.5,3.7,9l-2.4,12.5l1.9,6.7c0.2,0.7-0.2,1.4-0.9,1.6  C17.5,53.2,17.4,53.2,17.2,53.2z"></path>	<path d="M21.5,52.2c-0.6,0-1.1-0.4-1.3-0.9l-2.1-7.4l1.5-7.9c0.4-2-0.4-4.1-2.1-5.3l-0.2-0.2c-0.6-0.4-0.7-1.2-0.3-1.8  c0.4-0.6,1.2-0.7,1.8-0.3l0.2,0.2c2.5,1.8,3.7,4.9,3.1,7.9l-1.4,7.3l2,6.8c0.2,0.7-0.2,1.4-0.9,1.6C21.7,52.2,21.6,52.2,21.5,52.2z"></path>	<path d="M30.2,93.8c-0.5,0-1-0.3-1.2-0.8l-3.7-9.3c-0.1-0.3-0.1-0.7,0-1c0.1-0.3,0.4-0.6,0.7-0.7l19.6-7.1c0.4-0.1,0.8-0.1,1.2,0.2  c0.3,0.2,0.6,0.6,0.6,1.1v4.7c0,0.7-0.6,1.3-1.3,1.3c-0.7,0-1.3-0.6-1.3-1.3v-2.9l-16.6,6l2.8,6.9L43.7,87c0.7-0.2,1.4,0.2,1.6,0.9  c0.2,0.7-0.2,1.4-0.9,1.6l-13.9,4.3C30.5,93.8,30.4,93.8,30.2,93.8z"></path>	<path d="M28.1,88.5c-0.5,0-1-0.3-1.2-0.9c-0.2-0.7,0.1-1.4,0.8-1.7l18-6.4c0.7-0.2,1.4,0.1,1.7,0.8c0.2,0.7-0.1,1.4-0.8,1.7l-18,6.4  C28.4,88.5,28.2,88.5,28.1,88.5z"></path>	<path d="M53.9,77.4c-0.1,0-0.2,0-0.4,0c-0.7-0.2-1.1-0.9-0.9-1.6l1.6-5.8c1.6-5.6,5.5-10.2,10.8-12.6l4.1-1.9c2.1-1,3.6-2.7,4.2-4.9  l1.9-6.7l-0.1-0.9c-0.4-2.8,1-5.6,3.4-7.1c0.6-0.4,1.5-0.2,1.8,0.4c0.4,0.6,0.3,1.4-0.3,1.8c-1.7,1-2.5,2.8-2.3,4.7l0.2,1.4l-2,7.2  c-0.8,2.9-2.9,5.3-5.6,6.6l-4.1,1.9c-4.6,2.1-8,6.1-9.4,11l-1.6,5.8C55,77,54.4,77.4,53.9,77.4z"></path>	<path d="M70.3,83.3c-0.2,0-0.4,0-0.6-0.2c-0.6-0.3-0.9-1.1-0.5-1.8c1.6-3.1,4.5-5.2,7.9-5.9c0.3-0.1,0.6-0.1,0.8-0.2  c4.1-1,7.8-3.9,10-7.8c2.5-4.4,5.9-8.8,7.5-10.8c-0.5-0.2-1.2-0.5-2-0.4c-1.8,0.1-3.7,1.4-5.5,3.8c-3.2,4.1-8.2,6.4-13.2,5.9  c-0.3,0-0.6-0.1-0.9-0.1c-0.7-0.1-1.2-0.8-1.1-1.5c0.1-0.7,0.8-1.2,1.5-1.1c0.3,0,0.5,0.1,0.8,0.1c4.1,0.4,8.3-1.5,11-4.9  c2.4-3.1,4.9-4.7,7.5-4.8c3-0.1,4.8,1.8,4.9,1.9l0.8,0.8l-0.7,0.9c0,0.1-4.9,5.9-8.1,11.5c-2.6,4.5-6.9,7.8-11.7,9  c-0.3,0.1-0.6,0.2-0.9,0.2c-2.6,0.5-4.8,2.2-6.1,4.6C71.2,83,70.8,83.3,70.3,83.3z"></path>	<path d="M92.8,56.3c-0.1,0-0.2,0-0.3,0c-0.7-0.2-1.2-0.8-1-1.6l1.9-8.9l-5.3-16.2c-0.5,0.6-0.9,1.8-0.5,3.8l2.7,12.1l-1.9,7.8  c-0.2,0.7-0.9,1.1-1.6,1c-0.7-0.2-1.1-0.9-1-1.6l1.8-7.2l-2.6-11.5c-0.9-5.1,1.9-7.2,3.5-7.6l1.2-0.3l6.4,19.7l-2.1,9.6  C94,55.9,93.4,56.3,92.8,56.3z"></path>	<path d="M82.8,53.2c-0.1,0-0.2,0-0.4,0c-0.7-0.2-1.1-0.9-0.9-1.6l1.9-6.7L81,32.3c-1.4-5.5,1.8-8.3,3.8-9l1.3-0.5l2,6.2  c0.2,0.7-0.2,1.4-0.8,1.6c-0.7,0.2-1.4-0.2-1.6-0.8l-1.1-3.3c-0.8,0.8-1.6,2.4-0.9,5.1L86.1,45L84,52.2  C83.9,52.8,83.3,53.2,82.8,53.2z"></path>	<path d="M78.5,52.2c-0.1,0-0.2,0-0.4-0.1c-0.7-0.2-1.1-0.9-0.9-1.6l2-6.8l-1.4-7.3c-0.6-3,0.7-6.1,3.1-7.9l0.2-0.2  c0.6-0.4,1.4-0.3,1.8,0.3c0.4,0.6,0.3,1.4-0.3,1.8l-0.2,0.2C80.8,31.9,80,34,80.4,36l1.5,7.9l-2.1,7.4  C79.6,51.9,79.1,52.2,78.5,52.2z"></path>	<path d="M69.8,93.8c-0.1,0-0.3,0-0.4-0.1l-13.9-4.3c-0.7-0.2-1.1-0.9-0.9-1.6c0.2-0.7,0.9-1.1,1.6-0.9L69,90.9l2.8-6.9l-16.6-6v2.9  c0,0.7-0.6,1.3-1.3,1.3c-0.7,0-1.3-0.6-1.3-1.3v-4.7c0-0.4,0.2-0.8,0.6-1.1c0.3-0.2,0.8-0.3,1.2-0.2l19.6,7.1  c0.3,0.1,0.6,0.4,0.7,0.7c0.1,0.3,0.2,0.7,0,1L71,93C70.8,93.5,70.3,93.8,69.8,93.8z"></path>	<path d="M71.9,88.5c-0.1,0-0.3,0-0.4-0.1l-18-6.4c-0.7-0.2-1-1-0.8-1.7c0.2-0.7,1-1,1.7-0.8l18,6.4c0.7,0.2,1,1,0.8,1.7  C72.9,88.1,72.4,88.5,71.9,88.5z"></path>	<path d="M71.9,30.7H28.1c-0.7,0-1.3-0.6-1.3-1.3s0.6-1.3,1.3-1.3h43.8c0.7,0,1.3,0.6,1.3,1.3S72.6,30.7,71.9,30.7z"></path>	<path d="M50,30.8c-0.7,0-1.3-0.6-1.3-1.3V7.5c0-0.7,0.6-1.3,1.3-1.3c0.7,0,1.3,0.6,1.3,1.3v21.9C51.3,30.2,50.7,30.8,50,30.8z"></path>	<path d="M71.9,30.8c-0.7,0-1.3-0.6-1.3-1.3c0-11.4-9.2-20.7-20.6-20.7s-20.6,9.2-20.6,20.6c0,0.7-0.6,1.3-1.3,1.3s-1.3-0.6-1.3-1.3  C26.8,16.6,37.2,6.2,50,6.2s23.2,10.4,23.2,23.3C73.2,30.2,72.6,30.8,71.9,30.8z"></path>	<path d="M38.3,30.7c-0.7,0-1.3-0.6-1.3-1.3C36.9,11.5,49,6.5,49.5,6.3c0.7-0.3,1.4,0.1,1.7,0.7c0.3,0.7-0.1,1.4-0.7,1.7  C50,8.9,39.6,13.4,39.6,29.4C39.6,30.2,39,30.7,38.3,30.7z"></path>	<path d="M61.7,30.7c-0.7,0-1.3-0.6-1.3-1.3C60.4,13.4,50,8.9,49.5,8.7c-0.7-0.3-1-1-0.7-1.7c0.3-0.7,1-1,1.7-0.7  C51,6.5,63,11.5,63,29.4C63,30.2,62.5,30.7,61.7,30.7z"></path>	<path d="M50,21.3c-12.8,0-16.3-6.8-16.4-7.1c-0.3-0.6-0.1-1.4,0.6-1.7c0.6-0.3,1.4-0.1,1.7,0.6c0.1,0.2,3,5.6,14.1,5.6  c0.7,0,1.3,0.6,1.3,1.3S50.7,21.3,50,21.3z"></path>	<path d="M50,21.3c-0.7,0-1.3-0.6-1.3-1.3c0-0.7,0.6-1.3,1.3-1.3c11,0,13.9-5.4,14.1-5.6c0.3-0.6,1.1-0.9,1.8-0.6  c0.6,0.3,0.9,1.1,0.6,1.7C66.3,14.6,62.8,21.3,50,21.3z"></path>	<path d="M50,52.7c-0.7,0-1.3-0.6-1.3-1.3V29.4c0-0.7,0.6-1.3,1.3-1.3c0.7,0,1.3,0.6,1.3,1.3v21.9C51.3,52.1,50.7,52.7,50,52.7z"></path>	<path d="M50,52.7c-12.8,0-23.2-10.4-23.2-23.2c0-0.7,0.6-1.3,1.3-1.3s1.3,0.6,1.3,1.3c0,11.4,9.2,20.6,20.6,20.6s20.6-9.2,20.6-20.6  c0-0.7,0.6-1.3,1.3-1.3s1.3,0.6,1.3,1.3C73.2,42.3,62.8,52.7,50,52.7z"></path>	<path d="M50,52.7c-0.5,0-1-0.3-1.2-0.8c-0.3-0.7,0.1-1.4,0.7-1.7c0.5-0.2,10.9-4.7,10.9-20.7c0-0.7,0.6-1.3,1.3-1.3  c0.7,0,1.3,0.6,1.3,1.3C63,47.3,51,52.4,50.5,52.6C50.3,52.6,50.2,52.7,50,52.7z"></path>	<path d="M50,52.7c-0.2,0-0.3,0-0.5-0.1c-0.5-0.2-12.6-5.2-12.6-23.1c0-0.7,0.6-1.3,1.3-1.3c0.7,0,1.3,0.6,1.3,1.3  C39.6,45.5,50,50,50.5,50.1c0.7,0.3,1,1,0.7,1.7C51,52.4,50.5,52.7,50,52.7z"></path>	<path d="M65.2,46.5c-0.5,0-0.9-0.3-1.2-0.7c-0.1-0.3-3.1-5.6-14.1-5.6c-0.7,0-1.3-0.6-1.3-1.3c0-0.7,0.6-1.3,1.3-1.3  c12.8,0,16.3,6.8,16.4,7.1c0.3,0.6,0.1,1.4-0.6,1.7C65.6,46.5,65.4,46.5,65.2,46.5z"></path>	<path d="M34.8,46.5c-0.2,0-0.4,0-0.6-0.1c-0.6-0.3-0.9-1.1-0.6-1.7c0.1-0.3,3.6-7.1,16.4-7.1c0.7,0,1.3,0.6,1.3,1.3  c0,0.7-0.6,1.3-1.3,1.3c-11,0-13.9,5.4-14.1,5.6C35.7,46.2,35.2,46.5,34.8,46.5z"></path></svg>