<svg xmlns="http://www.w3.org/2000/svg" xmlns:xlink="http://www.w3.org/1999/xlink" x="0px" y="0px" viewBox="0 0 100 100" xml:space="preserve">	<path d="M66.5,58.2c-1.1,0-2-0.9-2-2c0-1.1,0.9-2,2-2s2,0.9,2,2C68.5,57.3,67.6,58.2,66.5,58.2z M66.5,55.7c-0.2,0-0.4,0.2-0.4,0.4  c0,0.2,0.2,0.4,0.4,0.4c0.2,0,0.4-0.2,0.4-0.4C66.9,55.9,66.7,55.7,66.5,55.7z"></path>	<path d="M45.2,76.6c-9.8,0-19.3-4.3-28.3-12.8C15,66.4,10.2,72,2.5,73.5c-0.5,0.1-1-0.1-1.3-0.5c-0.3-0.4-0.3-1,0-1.4  c0-0.1,3.9-5.8,3.9-13.9c0-8.1-3.9-13.8-3.9-13.9c-0.3-0.4-0.3-0.9,0-1.4C1.5,42,2,41.8,2.5,41.9c7.7,1.4,12.5,7,14.4,9.6  c9.2-8.7,19-13,29.2-12.8c15.7,0.4,27.6,11.6,32,16.4c1.4,1.5,1.4,3.7,0,5.2c-4.4,4.8-16.3,16-32,16.4  C45.7,76.6,45.5,76.6,45.2,76.6z M16.6,60.7c0.3,0,0.6,0.1,0.9,0.4C26.6,70,36.1,74.4,46,74.2c14.8-0.4,26.1-11,30.3-15.6  c0.5-0.5,0.5-1.3,0-1.8C72,52.2,60.7,41.6,45.9,41.2c-9.8-0.2-19.4,4.2-28.4,13.1c-0.3,0.3-0.6,0.4-1,0.3c-0.4-0.1-0.7-0.3-0.9-0.6  c0-0.1-3.8-6.4-10.9-9c1.3,2.7,2.9,7.1,2.9,12.6c0,5.5-1.6,10-2.9,12.6c7-2.5,10.8-8.9,10.9-9c0.2-0.3,0.5-0.6,0.9-0.6  C16.5,60.7,16.6,60.7,16.6,60.7z"></path>	<path d="M64.4,71c-0.2,0-0.5-0.1-0.7-0.2c-11.1-7.4-7.1-21.5-7.1-21.6c0.2-0.7,0.9-1,1.5-0.8c0.7,0.2,1,0.9,0.8,1.5  c-0.1,0.5-3.5,12.5,6.1,18.9c0.6,0.4,0.7,1.1,0.3,1.7C65.2,70.8,64.8,71,64.4,71z"></path>	<path d="M57.7,40.3c-0.6,0-1.1-0.4-1.2-1c0,0-0.1-0.5-0.4-1.2c-0.2-0.6-0.5-1.1-0.8-1.7c-2.5-4.2-7.4-6.6-12.5-6.2l-0.8,0.1  c1.6,1.3,3.3,3.4,3.8,6.3c0.1,0.7-0.4,1.3-1,1.4c-0.7,0.1-1.3-0.4-1.4-1c-0.6-3.8-4.3-5.8-5.4-6.3l-0.9-0.4l0.5-2.1l1,0l4.1-0.4  c6-0.5,11.9,2.4,14.8,7.4c0.4,0.7,0.8,1.4,1,2.1c0.3,0.9,0.5,1.6,0.5,1.6c0.1,0.7-0.3,1.3-1,1.4C57.9,40.3,57.8,40.3,57.7,40.3z"></path>	<path d="M44,87.7c-0.5,0-0.9,0-1.4-0.1l-4-0.4l-0.9,0.1l-0.6-2.1l1-0.5c1.1-0.5,4.8-2.5,5.4-6.3c0.1-0.7,0.7-1.1,1.4-1  c0.7,0.1,1.1,0.7,1,1.4c-0.4,2.9-2.1,4.9-3.8,6.3l0.8,0.1c5.1,0.4,10-2,12.5-6.2c0.3-0.6,0.6-1.2,0.8-1.7c0.3-0.7,0.4-1.2,0.4-1.2  c0.1-0.7,0.8-1.1,1.4-1c0.7,0.1,1.1,0.8,1,1.4c0,0.1-0.1,0.7-0.5,1.6c-0.3,0.7-0.6,1.4-1,2.1C54.7,84.9,49.5,87.7,44,87.7z"></path>	<path d="M86.3,91.1c-5.4,0-9.8-4.4-9.8-9.8v-6.9c0-0.7,0.6-1.2,1.2-1.2c0.7,0,1.2,0.6,1.2,1.2v6.9c0,4,3.3,7.3,7.3,7.3  c4,0,7.3-3.3,7.3-7.3V69.9c0-0.7,0.6-1.2,1.2-1.2c0.7,0,1.2,0.6,1.2,1.2v11.5C96.1,86.8,91.7,91.1,86.3,91.1z"></path>	<path d="M81.5,79.4c-0.3,0-0.6-0.1-0.9-0.4l-3.7-3.8c-0.5-0.5-0.5-1.3,0-1.7c0.5-0.5,1.3-0.5,1.7,0l3.7,3.8c0.5,0.5,0.5,1.3,0,1.7  C82.1,79.3,81.8,79.4,81.5,79.4z"></path>	<path d="M94.9,71.1c-2.3,0-4.1-1.8-4.1-4.1v-3.1c0-2.3,1.8-4.1,4.1-4.1h0c2.3,0,4.1,1.8,4.1,4.1V67C99,69.3,97.2,71.1,94.9,71.1z  M94.9,62.2c-0.9,0-1.6,0.7-1.6,1.6V67c0,0.9,0.7,1.6,1.6,1.6c0.9,0,1.7-0.7,1.7-1.6v-3.1C96.5,63,95.8,62.2,94.9,62.2L94.9,62.2z"></path>	<path d="M94.9,62.2c-0.7,0-1.2-0.6-1.2-1.2V45.7c0-7-1.8-12.7-5.7-18c-0.8-1.1-1.7-2.1-2.6-3c-2-1.8-4.2-2.9-6.5-3.3  c-2.5-0.4-5,0.2-6.7,1.6c-2.4,1.9-3.4,5.5-2.3,8.4c1.1,2.9,4.3,4.8,7.4,4.6c3.1-0.2,5.9-2.7,6.6-5.7c0.1-0.7,0.8-1.1,1.5-0.9  c0.7,0.1,1.1,0.8,0.9,1.5c-0.9,4.1-4.6,7.3-8.8,7.6c-4.2,0.3-8.3-2.3-9.9-6.2c-1.5-3.9-0.3-8.6,3-11.2c2.3-1.8,5.5-2.6,8.6-2.1  c2.7,0.4,5.4,1.8,7.8,3.9c1,0.9,2.1,2.1,3,3.3c4.2,5.7,6.2,11.9,6.2,19.4V61C96.1,61.7,95.6,62.2,94.9,62.2z"></path>	<path d="M86.1,25.1c-0.7,0-1.2-0.6-1.2-1.2V10.1c0-0.7,0.6-1.2,1.2-1.2c0.7,0,1.2,0.6,1.2,1.2v13.8C87.4,24.5,86.8,25.1,86.1,25.1z"></path>	<path d="M21.8,57.8c-0.3,0-0.6-0.1-0.8-0.3c-0.5-0.5-0.5-1.2-0.1-1.7c0.3-0.3,8.1-8.5,18.1-10.6c0.7-0.1,1.3,0.3,1.5,1  c0.1,0.7-0.3,1.3-1,1.5c-9.2,1.9-16.8,9.8-16.8,9.9C22.5,57.6,22.1,57.8,21.8,57.8z"></path></svg>