<svg xmlns="http://www.w3.org/2000/svg" xmlns:xlink="http://www.w3.org/1999/xlink" x="0px" y="0px" viewBox="0 0 100 100" xml:space="preserve">	<path d="M38.7,46C38.7,46,38.7,46,38.7,46L38.7,46C38.8,46,38.8,46,38.7,46C38.8,46,38.8,46,38.7,46l3.7,3.4  c4.3,3.9,10.9,3.9,15.1,0l3.5-3.2l0.4-0.4l31.9-29.1c0.2-0.2,0.1-0.6-0.2-0.6H6.8c-0.3,0-0.5,0.4-0.2,0.6L38.7,46  C38.7,45.9,38.7,45.9,38.7,46C38.7,45.9,38.7,46,38.7,46C38.7,46,38.7,46,38.7,46z"></path>	<path d="M1.6,21.6C1.3,21.4,1,21.5,1,21.8v56.3c0,0.3,0.4,0.4,0.6,0.2L21,58.6c5.5-5.6,5.2-14.7-0.6-20L1.6,21.6z"></path>	<path d="M52.1,61.8C52.1,61.8,52.1,61.8,52.1,61.8c-0.6,0.6-1.3,0.8-2.1,0.8c-0.7,0-1.5-0.3-2.1-0.8l-6.9-6.5  c-2.4-2.2-6.1-2.1-8.3,0.2L6.6,83.3c-0.2,0.2-0.1,0.6,0.2,0.6h86.4c0.3,0,0.5-0.4,0.2-0.6L67.3,55.6c-2.2-2.4-6-2.5-8.3-0.2  L52.1,61.8C52.1,61.8,52.1,61.8,52.1,61.8z"></path>	<path d="M99,21.1C99,21.1,99,21.1,99,21.1L77.5,40.5c-4.7,4.2-4.9,11.6-0.5,16.1l21.4,21.8c0.2,0.2,0.6,0.1,0.6-0.2V21.8  C99,21.6,99,21.3,99,21.1C99,21.1,99,21.1,99,21.1z"></path></svg>