<svg xmlns="http://www.w3.org/2000/svg" xmlns:xlink="http://www.w3.org/1999/xlink" x="0px" y="0px" viewBox="0 0 100 100" xml:space="preserve">	<path d="M21.1,76.4H9.4C4.5,69.2,1.4,60.5,1,51.3h15.6C16.8,60.2,18.4,68.8,21.1,76.4L21.1,76.4z"></path>	<path d="M33.7,94c-7.8-2.7-14.7-7-20.1-12.6h10.7c0.9,1.7,1.8,3.3,2.9,4.9C29.1,89.2,31.3,91.8,33.7,94L33.7,94z"></path>	<path d="M88.9,81.4c-5.4,5.5-12.3,9.9-20.1,12.6c2.4-2.1,4.5-4.7,6.5-7.7c1-1.5,2-3.2,2.9-4.9H88.9L88.9,81.4z"></path>	<path d="M99,51.3c-0.4,9.3-3.5,17.9-8.4,25.1H78.9c2.7-7.6,4.3-16.1,4.5-25.1H99z"></path>	<path d="M99,46.2H83.4c-0.2-9-1.8-17.6-4.5-25.1h11.7C95.5,28.3,98.6,36.9,99,46.2z"></path>	<path d="M88.9,16.1H78.2c-0.9-1.7-1.8-3.3-2.9-4.9c-2-3-4.2-5.6-6.5-7.7C76.6,6.2,83.5,10.6,88.9,16.1L88.9,16.1z"></path>	<path d="M21.1,21.1c-2.7,7.6-4.3,16.1-4.5,25.1H1c0.4-9.3,3.5-17.9,8.4-25.1H21.1z"></path>	<path d="M33.7,3.5c-2.4,2.1-4.5,4.7-6.5,7.7c-1,1.5-2,3.2-2.9,4.9H13.6C19,10.6,25.9,6.2,33.7,3.5L33.7,3.5z"></path>	<path d="M76.4,51.3c-0.3,9.1-1.9,17.7-4.8,25.1H51.3V51.3H76.4z"></path>	<path d="M46.2,51.3v25.1H25.9c-2.9-7.4-4.6-16-4.8-25.1H46.2z"></path>	<path d="M46.2,81.4V99c-6-1-11.7-6.2-16.2-14.7c-0.5-0.9-0.9-1.9-1.4-2.8H46.2L46.2,81.4z"></path>	<path d="M68.9,81.4c-0.4,1-0.9,1.9-1.4,2.8C63,92.8,57.3,98,51.3,99V81.4H68.9L68.9,81.4z"></path>	<path d="M46.2,1v17.6H28.6c0.4-1,0.9-1.9,1.4-2.8C34.5,7.2,40.2,2,46.2,1z"></path>	<path d="M68.8,18.6H51.3V1c6,1,11.7,6.2,16.2,14.7C67.9,16.7,68.4,17.6,68.8,18.6L68.8,18.6z"></path>	<path d="M76.4,46.2H51.3V21.1h20.3C74.5,28.5,76.1,37.1,76.4,46.2z"></path>	<path d="M46.2,21.1v25.1H21.1c0.2-9.1,1.9-17.7,4.8-25.1H46.2z"></path></svg>