<svg xmlns="http://www.w3.org/2000/svg" xmlns:xlink="http://www.w3.org/1999/xlink" x="0px" y="0px" viewBox="0 0 100 100" xml:space="preserve">	<path d="M96.3,89.9c4-4,3.5-10.6-1.1-14L79.3,64.3c-3.7-2.7-8.8-2.3-12,0.9l-2.7,2.7c-0.3,0.3-0.6,0.6-1,0.9c-1.3,1.3-3.2,1.7-5,1.1  C44.9,64.5,35.4,55,30.2,41.2c-0.7-1.7-0.2-3.7,1.1-5l0.5-0.5c0.1-0.1,0.2-0.3,0.4-0.4l2.7-2.7c3.2-3.2,3.6-8.3,0.9-12L24.1,4.8  c-3.4-4.6-10-5.1-14-1.1L7.3,6.5c-3.2,3.2-5.3,7.3-6,11.8c-0.1,0.6-0.2,1.2-0.2,1.9C0.4,31,4.3,42.7,12.4,55.1  c0.3,0.4,0.5,0.8,0.8,1.3c8,12,18.4,22.4,30.4,30.4c0.4,0.3,0.8,0.5,1.2,0.8c12.4,8.1,24.2,12,35.1,11.3c0.6,0,1.2-0.1,1.8-0.2  c4.5-0.7,8.6-2.8,11.8-6L96.3,89.9L96.3,89.9z"></path>	<path d="M99,47.7c-0.9-12.1-6.1-23.4-14.7-32C75.8,7.1,64.4,1.9,52.3,1c-1.8-0.1-3.4,1.2-3.6,3.1c-0.1,1.8,1.2,3.4,3.1,3.6  c10.5,0.8,20.4,5.3,27.8,12.7c7.4,7.4,12,17.3,12.7,27.8c0.1,1.7,1.6,3.1,3.3,3.1c0.1,0,0.2,0,0.2,0C97.8,51.1,99.1,49.5,99,47.7  L99,47.7z"></path>	<path d="M71.9,30.6c-5.3-5.3-11.9-8.5-19.3-9.5c-1.9-0.2-3.6,1.1-3.9,3c-0.2,1.9,1.1,3.6,3,3.9c5.8,0.7,11.1,3.3,15.3,7.5  c4.2,4.2,6.8,9.4,7.5,15.3c0.2,1.7,1.7,3,3.4,3c0.1,0,0.3,0,0.4,0c1.9-0.2,3.2-2,3-3.9C80.4,42.5,77.2,35.9,71.9,30.6L71.9,30.6z"></path></svg>