<svg xmlns="http://www.w3.org/2000/svg" width="1000" height="1300" viewBox="0 0 1000 1300"><rect width="100%" height="100%" fill="#DDDDDD"></rect><path fill="#999999" d="M236.515 678.52h13.78v9.8h-42.4v-9.8h15.53v-44.68q0-2.65.16-5.46l-11.03 9.22q-.95.74-1.88.93-.93.18-1.75.02t-1.46-.55q-.63-.4-.95-.88l-4.14-5.67 23.38-19.87h10.76zm79.23-28.52q0 10.02-2.14 17.41-2.15 7.4-5.94 12.22t-8.96 7.18-11.15 2.36q-5.99 0-11.11-2.36-5.11-2.36-8.88-7.18-3.76-4.82-5.88-12.22-2.12-7.39-2.12-17.41 0-10.07 2.12-17.44 2.12-7.36 5.88-12.19 3.77-4.82 8.88-7.18 5.12-2.36 11.11-2.36 5.98 0 11.15 2.36t8.96 7.18q3.79 4.83 5.94 12.19 2.14 7.37 2.14 17.44m-13.51 0q0-8.32-1.22-13.78t-3.26-8.69-4.69-4.53-5.51-1.3q-2.81 0-5.44 1.3-2.62 1.3-4.63 4.53-2.02 3.23-3.21 8.69t-1.19 13.78 1.19 13.78 3.21 8.69q2.01 3.24 4.63 4.53 2.63 1.3 5.44 1.3 2.86 0 5.51-1.3 2.65-1.29 4.69-4.53 2.04-3.23 3.26-8.69t1.22-13.78m74.99 0q0 10.02-2.14 17.41-2.15 7.4-5.94 12.22t-8.96 7.18-11.15 2.36q-5.99 0-11.11-2.36-5.11-2.36-8.88-7.18-3.76-4.82-5.88-12.22-2.12-7.39-2.12-17.41 0-10.07 2.12-17.44 2.12-7.36 5.88-12.19 3.77-4.82 8.88-7.18 5.12-2.36 11.11-2.36 5.98 0 11.15 2.36t8.96 7.18q3.79 4.83 5.94 12.19 2.14 7.37 2.14 17.44m-13.51 0q0-8.32-1.22-13.78t-3.26-8.69-4.69-4.53-5.51-1.3q-2.81 0-5.44 1.3-2.62 1.3-4.63 4.53-2.02 3.23-3.21 8.69t-1.19 13.78 1.19 13.78 3.21 8.69q2.01 3.24 4.63 4.53 2.63 1.3 5.44 1.3 2.86 0 5.51-1.3 2.65-1.29 4.69-4.53 2.04-3.23 3.26-8.69t1.22-13.78m74.99 0q0 10.02-2.14 17.41-2.15 7.4-5.94 12.22t-8.96 7.18-11.15 2.36q-5.99 0-11.11-2.36-5.11-2.36-8.88-7.18-3.76-4.82-5.88-12.22-2.12-7.39-2.12-17.41 0-10.07 2.12-17.44 2.12-7.36 5.88-12.19 3.77-4.82 8.88-7.18 5.12-2.36 11.11-2.36 5.98 0 11.15 2.36t8.96 7.18q3.79 4.83 5.94 12.19 2.14 7.37 2.14 17.44m-13.51 0q0-8.32-1.22-13.78t-3.26-8.69-4.69-4.53-5.51-1.3q-2.81 0-5.44 1.3-2.62 1.3-4.63 4.53-2.02 3.23-3.21 8.69t-1.19 13.78 1.19 13.78 3.21 8.69q2.01 3.24 4.63 4.53 2.63 1.3 5.44 1.3 2.86 0 5.51-1.3 2.65-1.29 4.69-4.53 2.04-3.23 3.26-8.69t1.22-13.78m97.68 20.78-6.95 6.83-17.96-17.96-18.13 18.07-6.94-6.84 18.12-18.18-17.28-17.27 6.89-6.89 17.28 17.27 17.17-17.17 7 6.89-17.22 17.23zm72.55 7.74h13.78v9.8h-42.4v-9.8h15.53v-44.68q0-2.65.16-5.46l-11.02 9.22q-.96.74-1.88.93-.93.18-1.75.02-.83-.16-1.46-.55-.64-.4-.96-.88l-4.13-5.67 23.37-19.87h10.76zm33.02-44.26-6.89-1.22q.8-5.51 3.08-9.67 2.27-4.16 5.69-6.94 3.42-2.79 7.85-4.19 4.42-1.41 9.51-1.41 5.3 0 9.57 1.51 4.26 1.51 7.28 4.19 3.03 2.68 4.64 6.28 1.62 3.61 1.62 7.79 0 3.66-.82 6.44-.82 2.79-2.36 4.85-1.54 2.07-3.82 3.5t-5.14 2.38q6.89 2.18 10.28 6.63 3.4 4.45 3.4 11.18 0 5.73-2.12 10.13t-5.73 7.39q-3.6 2.99-8.35 4.53-4.74 1.54-10.04 1.54-5.78 0-10.07-1.33-4.29-1.32-7.47-3.92t-5.41-6.36q-2.22-3.76-3.81-8.69l5.77-2.39q2.28-.95 4.27-.5t2.89 2.15q.95 1.85 2.09 3.65 1.14 1.81 2.73 3.21 1.59 1.41 3.74 2.28 2.14.87 5.11.87 3.34 0 5.83-1.08 2.49-1.09 4.16-2.84t2.49-3.89q.82-2.15.82-4.32 0-2.76-.58-5.01t-2.44-3.84q-1.85-1.59-5.32-2.5-3.47-.9-9.3-.9v-9.32q4.82-.06 8-.9 3.18-.85 5.06-2.36t2.62-3.63q.75-2.12.75-4.67 0-5.4-3.03-8.21-3.02-2.81-8.05-2.81-2.33 0-4.29.66-1.97.66-3.53 1.86-1.56 1.19-2.62 2.78t-1.59 3.5q-.9 2.43-2.36 3.23-1.46.79-4.11.37m107.7 15.74q0 10.02-2.15 17.41-2.15 7.4-5.93 12.22-3.79 4.82-8.96 7.18t-11.16 2.36-11.1-2.36q-5.12-2.36-8.88-7.18t-5.88-12.22q-2.12-7.39-2.12-17.41 0-10.07 2.12-17.44 2.12-7.36 5.88-12.19 3.76-4.82 8.88-7.18 5.11-2.36 11.1-2.36t11.16 2.36 8.96 7.18q3.78 4.83 5.93 12.19 2.15 7.37 2.15 17.44m-13.52 0q0-8.32-1.22-13.78t-3.26-8.69-4.69-4.53-5.51-1.3q-2.81 0-5.43 1.3t-4.64 4.53q-2.01 3.23-3.2 8.69-1.2 5.46-1.2 13.78t1.2 13.78q1.19 5.46 3.2 8.69 2.02 3.24 4.64 4.53 2.62 1.3 5.43 1.3 2.86 0 5.51-1.3 2.65-1.29 4.69-4.53 2.04-3.23 3.26-8.69t1.22-13.78m75 0q0 10.02-2.15 17.41-2.15 7.4-5.93 12.22-3.79 4.82-8.96 7.18t-11.16 2.36-11.1-2.36q-5.12-2.36-8.88-7.18t-5.88-12.22q-2.12-7.39-2.12-17.41 0-10.07 2.12-17.44 2.12-7.36 5.88-12.19 3.76-4.82 8.88-7.18 5.11-2.36 11.1-2.36t11.16 2.36 8.96 7.18q3.78 4.83 5.93 12.19 2.15 7.37 2.15 17.44m-13.52 0q0-8.32-1.22-13.78t-3.26-8.69-4.69-4.53-5.51-1.3q-2.81 0-5.43 1.3t-4.64 4.53q-2.01 3.23-3.2 8.69-1.2 5.46-1.2 13.78t1.2 13.78q1.19 5.46 3.2 8.69 2.02 3.24 4.64 4.53 2.62 1.3 5.43 1.3 2.86 0 5.51-1.3 2.65-1.29 4.69-4.53 2.04-3.23 3.26-8.69t1.22-13.78"></path></svg>