<svg xmlns="http://www.w3.org/2000/svg" xmlns:xlink="http://www.w3.org/1999/xlink" x="0px" y="0px" viewBox="0 0 100 100" xml:space="preserve">	<style type="text/css">		.award-2-0 { fill:#B89052; }		.award-2-1 { fill:#3B271E;stroke:#FFFFFF;stroke-width:0.28;stroke-miterlimit:10; }		.award-2-2 { fill:#3B271E; }		.award-2-3 { fill:#FFFFFF; }	</style>	<path class="award-2-0" d="M58.6,7.4l-6.8,0L49.7,1l-2.1,6.5l-6.8,0l5.5,4l-2.1,6.5l5.5-4l5.5,4l-2.1-6.5L58.6,7.4z"></path>	<path class="award-2-0" d="M40.9,12.6l-5.1,0l-1.6-4.8l-1.6,4.8l-5.1,0l4.1,3l-1.6,4.8l4.1-3l4.1,3l-1.6-4.8L40.9,12.6z"></path>	<path class="award-2-0" d="M71.8,12.6l-5.1,0l-1.6-4.8l-1.6,4.8l-5.1,0l4.1,3L61,20.4l4.1-3l4.1,3l-1.6-4.8L71.8,12.6z"></path>	<path class="award-2-1" d="M73.5,17c10.3,4,8.7,7.6,10.9,12.4C77.2,23.6,79.5,23.5,73.5,17z"></path>	<path class="award-2-1" d="M87.7,36.7c-3.3-8.2-1.9-12.1-5.7-15.1c9.5,3.5,5.2,14.1,6.2,17.5c-2.2-5.4-9.9-6.8-10.4-14.8  C78.9,28.9,84.6,28.1,87.7,36.7L87.7,36.7z"></path>	<path class="award-2-1" d="M89.6,46.8c-1.5-13.3,1.8-13.8-0.9-19.2c8,10.2,0.8,17.5,0.8,22.9c-1.1-6.6-7.3-9.8-7.9-17.6  C84,38.1,88.4,37,89.6,46.8z"></path>	<path class="award-2-1" d="M88.2,59c1.5-3.8,1.2-5,2.2-7.8c1.8-5.1,3.5-6.9,2.8-11.5c2.1,6.8,0.8,11.7-0.3,14.4c-1.2,2.9-3.2,4.1-5.9,8.4  c1.4-6.4-3.4-11.1-2.8-20.7C85.5,47.5,90.8,50.6,88.2,59z"></path>	<path class="award-2-1" d="M82.9,70.4c2.3-2.8,3.5-5.1,5.4-7.3c2.9-3.3,5.3-4.8,6.2-9.7c0.6,6.7-2.1,10.5-5,13.3c-2.2,2.2-5.4,3.9-9,6.6  c3.3-5.6,1.3-13.5,4.3-20.8C84.3,59.5,88.3,62.5,82.9,70.4z"></path>	<path class="award-2-1" d="M74.9,78.7C78,77.1,78,76.1,82,74c3.4-1.8,7.2-2.9,9.6-8c-1.2,5.9-5.7,10.4-9.4,12.1c-2.8,1.3-6.6,1.4-10.5,2.7  C77,76.2,75.2,69.2,82,61.9C79.2,67.6,81.9,73.3,74.9,78.7L74.9,78.7z"></path>	<path class="award-2-1" d="M64.9,82.7c3.3-0.1,3.4-0.8,7.8-1c3.7-0.2,9.2-0.4,12.1-4.1c-2.6,4.5-6.8,7.6-12.1,7.6c-4.8,0-5.6-1.3-12.6-2.4  c7.5-1.3,7.4-5.3,15.4-11C72.2,76.7,73.1,81.2,64.9,82.7L64.9,82.7z"></path>	<path class="award-2-1" d="M40.3,94.9c4.2-3.7,7.6-9.8,12.2-10.7c3.8-0.8,7.6,4.5,12.6,5.7c4.7,1.2,9-0.4,12.4-4.3  c-9.3,6.1-14.8-3.8-24-2.8c-7.3,0.8-11.4,9.1-17.7,10.8C36.8,94,39.5,94.7,40.3,94.9L40.3,94.9z"></path>	<path class="award-2-1" d="M26.5,17c-10.3,4-8.7,7.6-10.9,12.4C22.8,23.6,20.5,23.5,26.5,17z"></path>	<path class="award-2-1" d="M12.3,36.7c3.3-8.2,1.9-12.1,5.7-15.1c-9.5,3.5-5.2,14.1-6.2,17.5c2.2-5.4,9.9-6.8,10.4-14.8  C21.2,28.9,15.4,28.1,12.3,36.7L12.3,36.7z"></path>	<path class="award-2-1" d="M10.4,46.8c1.5-13.3-1.8-13.8,0.9-19.2c-8,10.2-0.8,17.5-0.8,22.9c1.1-6.6,7.3-9.8,7.9-17.6  C16,38.1,11.6,37,10.4,46.8z"></path>	<path class="award-2-1" d="M11.8,59c-1.5-3.8-1.2-5-2.2-7.8c-1.8-5.1-3.5-6.9-2.8-11.5c-2.1,6.8-0.8,11.7,0.3,14.4  c1.2,2.9,3.2,4.1,5.9,8.4c-1.4-6.4,3.4-11.1,2.8-20.7C14.5,47.5,9.2,50.6,11.8,59z"></path>	<path class="award-2-1" d="M17.1,70.4c-2.3-2.8-3.5-5.1-5.4-7.3c-2.9-3.3-5.3-4.8-6.2-9.7c-0.6,6.7,2.1,10.5,5,13.3c2.2,2.2,5.4,3.9,9,6.6  c-3.3-5.6-1.3-13.5-4.3-20.8C15.7,59.5,11.7,62.5,17.1,70.4z"></path>	<path class="award-2-1" d="M25.1,78.7C22,77.1,22,76.1,18,74c-3.4-1.8-7.2-2.9-9.6-8c1.2,5.9,5.7,10.4,9.4,12.1c2.8,1.3,6.6,1.4,10.5,2.7  C23,76.2,24.8,69.2,18,61.9C20.8,67.6,18.1,73.3,25.1,78.7L25.1,78.7z"></path>	<path class="award-2-1" d="M35.1,82.7c-3.3-0.1-3.4-0.8-7.8-1c-3.7-0.2-9.2-0.4-12.1-4.1c2.6,4.5,6.8,7.6,12.1,7.6c4.8,0,5.6-1.3,12.6-2.4  c-7.5-1.3-7.4-5.3-15.4-11C27.9,76.7,26.9,81.2,35.1,82.7L35.1,82.7z"></path>	<path class="award-2-1" d="M59.7,94.9c-4.2-3.7-7.6-9.8-12.2-10.7c-3.8-0.8-7.6,4.5-12.6,5.7c-4.7,1.2-9-0.4-12.4-4.3  c9.3,6.1,14.8-3.8,24-2.8c7.3,0.8,11.4,9.1,17.7,10.8C63.2,94,60.5,94.7,59.7,94.9L59.7,94.9z"></path>	<path class="award-2-1" d="M50.4,99c-1.7-4.6-0.6-3.5-5.2-5.2c4.6-1.7,3.5-0.6,5.2-5.2c1.7,4.6,0.6,3.5,5.2,5.2C51,95.5,52.1,94.4,50.4,99  z"></path>	<path class="award-2-2" d="M35,31.3h-2.6L31.9,33H30l2.7-8.3h2.1l2.7,8.3h-1.9L35,31.3L35,31.3z M32.8,29.9h1.8l-0.9-3h0L32.8,29.9  L32.8,29.9z"></path>	<path class="award-2-2" d="M44.3,30.1L44.3,30.1l1.1-5.5h1.9L45.4,33h-1.8l-1.4-5.1h0L40.8,33h-1.8L37,24.6h1.9l1.1,5.5h0l1.5-5.5h1.3  L44.3,30.1L44.3,30.1z"></path>	<path class="award-2-2" d="M52.1,31.3h-2.6L49,33H47l2.7-8.3h2.1l2.7,8.3h-1.9L52.1,31.3L52.1,31.3z M49.9,29.9h1.8l-0.9-3h0L49.9,29.9  L49.9,29.9z"></path>	<path class="award-2-2" d="M56.8,29.8v3.2h-1.9v-8.3h3.2c1,0,1.7,0.2,2.3,0.7c0.6,0.4,0.8,1.1,0.8,1.8c0,0.4-0.1,0.8-0.3,1.1  c-0.2,0.3-0.6,0.6-1,0.8c0.5,0.1,0.9,0.4,1.1,0.7c0.2,0.3,0.3,0.8,0.3,1.3v0.5c0,0.2,0,0.5,0.1,0.7c0.1,0.3,0.2,0.5,0.3,0.6v0.1h-2  c-0.2-0.1-0.3-0.3-0.3-0.6c0-0.3-0.1-0.6-0.1-0.8V31c0-0.4-0.1-0.7-0.3-0.9c-0.2-0.2-0.5-0.3-0.9-0.3L56.8,29.8L56.8,29.8z  M56.8,28.3h1.3c0.4,0,0.7-0.1,0.9-0.3c0.2-0.2,0.3-0.4,0.3-0.8c0-0.3-0.1-0.6-0.3-0.8c-0.2-0.2-0.5-0.3-0.9-0.3h-1.3V28.3  L56.8,28.3z"></path>	<path class="award-2-2" d="M62.5,33v-8.3h3c1,0,1.8,0.3,2.5,1c0.7,0.6,1,1.5,1,2.5v1.5c0,1-0.3,1.8-1,2.5c-0.7,0.6-1.5,1-2.5,1H62.5z  M64.4,26.1v5.3h0.9c0.5,0,0.9-0.2,1.2-0.5c0.3-0.4,0.4-0.8,0.4-1.4V28c0-0.6-0.1-1-0.4-1.4c-0.3-0.3-0.7-0.5-1.2-0.5L64.4,26.1  L64.4,26.1z"></path>	<path class="award-2-2" d="M27.7,42.5l0.3,1.4h0l0.4-1.4l2-6.8h0.7l2,6.8l0.3,1.5h0l0.3-1.5l1.7-6.8h0.8l-2.4,9.4h-0.7L31,37.9l-0.2-1h0  l-0.2,1l-2.1,7.2h-0.7l-2.4-9.4h0.8L27.7,42.5L27.7,42.5z"></path>	<path class="award-2-2" d="M38.7,45.2h-0.8v-9.4h0.8V45.2z"></path>	<path class="award-2-2" d="M48.1,45.2h-0.8L42,37h0v8.1h-0.8v-9.4h0.8l5.4,8.1h0v-8.1h0.8V45.2z"></path>	<path class="award-2-2" d="M57.4,45.2h-0.8L51.2,37h0v8.1h-0.8v-9.4h0.8l5.4,8.1h0v-8.1h0.8V45.2z"></path>	<path class="award-2-2" d="M65,40.6h-4.6v3.9h5.2v0.7h-6v-9.4h6v0.7h-5.2v3.5H65V40.6L65,40.6z"></path>	<path class="award-2-2" d="M67.9,40.9v4.3h-0.8v-9.4h3.2c1,0,1.8,0.2,2.3,0.7c0.5,0.4,0.8,1.1,0.8,1.9c0,0.5-0.1,1-0.4,1.3  c-0.3,0.4-0.7,0.7-1.2,0.9c0.6,0.1,1,0.4,1.3,0.8c0.3,0.4,0.4,0.9,0.4,1.4v0.9c0,0.3,0,0.6,0.1,0.8c0.1,0.2,0.2,0.4,0.3,0.6v0.2  h-0.8c-0.2-0.2-0.3-0.4-0.3-0.7c-0.1-0.3-0.1-0.6-0.1-0.9v-0.9c0-0.6-0.2-1-0.6-1.4c-0.4-0.3-0.9-0.5-1.6-0.5L67.9,40.9L67.9,40.9z  M67.9,40.2h2.3c0.9,0,1.5-0.2,1.9-0.5c0.4-0.3,0.6-0.8,0.6-1.4c0-0.6-0.2-1.1-0.6-1.4c-0.4-0.3-1-0.5-1.8-0.5h-2.4V40.2L67.9,40.2z  "></path>	<path class="award-2-0" d="M53.9,49.4v14.3l5.4-5.4v-9H53.9z"></path>	<path class="award-2-0" d="M47,49.4v13.8c0.9-0.3,1.8-0.4,2.7-0.4c0.9,0,1.8,0.1,2.7,0.4V49.4H47z"></path>	<path class="award-2-0" d="M40.1,49.4v9l5.4,5.4V49.4H40.1z"></path>	<path class="award-2-0" d="M42,72c0-4.2,3.5-7.7,7.7-7.7c4.2,0,7.7,3.4,7.7,7.7s-3.5,7.7-7.7,7.7C45.5,79.6,42,76.2,42,72z"></path>	<path class="award-2-3" d="M48.6,70.9l1.1-3.4l1.1,3.4h3.6L51.5,73l1.1,3.4l-2.9-2.1l-2.9,2.1l1.1-3.4l-2.9-2.1H48.6z"></path></svg>