<svg xmlns="http://www.w3.org/2000/svg" xmlns:xlink="http://www.w3.org/1999/xlink" x="0px" y="0px" viewBox="0 0 100 100" xml:space="preserve">	<style type="text/css">		.award-4-0 {fill:#3B271E; }		.award-4-1 {fill:#B89052; }		.award-4-2 {fill:none;stroke:#B89052;stroke-miterlimit:10; }	</style>	<path class="award-4-0" d="M12.9,73.3c-0.4-0.1-0.7-0.3-1.1-0.4c0-0.4,0.1-0.8,0.1-1.2l0.1-1l-1.6,1.7c-0.4-0.2-0.7-0.3-1.1-0.5l-1-0.5  l0.5,0.9c0.2,0.4,0.4,0.7,0.6,1.1L8,75l2.2-0.5c0.2,0.4,0.5,0.7,0.7,1l0.6,0.9l0-1c0-0.4,0-0.8,0.1-1.2l2.2-0.5L12.9,73.3L12.9,73.3  z"></path>	<path class="award-4-0" d="M17.9,79.6c-0.4-0.1-0.8-0.1-1.2-0.2c0-0.4-0.1-0.8-0.1-1.2l-0.1-1l-1.2,1.9c-0.4-0.1-0.8-0.2-1.2-0.3l-1-0.3  l0.7,0.8c0.3,0.3,0.5,0.6,0.8,0.9l-1.2,1.9l2.1-0.9c0.3,0.3,0.6,0.6,0.9,0.9l0.7,0.7l-0.2-1c-0.1-0.4-0.1-0.8-0.2-1.2l2.1-0.9  L17.9,79.6L17.9,79.6z"></path>	<path class="award-4-0" d="M23.6,84.9c-0.3,0-0.6,0-0.9,0c-0.1-0.4-0.2-0.8-0.3-1.1l-0.2-1l-0.8,2.1c-0.4,0-0.8-0.1-1.2-0.1l-1.1-0.1  l0.8,0.7c0.3,0.3,0.7,0.5,1,0.8l-0.8,2.1L22,87c0.3,0.3,0.7,0.5,1,0.7l0.9,0.6l-0.3-1c-0.1-0.4-0.3-0.8-0.4-1.1l1.9-1.3L23.6,84.9  L23.6,84.9z"></path>	<path class="award-4-0" d="M31,89.1c-0.4,0.1-0.8,0.1-1.2,0.2c-0.2-0.4-0.3-0.7-0.5-1.1l-0.4-1l-0.4,2.2c-0.4,0-0.8,0.1-1.2,0.1l-1.1,0.1  l0.9,0.5c0.4,0.2,0.7,0.4,1.1,0.6L27.8,93l1.6-1.5c0.4,0.2,0.8,0.4,1.2,0.5l1,0.4L31,91.6c-0.2-0.4-0.4-0.7-0.6-1l1.6-1.6L31,89.1  L31,89.1z"></path>	<path class="award-4-0" d="M38.4,93.4l1.3-1.9l-1,0.4c-0.4,0.1-0.7,0.3-1.1,0.4c-0.2-0.3-0.5-0.6-0.7-0.9l-0.6-0.9v2.2  c-0.4,0.1-0.8,0.2-1.2,0.4l-1,0.3l1,0.3c0.4,0.1,0.8,0.3,1.2,0.4l0.1,2.2l1.3-1.8c0.4,0.1,0.8,0.2,1.2,0.3l1,0.3l-0.7-0.8  C38.9,94,38.6,93.7,38.4,93.4L38.4,93.4z"></path>	<path class="award-4-0" d="M46.8,94.8l0.9-2.1l-0.9,0.6c-0.3,0.2-0.7,0.4-1,0.6c-0.3-0.3-0.6-0.5-0.9-0.8l-0.8-0.7l0.4,2.2  c-0.4,0.2-0.7,0.4-1.1,0.6l-0.9,0.5l1,0.1c0.4,0.1,0.8,0.1,1.3,0.2l0.5,2.2l0.9-2c0.4,0,0.9,0.1,1.3,0.1l1.1,0.1l-0.8-0.6  C47.4,95.3,47.1,95,46.8,94.8z"></path>	<path class="award-4-0" d="M55.3,94.6l0.5-2.2l-0.8,0.7c-0.3,0.3-0.6,0.5-0.9,0.8c-0.3-0.2-0.7-0.4-1-0.6l-0.9-0.6l0.9,2.1  c-0.3,0.3-0.6,0.5-1,0.8l-0.8,0.6l1.1-0.1c0.4,0,0.9,0,1.3-0.1l0.9,2l0.5-2.1c0.4,0,0.8-0.1,1.3-0.1l1-0.1l-0.9-0.5  C56,95,55.6,94.8,55.3,94.6L55.3,94.6z"></path>	<path class="award-4-0" d="M63.6,92.9l0-2.2L63,91.5c-0.2,0.3-0.5,0.6-0.7,0.9c-0.4-0.1-0.7-0.3-1.1-0.4l-1-0.4l1.2,1.9  c-0.3,0.3-0.5,0.6-0.8,0.9l-0.7,0.8l1-0.2c0.4-0.1,0.8-0.2,1.2-0.3l1.3,1.8l0.1-2.2c0.4-0.1,0.8-0.2,1.2-0.4l1-0.3l-1-0.3  C64.4,93.2,64,93,63.6,92.9L63.6,92.9z"></path>	<path class="award-4-0" d="M71.4,89.7L71,87.5l-0.4,0.9c-0.2,0.4-0.3,0.7-0.5,1c-0.4-0.1-0.8-0.1-1.2-0.2l-1.1-0.2l1.6,1.6  c-0.2,0.4-0.4,0.7-0.6,1l-0.5,0.9l1-0.4c0.4-0.2,0.8-0.3,1.2-0.5l1.6,1.6L71.7,91c0.4-0.2,0.8-0.4,1.1-0.6l0.9-0.5l-1.1-0.1  C72.2,89.8,71.8,89.8,71.4,89.7z"></path>	<path class="award-4-0" d="M78.5,85.2l-0.8-2.1l-0.3,1c-0.1,0.4-0.2,0.8-0.3,1.1c-0.1,0-0.2,0-0.4,0c-0.3,0-0.6,0-0.8,0l-1.1,0l1.9,1.3  c-0.1,0.4-0.3,0.8-0.4,1.1l-0.4,1l0.9-0.6c0.4-0.2,0.7-0.5,1-0.7l1.9,1.2L79,86.5c0.3-0.3,0.7-0.5,1-0.8l0.8-0.7l-1.1,0.1  C79.3,85.1,78.9,85.2,78.5,85.2L78.5,85.2z"></path>	<path class="award-4-0" d="M86.9,78.9l-1,0.3c-0.4,0.1-0.8,0.2-1.2,0.3l-1.2-1.9l-0.1,1c0,0.4-0.1,0.8-0.1,1.2c-0.4,0.1-0.8,0.1-1.2,0.2  L81,80.1l2.1,1c-0.1,0.4-0.1,0.8-0.2,1.2l-0.2,1l0.7-0.7c0.3-0.3,0.6-0.6,0.9-0.9l2.1,0.9l-1.1-1.9c0.3-0.3,0.6-0.6,0.8-0.9  L86.9,78.9L86.9,78.9z"></path>	<path class="award-4-0" d="M90.5,73.8c0.2-0.4,0.4-0.7,0.6-1.1l0.5-0.9l-1,0.4c-0.4,0.2-0.8,0.3-1.1,0.5L88,71.1l0.1,1  c0,0.4,0.1,0.8,0.1,1.2c-0.4,0.1-0.8,0.3-1.1,0.4l-1,0.4l2.2,0.6c0,0.4,0,0.8,0,1.2l0,1L89,76c0.2-0.3,0.5-0.7,0.7-1l2.2,0.5  L90.5,73.8L90.5,73.8z"></path>	<path class="award-4-1" d="M8,67.6c-0.6-3.2-2.6-4.8-6.1-6.1c0.7,2.3,1.6,4,2.6,5.1C5.6,67.6,6.8,67.9,8,67.6L8,67.6z M6,61  c-0.1-3.3-1.7-5.1-5-7c0.3,2.4,0.9,4.2,1.8,5.4C3.6,60.7,4.7,61.2,6,61L6,61z M5.1,54.3C5.5,51,4.1,49,1.2,46.7  c-0.1,2.4,0.2,4.3,0.9,5.6C2.8,53.6,3.8,54.2,5.1,54.3z M5.2,47.4c1-3.1-0.1-5.4-2.5-8.1c-0.5,2.4-0.5,4.3,0,5.7  C3.1,46.4,4,47.2,5.2,47.4z M6.5,40.7c1.5-3,0.8-5.3-1.2-8.4c-0.9,2.3-1.2,4.2-1,5.6C4.6,39.4,5.3,40.3,6.5,40.7z M8.8,34.2  c1.9-2.7,1.7-5.1,0.2-8.5c-1.2,2.1-1.8,4-1.8,5.4C7.1,32.6,7.7,33.6,8.8,34.2z M12.2,28.2c2.4-2.4,2.5-4.8,1.6-8.3  c-1.5,1.9-2.4,3.6-2.7,5.1C10.8,26.4,11.2,27.5,12.2,28.2z M16.5,22.8c2.7-2,3.2-4.4,2.9-8c-1.8,1.6-3,3.2-3.5,4.6  C15.4,20.8,15.6,21.9,16.5,22.8L16.5,22.8z M21.6,18.1c3-1.5,3.9-3.8,4.1-7.5c-2.1,1.4-3.5,2.7-4.2,4C20.9,15.9,20.9,17,21.6,18.1  L21.6,18.1z M27.4,14.2c3.2-1.1,4.5-3.2,5.3-6.7c-2.3,1-3.9,2.2-4.8,3.3C27.1,11.9,26.9,13.1,27.4,14.2L27.4,14.2z M11.1,59.7  c-2.7,2.2-3.7,4.7-1.9,7.5C11.5,66,11.6,63.5,11.1,59.7z M10.3,53.7c-3,1.7-4.4,4.1-3.1,7.1C9.7,60,10.2,57.6,10.3,53.7z M10.5,47.6  c-3.3,1.2-5,3.4-4.2,6.6C8.9,53.8,9.8,51.5,10.5,47.6z M9.6,46c0.8-1,1.4-2.5,2.2-4.3c-3.4,0.7-5.5,2.6-5.2,5.8  C7.8,47.6,8.8,47,9.6,46L9.6,46z M13.8,36c-3.5,0.2-5.9,1.7-6.1,5C10.3,41.4,11.8,39.4,13.8,36z M16.8,30.8c-3.5-0.3-6.1,0.8-6.8,4  C12.5,35.6,14.3,33.8,16.8,30.8z M20.7,26c-3.4-0.9-6.1-0.1-7.4,2.9C15.6,30.1,17.7,28.6,20.7,26z M25.2,21.9c-3.2-1.4-6-1-7.8,1.8  C19.5,25.1,21.9,24,25.2,21.9z M30.4,18.5c-3-1.8-5.8-1.9-8,0.6C24.3,20.8,26.7,20.1,30.4,18.5z M36,15.9c-2.6-2.3-5.4-2.8-8-0.7  C29.6,17.3,32.2,17,36,15.9z M40.9,9.8c-4.2-0.8-7.4,0.1-8.6,2.7C35,13.4,37.4,12.3,40.9,9.8z M90.8,67.2c1.8-2.8,0.8-5.3-1.9-7.5  C88.4,63.5,88.5,66,90.8,67.2z M92.8,60.8c1.3-3-0.1-5.4-3.1-7.1C89.8,57.6,90.3,60,92.8,60.8z M93.7,54.2c0.8-3.2-0.9-5.3-4.2-6.6  C90.3,51.5,91.1,53.8,93.7,54.2z M93.5,47.6c0.3-3.2-1.8-5.1-5.2-5.8c0.7,1.8,1.3,3.3,2.2,4.3C91.3,47,92.2,47.6,93.5,47.6z  M92.3,41c-0.2-3.2-2.6-4.8-6.1-5C88.2,39.4,89.7,41.4,92.3,41z M90,34.8c-0.8-3.2-3.3-4.3-6.8-4C85.7,33.8,87.5,35.6,90,34.8z  M86.7,28.9c-1.3-3-4-3.8-7.4-2.9C82.3,28.6,84.4,30.1,86.7,28.9z M82.6,23.6c-1.7-2.8-4.6-3.1-7.8-1.8C78.1,24,80.5,25.1,82.6,23.6  z M77.6,19c-2.2-2.5-5-2.4-8-0.6C73.3,20.1,75.8,20.8,77.6,19z M71.9,15.3c-2.5-2.1-5.3-1.6-8,0.7C67.9,17,70.4,17.3,71.9,15.3z  M95.4,66.6c1-1,2-2.8,2.6-5.1c-3.5,1.3-5.5,2.9-6.1,6.1C93.2,67.9,94.4,67.6,95.4,66.6z M97.2,59.5c0.9-1.2,1.5-3,1.8-5.4  c-3.2,1.9-4.9,3.7-5,7C95.3,61.2,96.4,60.7,97.2,59.5L97.2,59.5z M97.9,52.3c0.7-1.3,1-3.2,0.9-5.6c-2.9,2.3-4.3,4.4-3.8,7.6  C96.2,54.2,97.2,53.6,97.9,52.3z M97.3,45c0.4-1.4,0.5-3.3,0-5.7c-2.5,2.7-3.5,5-2.5,8.1C96,47.2,96.9,46.4,97.3,45L97.3,45z  M95.6,37.9c0.2-1.4-0.1-3.3-1-5.6c-2,3.1-2.7,5.4-1.2,8.4C94.7,40.3,95.4,39.4,95.6,37.9z M92.8,31.2c0-1.4-0.6-3.3-1.8-5.4  c-1.5,3.3-1.8,5.8,0.2,8.5C92.3,33.7,92.8,32.6,92.8,31.2L92.8,31.2z M88.9,25c-0.3-1.4-1.2-3.2-2.7-5.1c-0.9,3.5-0.8,6,1.6,8.3  C88.8,27.5,89.2,26.4,88.9,25z M84.1,19.4c-0.5-1.4-1.6-2.9-3.5-4.6c-0.4,3.6,0.2,6,2.9,8C84.4,21.9,84.6,20.8,84.1,19.4z  M78.4,14.6c-0.7-1.3-2.1-2.7-4.2-4c0.2,3.6,1.1,5.9,4.1,7.5C79.1,17.1,79.1,15.9,78.4,14.6L78.4,14.6z M72.1,10.8  c-0.9-1.1-2.5-2.3-4.8-3.3c0.8,3.6,2.1,5.7,5.3,6.7C73.1,13.1,72.9,11.9,72.1,10.8z M59.2,9.8c3.5,2.4,5.8,3.6,8.6,2.7  C66.6,9.9,63.4,9,59.2,9.8z"></path>	<path class="award-4-0" d="M56.8,6.7l-5.2,0L50,1.9l-1.6,4.8l-5.2,0l4.2,2.9l-1.6,4.8l4.2-2.9l4.2,2.9l-1.6-4.8L56.8,6.7z"></path>	<path class="award-4-1" d="M27.6,39.9h-5.3L21.1,43h-1.7l4.9-12.2h1.5L30.5,43h-1.7L27.6,39.9L27.6,39.9z M22.8,38.5h4.2L25,33h-0.1  L22.8,38.5z"></path>	<path class="award-4-1" d="M34.7,38.8l0.2,1.5H35l0.3-1.5l2.3-8h1.5l2.3,8l0.3,1.6h0.1l0.2-1.6l1.9-8h1.7l-3,12.2h-1.5l-2.5-8.4l-0.2-1.1  h-0.1l-0.2,1.1L35.7,43h-1.5l-3-12.2h1.7L34.7,38.8L34.7,38.8z"></path>	<path class="award-4-1" d="M54.3,39.9H49L47.8,43h-1.7L51,30.9h1.5L57.2,43h-1.7L54.3,39.9L54.3,39.9z M49.6,38.5h4.2L51.7,33h-0.1  L49.6,38.5z"></path>	<path class="award-4-1" d="M60.7,37.8V43H59V30.9h4.6c1.4,0,2.4,0.3,3.2,0.9c0.7,0.6,1.1,1.4,1.1,2.6c0,0.6-0.2,1.2-0.5,1.6  c-0.3,0.5-0.8,0.8-1.5,1.1c0.7,0.2,1.2,0.6,1.5,1.1c0.3,0.5,0.5,1.1,0.5,1.8v1.1c0,0.4,0,0.7,0.1,1c0.1,0.3,0.2,0.5,0.4,0.7V43h-1.8  c-0.2-0.2-0.4-0.5-0.4-0.8c-0.1-0.4-0.1-0.7-0.1-1.1V40c0-0.7-0.2-1.2-0.6-1.6c-0.4-0.4-0.9-0.6-1.6-0.6L60.7,37.8L60.7,37.8z  M60.7,36.5h2.7c1,0,1.7-0.2,2.1-0.5c0.4-0.4,0.6-0.9,0.6-1.6c0-0.7-0.2-1.2-0.6-1.6c-0.4-0.4-1.1-0.6-1.9-0.6h-2.9L60.7,36.5  L60.7,36.5z"></path>	<path class="award-4-1" d="M70.7,43V30.9h3.9c1.6,0,3,0.5,4,1.5c1,1,1.5,2.2,1.5,3.8v1.7c0,1.6-0.5,2.8-1.5,3.8c-1,1-2.3,1.5-4,1.5  L70.7,43L70.7,43z M72.4,32.2v9.6h2.2c1.2,0,2.1-0.4,2.8-1.1c0.7-0.7,1-1.7,1-2.9v-1.7c0-1.1-0.3-2.1-1-2.8  c-0.7-0.7-1.6-1.1-2.8-1.1H72.4z"></path>	<path class="award-4-1" d="M29.7,52.1L29.7,52.1l1.5-7.1h2.5l-2.6,10.9h-2.5l-1.9-6.7h0l-1.9,6.7h-2.5L19.8,45h2.5l1.5,7.1h0l2-7.1h1.8  L29.7,52.1z"></path>	<path class="award-4-1" d="M37.5,55.9h-2.6V45h2.6V55.9z"></path>	<path class="award-4-1" d="M48.8,55.9h-2.6L42.1,49l0,0v6.9h-2.6V45H42l4.1,6.9l0,0V45h2.6V55.9z"></path>	<path class="award-4-1" d="M59.9,55.9h-2.6L53.2,49l0,0v6.9h-2.6V45h2.6l4.1,6.9l0,0V45h2.6V55.9z"></path>	<path class="award-4-1" d="M68.7,51.2h-4.4v2.7h5.2v1.9h-7.8V45h7.8V47h-5.2v2.3h4.4V51.2L68.7,51.2z"></path>	<path class="award-4-1" d="M73.3,51.7v4.2h-2.6V45H75c1.3,0,2.3,0.3,3.1,0.9c0.8,0.6,1.1,1.4,1.1,2.4c0,0.6-0.2,1-0.5,1.4  c-0.3,0.4-0.8,0.7-1.4,1c0.7,0.2,1.2,0.5,1.5,0.9c0.3,0.4,0.5,1,0.5,1.6V54c0,0.3,0,0.6,0.1,1c0.1,0.4,0.2,0.6,0.5,0.8v0.1h-2.7  c-0.2-0.2-0.3-0.4-0.4-0.8c-0.1-0.4-0.1-0.8-0.1-1.1v-0.7c0-0.5-0.1-0.9-0.4-1.2c-0.3-0.3-0.7-0.4-1.2-0.4H73.3L73.3,51.7z  M73.3,49.8H75c0.5,0,0.9-0.1,1.2-0.3c0.3-0.2,0.4-0.6,0.4-1c0-0.4-0.1-0.8-0.4-1.1c-0.3-0.3-0.7-0.4-1.2-0.4h-1.7L73.3,49.8  L73.3,49.8z"></path>	<path class="award-4-0" d="M29.2,74.9h-0.9l-3.1-4.7h0v4.7h-0.9v-6.1h0.9l3.1,4.7h0v-4.7h0.9V74.9z"></path>	<path class="award-4-0" d="M35.6,72.3c0,0.8-0.2,1.4-0.7,1.9C34.4,74.7,33.7,75,33,75s-1.3-0.2-1.8-0.7c-0.5-0.5-0.7-1.1-0.7-1.9v-1.1  c0-0.7,0.2-1.4,0.7-1.9c0.5-0.5,1.1-0.7,1.8-0.7c0.7,0,1.4,0.2,1.9,0.7c0.5,0.5,0.7,1.1,0.7,1.9V72.3L35.6,72.3z M34.7,71.2  c0-0.6-0.2-1-0.5-1.4c-0.3-0.4-0.7-0.5-1.3-0.5c-0.5,0-0.9,0.2-1.2,0.5c-0.3,0.4-0.4,0.8-0.4,1.4v1.1c0,0.6,0.1,1,0.4,1.4  c0.3,0.4,0.7,0.5,1.2,0.5c0.5,0,1-0.2,1.3-0.5c0.3-0.4,0.5-0.8,0.5-1.4L34.7,71.2L34.7,71.2z"></path>	<path class="award-4-0" d="M38,68.7l2,5h0l2-5h1.1v6.1h-0.9v-2.4l0.1-2.5h0l-2.1,4.9h-0.6l-2-4.9h0l0.1,2.5v2.4h-0.9v-6.1H38L38,68.7z"></path>	<path class="award-4-0" d="M45.6,74.9h-0.9v-6.1h0.9V74.9z"></path>	<path class="award-4-0" d="M52,74.9h-0.9l-3.1-4.7h0v4.7h-0.9v-6.1h0.9l3.1,4.7h0v-4.7H52V74.9z"></path>	<path class="award-4-0" d="M57,73.3h-2.7l-0.6,1.6h-0.9l2.5-6.1h0.7l2.4,6.1h-0.9L57,73.3z M54.6,72.6h2.1l-1-2.8h0L54.6,72.6z"></path>	<path class="award-4-0" d="M63.7,69.4h-2v5.5h-0.9v-5.5h-2v-0.7h4.9L63.7,69.4L63.7,69.4z"></path>	<path class="award-4-0" d="M65.5,74.9h-0.9v-6.1h0.9V74.9z"></path>	<path class="award-4-0" d="M71.9,72.3c0,0.8-0.2,1.4-0.7,1.9c-0.5,0.5-1.1,0.7-1.9,0.7c-0.8,0-1.3-0.2-1.8-0.7c-0.5-0.5-0.7-1.1-0.7-1.9  v-1.1c0-0.7,0.2-1.4,0.7-1.9c0.5-0.5,1.1-0.7,1.8-0.7c0.7,0,1.4,0.2,1.9,0.7c0.5,0.5,0.7,1.1,0.7,1.9V72.3L71.9,72.3z M71.1,71.2  c0-0.6-0.2-1-0.5-1.4c-0.3-0.4-0.7-0.5-1.3-0.5c-0.5,0-0.9,0.2-1.2,0.5c-0.3,0.4-0.4,0.8-0.4,1.4v1.1c0,0.6,0.1,1,0.4,1.4  c0.3,0.4,0.7,0.5,1.2,0.5c0.5,0,1-0.2,1.3-0.5c0.3-0.4,0.5-0.8,0.5-1.4L71.1,71.2L71.1,71.2z"></path>	<path class="award-4-0" d="M78,74.9h-0.9l-3.1-4.7h0v4.7h-0.9v-6.1h0.9l3.1,4.7h0v-4.7H78V74.9z"></path>	<path class="award-4-0" d="M44.2,82.5h-0.9l-3.1-4.7h0v4.7h-0.9v-6.1h0.9l3.1,4.7h0v-4.7h0.9V82.5z"></path>	<path class="award-4-0" d="M49.2,80.9h-2.7l-0.6,1.6h-0.9l2.5-6.1h0.7l2.4,6.1h-0.9L49.2,80.9z M46.8,80.2h2.1l-1-2.8h0L46.8,80.2z"></path>	<path class="award-4-0" d="M52.6,76.3l2,5h0l2-5h1.1v6.1h-0.9V80l0.1-2.5h0l-2.1,4.9h-0.6l-2-4.9h0l0.1,2.5v2.4h-0.9v-6.1H52.6L52.6,76.3z  "></path>	<path class="award-4-0" d="M63.1,79.6h-2.9v2.2h3.4v0.7h-4.2v-6.1h4.2V77h-3.3v2h2.9L63.1,79.6L63.1,79.6z"></path>	<path class="award-4-2" d="M19.5,62.4H81"></path></svg>