<svg xmlns="http://www.w3.org/2000/svg" xmlns:xlink="http://www.w3.org/1999/xlink" x="0px" y="0px" viewBox="0 0 100 100" xml:space="preserve">	<style type="text/css">		.award-1-0 {fill:#3B271E; }		.award-1-1 {fill:#FFFFFF; }	</style>	<path class="award-1-0" d="M40.7,71.4v-7.1h1.8c0.6,0,1.1,0.2,1.4,0.5c0.3,0.3,0.5,0.8,0.5,1.4c0,0.4-0.1,0.7-0.3,0.9  c-0.2,0.3-0.4,0.5-0.7,0.6c0.4,0.1,0.7,0.3,0.9,0.6c0.2,0.3,0.3,0.7,0.3,1.2c0,0.6-0.2,1.1-0.5,1.5c-0.3,0.3-0.8,0.5-1.4,0.5  L40.7,71.4L40.7,71.4z M41.3,67.4h1.4c0.4,0,0.7-0.1,0.9-0.4c0.2-0.2,0.3-0.6,0.3-1c0-0.4-0.1-0.8-0.3-1s-0.6-0.3-1-0.3h-1.2  L41.3,67.4L41.3,67.4z M41.3,67.9v2.9h1.5c0.4,0,0.7-0.1,1-0.4c0.2-0.3,0.3-0.6,0.3-1.1c0-0.4-0.1-0.8-0.3-1.1  c-0.2-0.3-0.5-0.4-0.9-0.4H41.3z"></path>	<path class="award-1-0" d="M49.3,67.9h-2.8v2.9h3.2v0.5H46v-7.1h3.8v0.5h-3.2v2.7h2.8V67.9L49.3,67.9z"></path>	<path class="award-1-0" d="M54.1,69.6c0-0.4-0.1-0.7-0.3-1c-0.2-0.2-0.6-0.5-1.2-0.6c-0.6-0.2-1.1-0.5-1.5-0.8c-0.3-0.3-0.5-0.7-0.5-1.3  c0-0.5,0.2-1,0.6-1.3c0.4-0.3,0.9-0.5,1.4-0.5c0.6,0,1.1,0.2,1.5,0.6c0.4,0.4,0.6,0.9,0.5,1.5l0,0h-0.6c0-0.5-0.1-0.9-0.4-1.2  c-0.3-0.3-0.6-0.5-1.1-0.5c-0.5,0-0.8,0.1-1,0.4c-0.2,0.3-0.4,0.6-0.4,0.9c0,0.4,0.1,0.6,0.4,0.9c0.2,0.2,0.6,0.5,1.2,0.6  c0.6,0.2,1.1,0.5,1.4,0.8c0.3,0.3,0.5,0.8,0.5,1.3c0,0.5-0.2,1-0.6,1.4c-0.4,0.3-0.9,0.5-1.5,0.5c-0.6,0-1.1-0.2-1.5-0.5  c-0.4-0.4-0.6-0.9-0.6-1.6l0,0H51c0,0.6,0.2,1,0.5,1.2c0.3,0.3,0.7,0.4,1.1,0.4c0.4,0,0.8-0.1,1.1-0.4C54,70.3,54.1,70,54.1,69.6  L54.1,69.6z"></path>	<path class="award-1-0" d="M59.9,64.7h-2v6.6h-0.6v-6.6h-2v-0.5h4.5V64.7z"></path>	<path class="award-1-0" d="M41.1,78.7L41.1,78.7c0,0.8-0.2,1.4-0.5,1.8c-0.4,0.4-0.9,0.6-1.7,0.6c-0.7,0-1.3-0.2-1.8-0.7  c-0.4-0.5-0.7-1.1-0.7-1.9v-2.1c0-0.8,0.2-1.5,0.6-1.9c0.4-0.5,1-0.7,1.7-0.7c0.8,0,1.3,0.2,1.7,0.6c0.4,0.4,0.6,1,0.6,1.8l0,0h-1.3  c0-0.5,0-0.8-0.2-1c-0.1-0.2-0.4-0.3-0.8-0.3c-0.3,0-0.6,0.1-0.7,0.4c-0.2,0.2-0.3,0.6-0.3,1.1v2.1c0,0.5,0.1,0.9,0.3,1.1  c0.2,0.2,0.4,0.4,0.8,0.4s0.6-0.1,0.7-0.3c0.1-0.2,0.2-0.5,0.2-1H41.1L41.1,78.7z"></path>	<path class="award-1-0" d="M46.7,78.5c0,0.8-0.2,1.5-0.7,2c-0.4,0.5-1.1,0.7-1.8,0.7c-0.7,0-1.3-0.2-1.8-0.7c-0.4-0.5-0.7-1.1-0.7-2v-2  c0-0.8,0.2-1.5,0.7-2c0.4-0.5,1-0.7,1.8-0.7c0.7,0,1.3,0.2,1.8,0.7c0.5,0.5,0.7,1.1,0.7,2V78.5z M45.3,76.5c0-0.5-0.1-0.9-0.3-1.2  c-0.2-0.3-0.5-0.4-0.8-0.4c-0.4,0-0.6,0.1-0.8,0.4c-0.2,0.3-0.3,0.6-0.3,1.2v2c0,0.5,0.1,0.9,0.3,1.2c0.2,0.3,0.5,0.4,0.8,0.4  c0.4,0,0.6-0.1,0.8-0.4c0.2-0.3,0.3-0.6,0.3-1.2V76.5z"></path>	<path class="award-1-0" d="M50.8,79.5h-1.9L48.5,81h-1.4l2-7.1h1.4l2,7.1h-1.4L50.8,79.5L50.8,79.5z M49.2,78.4h1.3l-0.6-2.5h0L49.2,78.4z  "></path>	<path class="award-1-0" d="M57.6,78.7L57.6,78.7c0,0.8-0.2,1.4-0.5,1.8c-0.4,0.4-0.9,0.6-1.7,0.6c-0.7,0-1.3-0.2-1.8-0.7  c-0.4-0.5-0.7-1.1-0.7-1.9v-2.1c0-0.8,0.2-1.5,0.6-1.9c0.4-0.5,1-0.7,1.7-0.7c0.8,0,1.3,0.2,1.7,0.6c0.4,0.4,0.6,1,0.6,1.8l0,0h-1.3  c0-0.5,0-0.8-0.2-1c-0.1-0.2-0.4-0.3-0.8-0.3c-0.3,0-0.6,0.1-0.7,0.4c-0.2,0.2-0.3,0.6-0.3,1.1v2.1c0,0.5,0.1,0.9,0.3,1.1  c0.2,0.2,0.4,0.4,0.8,0.4c0.3,0,0.6-0.1,0.7-0.3c0.1-0.2,0.2-0.5,0.2-1H57.6L57.6,78.7z"></path>	<path class="award-1-0" d="M63.4,81H62v-3h-2.2v3h-1.4v-7.1h1.4V77H62v-3.1h1.4V81z"></path>	<path class="award-1-0" d="M38.8,14.6l1.5,4.1h19.4l1.5-4.1H38.8z"></path>	<path class="award-1-0" d="M56.4,11.3l-1.9,1.9l1.9,1.9l1.9-1.9L56.4,11.3z"></path>	<path class="award-1-0" d="M43.6,11.2l-1.9,1.9l1.9,1.9l1.9-1.9L43.6,11.2z"></path>	<path class="award-1-0" d="M55.2,6.3c-1.3-1-3.7-0.5-4.6,3.9c0-5.7,2.9-4.3-0.6-9.2c-3.5,4.8-0.6,3.5-0.6,9.2c-0.9-4.3-3.3-4.9-4.6-3.9  c-1.5,1.2-1.4,4.7,1.8,4.7c-1-1.1-1.1-2.5-0.4-2.9c0.8-0.4,2.1,0.8,2.5,2.7h2.4c0.4-1.9,1.8-3,2.5-2.7c0.7,0.4,0.7,1.7-0.4,2.9  C56.6,10.9,56.7,7.5,55.2,6.3z"></path>	<path class="award-1-0" d="M48.9,12.5L48.9,12.5c-0.1,0.9-0.4,1.6-0.9,2.1h4c-0.5-0.5-0.8-1.2-0.9-2.1H48.9z"></path>	<path class="award-1-0" d="M48.1,12.6L48.1,12.6c-0.3-0.2-0.6-0.6-0.6-1c0-0.5,0.4-1,0.9-1h3c0.5,0,0.9,0.4,0.9,1c0,0.4-0.2,0.7-0.6,0.9  v0.1h-0.4H48.1z"></path>	<path class="award-1-1" d="M51.5,11c0.3,0,0.6,0.3,0.6,0.6c0,0.3-0.2,0.6-0.6,0.6h-0.4h-2.6c-0.3,0-0.6-0.3-0.6-0.6c0-0.3,0.3-0.6,0.6-0.6  H51.5z M51.5,10.3h-3c-0.7,0-1.3,0.6-1.3,1.3c0,0.5,0.2,0.9,0.6,1.1V13h0.7h0.4h3.3v-0.2c0.3-0.2,0.6-0.6,0.6-1.1  C52.8,10.9,52.2,10.3,51.5,10.3L51.5,10.3z"></path>	<path class="award-1-0" d="M38.7,10.8L38.7,10.8c-0.2-1.9,0.6-3,1.5-2.7c0.8,0.4,1.3,1.7,0.7,2.9c3.2,0,2.1-3.5,0.1-4.7  c-1.7-1-3.7-0.5-3,3.9c-2.2-6.2,1.7-3.8-4-9.2l3.5,9.8H38.7z"></path>	<path class="award-1-0" d="M39.1,12.5h-1.1l0.8,2.1h2C40.1,14.1,39.5,13.4,39.1,12.5z"></path>	<path class="award-1-0" d="M37.7,12.6L37,10.7h2c0.5,0,0.9,0.4,1.1,0.8c0.1,0.3,0.1,0.6-0.1,0.8c-0.1,0.1-0.1,0.2-0.2,0.2v0.1h-0.4H37.7z"></path>	<path class="award-1-1" d="M39,11c0.3,0,0.6,0.3,0.8,0.6c0.1,0.3,0,0.6-0.3,0.6H39H38L37.5,11H39z M39,10.3h-2.6l0.4,1l0.4,1.2l0.2,0.5h3  l-0.1-0.4c0,0,0-0.1,0.1-0.1c0.2-0.3,0.3-0.7,0.1-1.1C40.3,10.8,39.7,10.3,39,10.3L39,10.3z"></path>	<path class="award-1-0" d="M61.3,10.8L61.3,10.8c0.2-1.9-0.6-3-1.5-2.7c-0.8,0.4-1.3,1.7-0.7,2.9c-3.2,0-2.1-3.5-0.1-4.7  c1.7-1,3.7-0.5,3,3.9c2.2-6.2-1.7-3.8,4-9.2l-3.5,9.8H61.3z"></path>	<path class="award-1-0" d="M60.9,12.5H62l-0.8,2.1h-2C59.9,14.1,60.5,13.4,60.9,12.5L60.9,12.5z"></path>	<path class="award-1-0" d="M60,12.6l0.1-0.2c-0.1,0-0.1-0.1-0.1-0.1c-0.1-0.2-0.2-0.5-0.1-0.8c0.2-0.5,0.7-0.8,1.1-0.8h2l-0.7,1.9L60,12.6  L60,12.6z"></path>	<path class="award-1-1" d="M62.5,11l-0.4,1.2h-1.5c-0.3,0-0.5-0.3-0.3-0.6c0.1-0.3,0.5-0.6,0.8-0.6H62.5 M63.5,10.3H61  c-0.6,0-1.2,0.5-1.5,1.1c-0.1,0.4-0.1,0.8,0.1,1.1c0,0,0,0,0,0.1L59.5,13h1H61h1.6l0.2-0.5l0.4-1.2L63.5,10.3L63.5,10.3z"></path>	<path class="award-1-0" d="M14.5,63.9c-0.4,1-0.7,1.9-0.9,3c-0.2,1.1-0.1,2.2,0.1,3.4c0.2,1.1,0.7,2.3,1.3,3.7c0.6,1.1,1.4,2.2,2.1,3.3  c-0.4-0.9-0.7-1.9-0.8-2.8c-0.3-1.6-0.1-3,0.1-4.3c0.1-0.9,0.3-1.7,0.4-2.5c0.1-1.1,0.2-2.1,0.1-3.2c-0.1-1-0.2-2.1-0.4-3.4  c-0.1-0.7-0.2-1.4-0.3-2c-0.1,0.6-0.3,1.2-0.5,1.7C15.3,61.9,14.9,62.9,14.5,63.9z"></path>	<path class="award-1-0" d="M17.9,72.1c-0.2,1-0.3,2-0.2,3.1c0.1,1.1,0.4,2.2,1,3.3c0.5,1,1.2,2.1,2.2,3.3c0.9,0.9,1.8,1.8,2.7,2.6  c-0.6-0.8-1.1-1.7-1.5-2.5c-0.6-1.5-0.8-2.9-0.9-4.2c-0.1-0.9-0.1-1.7-0.2-2.6C21,74,20.8,73,20.5,72c-0.3-1-0.7-2-1.2-3.2  c-0.3-0.6-0.5-1.2-0.7-1.8c0,0.6,0,1.2-0.1,1.8C18.3,70,18.1,71,17.9,72.1L17.9,72.1z"></path>	<path class="award-1-0" d="M23.1,79.1c0.1,1,0.2,2,0.6,3c0.3,1,0.9,2,1.7,3c0.7,0.9,1.7,1.8,2.9,2.7c1.1,0.7,2.1,1.3,3.2,1.9  c-0.8-0.6-1.5-1.4-2-2.1c-1-1.3-1.4-2.6-1.8-3.9c-0.3-0.8-0.5-1.6-0.8-2.4c-0.4-1-0.8-2-1.4-2.9c-0.5-0.9-1.2-1.8-2-2.9  c-0.4-0.5-0.8-1-1.1-1.6c0.1,0.6,0.3,1.2,0.3,1.8C23,77,23,78,23.1,79.1L23.1,79.1z"></path>	<path class="award-1-0" d="M29.8,84.7c0.3,1,0.7,1.9,1.3,2.8c0.6,0.9,1.4,1.8,2.4,2.5c0.9,0.7,2,1.3,3.4,1.9c1.2,0.4,2.4,0.8,3.6,1.1  c-0.9-0.4-1.7-1-2.4-1.6c-1.2-1.1-2-2.2-2.7-3.3c-0.5-0.8-0.9-1.5-1.3-2.2c-0.6-0.9-1.2-1.7-2-2.5c-0.7-0.7-1.5-1.5-2.6-2.3  c-0.5-0.4-1-0.8-1.4-1.3c0.3,0.5,0.5,1.1,0.7,1.6C29.2,82.7,29.5,83.7,29.8,84.7z"></path>	<path class="award-1-0" d="M21,30.5c-1,0.2-2,0.5-2.9,1c-0.9,0.5-1.9,1.2-2.7,2.1c-0.8,0.8-1.5,1.9-2.2,3.2c-0.5,1.2-1,2.4-1.4,3.6  c0.5-0.9,1.1-1.7,1.8-2.3c1.1-1.1,2.4-1.8,3.5-2.4c0.8-0.4,1.5-0.7,2.3-1.1c1-0.5,1.8-1.1,2.7-1.8c0.8-0.6,1.6-1.4,2.5-2.4  c0.5-0.5,1-1,1.5-1.4c-0.6,0.2-1.1,0.4-1.7,0.6C23.1,30.1,22.1,30.3,21,30.5L21,30.5z"></path>	<path class="award-1-0" d="M27.2,24.3c-1,0-2,0-3.1,0.3c-1,0.2-2.1,0.7-3.1,1.4c-0.9,0.6-1.9,1.5-2.9,2.6c-0.8,1-1.5,2-2.2,3.1  c0.7-0.7,1.5-1.3,2.2-1.8c1.4-0.8,2.7-1.2,4-1.5c0.9-0.2,1.7-0.3,2.5-0.5c1-0.3,2-0.6,3-1.1c0.9-0.4,1.9-1,3-1.7  c0.5-0.3,1.1-0.7,1.6-1c-0.6,0.1-1.2,0.1-1.8,0.2C29.3,24.4,28.3,24.3,27.2,24.3L27.2,24.3z"></path>	<path class="award-1-0" d="M37.6,88.6c0.5,0.9,1.1,1.7,1.9,2.4c0.8,0.7,1.7,1.4,2.9,1.9c1,0.5,2.3,0.8,3.8,1.1c1.3,0.1,2.6,0.2,3.9,0.2  c-1-0.2-1.9-0.5-2.7-0.9c-1.4-0.7-2.5-1.7-3.4-2.6c-0.6-0.6-1.2-1.2-1.8-1.8c-0.8-0.7-1.6-1.4-2.5-2c-0.9-0.5-1.8-1.1-3-1.6  c-0.6-0.3-1.2-0.6-1.8-0.9c0.4,0.5,0.8,1,1.1,1.4C36.5,86.8,37.1,87.7,37.6,88.6L37.6,88.6z"></path>	<path class="award-1-0" d="M13.1,55.2c-0.6,0.8-1.2,1.7-1.5,2.7c-0.4,1-0.6,2.1-0.7,3.4c0,1.1,0.1,2.4,0.4,3.9c0.4,1.2,0.8,2.4,1.2,3.6  c-0.2-1-0.2-2-0.1-2.9c0.1-1.6,0.6-2.9,1.1-4.1c0.3-0.8,0.7-1.6,1-2.4c0.4-1,0.7-2,0.9-3.1c0.2-1,0.3-2.1,0.4-3.5  c0-0.6,0.1-1.3,0.2-1.9c-0.3,0.5-0.6,1.1-0.9,1.6C14.4,53.5,13.7,54.3,13.1,55.2L13.1,55.2z"></path>	<path class="award-1-0" d="M16.4,38.1c-0.9,0.5-1.8,1-2.6,1.7c-0.8,0.7-1.5,1.6-2.1,2.7c-0.5,1-1,2.2-1.4,3.7c-0.2,1.2-0.4,2.5-0.5,3.7  c0.3-1,0.7-1.9,1.2-2.6c0.8-1.4,1.9-2.3,2.9-3.2c0.7-0.6,1.3-1.1,2-1.6c0.8-0.7,1.5-1.5,2.2-2.4c0.6-0.8,1.2-1.8,1.9-2.9  c0.3-0.5,0.7-1.1,1-1.6c-0.5,0.4-1,0.7-1.5,1C18.3,37.2,17.3,37.6,16.4,38.1L16.4,38.1z"></path>	<path class="award-1-0" d="M8.2,46.8c0.2,0.9,0.4,1.9,0.5,3c0.1-1.3,0.3-2.6,0.5-3.9c0.2-1.6,0.4-2.9,0.4-4.1c0.1-1.3,0.1-2.6,0-3.7  c-0.1-1.2-0.3-2.3-0.5-3.4c-0.2-1.2-0.3-2.4-0.2-4C9,30,9.1,29.3,9.3,28.5c-0.4,0.8-0.9,1.6-1.3,2.4c-0.8,1.6-1.3,3.1-1.6,4.5  c-0.3,1.4-0.4,2.8-0.2,4.1c0.1,1,0.4,2,0.6,2.9C7.3,43.7,7.8,45.1,8.2,46.8L8.2,46.8z"></path>	<path class="award-1-0" d="M7.8,56.9c0.4,0.9,0.8,1.8,1.1,2.8c-0.2-1.3-0.3-2.6-0.4-3.9c-0.2-1.6-0.3-2.9-0.5-4c-0.2-1.3-0.5-2.5-0.9-3.6  C6.8,47,6.3,46,5.9,44.9c-0.4-1.1-0.9-2.3-1.1-3.8c-0.1-0.7-0.2-1.5-0.1-2.3c-0.2,0.9-0.5,1.7-0.7,2.6c-0.4,1.8-0.5,3.3-0.5,4.7  c0,1.4,0.3,2.8,0.8,4c0.4,1,0.8,1.8,1.3,2.7C6.2,54,7,55.3,7.8,56.9L7.8,56.9z"></path>	<path class="award-1-0" d="M38.3,95.4c-1.2,0.2-2.2,0.5-3.3,0.8c-1.2,0.3-2.4,0.5-3.9,0.6c-0.7,0-1.5-0.1-2.3-0.2c0.9,0.4,1.7,0.8,2.6,1.1  c1.7,0.7,3.2,1,4.6,1.2c1.4,0.2,2.8,0.1,4.1-0.2c1-0.2,1.9-0.5,2.8-0.9c1.4-0.5,2.7-1.2,4.4-1.7c0.9-0.3,1.9-0.5,2.9-0.7  c-1.3,0-2.7-0.1-4-0.2c-1.5-0.1-2.9-0.1-4-0.1C40.6,95.1,39.4,95.2,38.3,95.4z"></path>	<path class="award-1-0" d="M10.9,37.1c0,1-0.1,2-0.2,3c0.4-1.3,0.9-2.5,1.5-3.8c0.6-1.5,1-2.7,1.4-3.8c0.4-1.3,0.7-2.5,0.9-3.6  c0.2-1.2,0.2-2.3,0.3-3.4c0.1-1.2,0.3-2.5,0.7-3.9c0.2-0.7,0.5-1.4,0.9-2.2c-0.6,0.7-1.3,1.4-1.9,2.1c-1.2,1.4-2,2.7-2.6,4  c-0.6,1.3-1,2.6-1.2,3.9c-0.1,1-0.1,2-0.1,3C10.8,33.9,11,35.4,10.9,37.1L10.9,37.1z"></path>	<path class="award-1-0" d="M15.9,28.3c-0.2,0.9-0.6,1.9-0.9,2.9c0.7-1.1,1.4-2.2,2.2-3.2c0.9-1.3,1.6-2.4,2.2-3.4c0.7-1.1,1.3-2.2,1.7-3.3  c0.5-1.1,0.8-2.1,1.1-3.3c0.4-1.1,0.8-2.3,1.6-3.6c0.4-0.6,0.9-1.3,1.4-1.9c-0.7,0.5-1.5,1-2.2,1.5c-1.5,1.1-2.6,2.2-3.4,3.2  c-0.9,1.1-1.6,2.3-2,3.5c-0.4,1-0.6,1.9-0.8,2.9C16.6,25.1,16.4,26.6,15.9,28.3L15.9,28.3z"></path>	<path class="award-1-0" d="M9.7,66.7c0.6,0.7,1.2,1.6,1.8,2.4c-0.5-1.2-0.9-2.4-1.3-3.7c-0.5-1.5-1-2.7-1.4-3.8c-0.5-1.2-1.1-2.3-1.7-3.3  c-0.6-1-1.3-1.9-2-2.8c-0.7-1-1.4-2-2-3.4c-0.3-0.7-0.5-1.4-0.7-2.2c0,0.9-0.1,1.8-0.1,2.7c0,1.8,0.2,3.4,0.6,4.7  c0.4,1.4,0.9,2.7,1.7,3.7c0.6,0.9,1.2,1.6,1.9,2.3C7.5,64.3,8.6,65.4,9.7,66.7L9.7,66.7z"></path>	<path class="award-1-0" d="M14,76c0.8,0.6,1.5,1.2,2.3,1.9c-0.8-1.1-1.5-2.2-2.2-3.4c-0.9-1.3-1.6-2.4-2.3-3.4c-0.8-1.1-1.6-2-2.4-2.8  c-0.8-0.8-1.7-1.5-2.6-2.3c-0.9-0.8-1.8-1.6-2.7-2.9c-0.4-0.6-0.8-1.3-1.2-2c0.2,0.9,0.4,1.9,0.6,2.8c0.5,1.8,1,3.2,1.7,4.4  c0.7,1.3,1.5,2.4,2.5,3.2c0.8,0.7,1.5,1.2,2.4,1.8C11.3,74.2,12.6,75,14,76z"></path>	<path class="award-1-0" d="M37.1,94.2c1-0.1,2-0.1,3,0c-1.3-0.3-2.5-0.7-3.7-1.1c-1.5-0.4-2.8-0.8-3.9-1c-1.3-0.3-2.5-0.5-3.6-0.6  c-1.2-0.1-2.3,0-3.4,0c-1.2,0-2.4,0-3.9-0.4c-0.7-0.2-1.5-0.4-2.2-0.7c0.7,0.5,1.4,1.1,2.1,1.6c1.5,1,2.9,1.8,4.1,2.3  c1.3,0.5,2.7,0.8,4,0.8c1,0,2-0.1,3-0.2C34,94.6,35.4,94.3,37.1,94.2L37.1,94.2z"></path>	<path class="award-1-0" d="M28,90.1c0.9,0.2,1.9,0.4,2.9,0.7c-1.1-0.6-2.3-1.2-3.4-2c-1.3-0.8-2.5-1.4-3.6-1.9c-1.2-0.6-2.3-1.1-3.4-1.4  c-1.1-0.4-2.2-0.6-3.3-0.8c-1.2-0.3-2.4-0.6-3.7-1.3c-0.7-0.3-1.3-0.7-2-1.2c0.5,0.7,1.1,1.4,1.7,2.1c1.2,1.4,2.4,2.4,3.5,3.2  c1.2,0.8,2.4,1.4,3.7,1.7c1,0.3,1.9,0.4,2.9,0.5C24.9,89.7,26.3,89.8,28,90.1L28,90.1z"></path>	<path class="award-1-0" d="M20.2,83.9c0.9,0.4,1.8,0.8,2.7,1.4c-1-0.9-1.9-1.8-2.8-2.7c-1.1-1.1-2.1-2-3-2.7c-1-0.9-2-1.6-3-2.2  c-1-0.6-2-1.1-3-1.6c-1.1-0.5-2.2-1.2-3.3-2.1c-0.6-0.5-1.1-1-1.6-1.7c0.4,0.8,0.8,1.6,1.2,2.4c0.9,1.6,1.8,2.9,2.7,3.9  c1,1.1,2,1.9,3.2,2.5c0.9,0.5,1.8,0.8,2.7,1.2C17.2,82.8,18.6,83.2,20.2,83.9L20.2,83.9z"></path>	<path class="award-1-0" d="M13.7,46.4c-0.8,0.7-1.5,1.4-2.1,2.2c-0.6,0.9-1.1,1.9-1.4,3.1c-0.3,1.1-0.5,2.4-0.5,3.9  c0.1,1.3,0.2,2.5,0.4,3.8c0.1-1,0.2-2,0.5-2.8c0.5-1.5,1.3-2.7,2.1-3.8c0.5-0.7,1-1.4,1.5-2.1c0.6-0.9,1.1-1.8,1.6-2.8  c0.4-0.9,0.8-2,1.2-3.3c0.2-0.6,0.4-1.2,0.6-1.8c-0.4,0.5-0.8,0.9-1.2,1.3C15.4,45.1,14.5,45.7,13.7,46.4L13.7,46.4z"></path>	<path class="award-1-0" d="M89,47.3c0.5,0.8,0.9,1.7,1.2,2.6c-0.1-1.3-0.3-2.5-0.5-3.7c-0.4-1.5-0.8-2.7-1.4-3.7c-0.6-1.1-1.3-2-2.1-2.7  c-0.8-0.7-1.7-1.2-2.6-1.7c-0.9-0.5-1.9-0.9-3-1.5c-0.5-0.3-1-0.6-1.5-1c0.4,0.5,0.7,1.1,1,1.6c0.7,1.1,1.3,2.1,1.9,2.9  c0.6,0.9,1.4,1.6,2.2,2.4c0.6,0.6,1.3,1.1,2,1.6C87.1,44.9,88.2,45.9,89,47.3L89,47.3z"></path>	<path class="award-1-0" d="M74.6,91.5c-1.2,0-2.3-0.1-3.4,0c-1.1,0.1-2.4,0.3-3.6,0.6c-1.2,0.3-2.4,0.6-3.9,1c-1.2,0.4-2.5,0.8-3.7,1.1  c1,0,2.1,0,3,0c1.7,0.1,3.2,0.4,4.6,0.6c1,0.1,1.9,0.2,3,0.2c1.3,0,2.7-0.3,4-0.8c1.3-0.5,2.7-1.2,4.1-2.3c0.7-0.5,1.4-1.1,2.1-1.6  c-0.8,0.3-1.5,0.6-2.2,0.7C77,91.4,75.8,91.5,74.6,91.5L74.6,91.5z"></path>	<path class="award-1-0" d="M65.1,96.2c-1.1-0.3-2.2-0.6-3.3-0.8c-1.1-0.2-2.4-0.3-3.7-0.3c-1.2,0-2.5,0-4.1,0.1c-1.3,0.1-2.7,0.2-4,0.2  c1,0.2,2,0.5,2.9,0.7c1.6,0.5,3,1.1,4.4,1.7c0.9,0.4,1.8,0.7,2.8,0.9c1.3,0.3,2.7,0.3,4.1,0.2c1.4-0.2,2.9-0.5,4.6-1.2  c0.9-0.4,1.8-0.7,2.6-1.1c-0.8,0.1-1.6,0.2-2.3,0.2C67.5,96.8,66.2,96.5,65.1,96.2L65.1,96.2z"></path>	<path class="award-1-0" d="M62,91.5c-0.7,0.6-1.5,1.1-2.4,1.6c1.2-0.3,2.4-0.7,3.6-1.1c1.4-0.6,2.5-1.2,3.4-1.9c1-0.8,1.8-1.6,2.4-2.5  c0.6-0.9,0.9-1.8,1.3-2.8c0.3-1,0.6-2,1.1-3.2c0.2-0.5,0.5-1.1,0.7-1.6c-0.5,0.4-0.9,0.9-1.4,1.3c-1,0.8-1.8,1.6-2.6,2.3  c-0.7,0.8-1.4,1.6-2,2.5c-0.5,0.7-0.9,1.4-1.3,2.2C64,89.3,63.2,90.5,62,91.5L62,91.5z"></path>	<path class="award-1-0" d="M89,76.1c-1,0.5-2,1-3,1.6c-1,0.6-2,1.3-3,2.2c-0.9,0.8-1.9,1.7-3,2.7c-0.9,0.9-1.8,1.8-2.8,2.7  c0.9-0.5,1.8-1,2.7-1.4c1.6-0.7,3-1.1,4.4-1.6c0.9-0.3,1.8-0.7,2.7-1.2c1.1-0.6,2.2-1.5,3.2-2.5c0.9-1,1.8-2.3,2.7-3.9  c0.4-0.8,0.8-1.6,1.2-2.4c-0.5,0.6-1.1,1.2-1.6,1.7C91.2,74.9,90.1,75.5,89,76.1L89,76.1z"></path>	<path class="award-1-0" d="M89.4,56.6c0.3,0.9,0.5,1.8,0.5,2.8c0.2-1.2,0.3-2.5,0.4-3.8c0-1.5-0.2-2.8-0.5-3.9c-0.3-1.2-0.8-2.3-1.4-3.1  c-0.6-0.9-1.3-1.6-2.1-2.2c-0.8-0.7-1.6-1.3-2.5-2.2c-0.4-0.4-0.8-0.8-1.2-1.3c0.2,0.6,0.4,1.2,0.6,1.8c0.4,1.3,0.8,2.3,1.2,3.3  c0.4,1,0.9,1.9,1.6,2.8c0.5,0.7,1,1.3,1.5,2.1C88.1,54,88.9,55.1,89.4,56.6L89.4,56.6z"></path>	<path class="award-1-0" d="M94.1,44.9c-0.4,1.1-0.9,2.1-1.3,3.2c-0.4,1.1-0.6,2.3-0.9,3.6c-0.2,1.2-0.3,2.5-0.5,4.1  c-0.1,1.3-0.2,2.6-0.4,3.9c0.3-1,0.7-1.9,1.1-2.8c0.7-1.6,1.5-2.8,2.3-4.1c0.5-0.9,0.9-1.7,1.3-2.7c0.5-1.2,0.7-2.6,0.8-4  c0-1.4-0.1-2.9-0.5-4.7c-0.2-0.9-0.4-1.7-0.7-2.6c0,0.8,0,1.6-0.1,2.3C95,42.6,94.5,43.8,94.1,44.9L94.1,44.9z"></path>	<path class="award-1-0" d="M60.5,91.1c0.8-0.7,1.3-1.6,1.9-2.4c0.6-0.9,1.1-1.8,1.8-2.8c0.3-0.5,0.7-1,1.1-1.4c-0.6,0.3-1.2,0.6-1.8,0.9  c-1.2,0.6-2.2,1.1-3,1.6c-0.9,0.6-1.7,1.2-2.5,2c-0.6,0.6-1.2,1.2-1.8,1.8c-0.9,0.9-1.9,1.8-3.4,2.6C51.9,93.7,51,94,50,94.2  c1.3,0,2.6-0.1,3.9-0.2c1.5-0.2,2.7-0.6,3.8-1.1C58.8,92.5,59.8,91.8,60.5,91.1L60.5,91.1z"></path>	<path class="award-1-0" d="M86.5,38.2c0.6,0.6,1.2,1.4,1.8,2.3c-0.4-1.2-0.9-2.5-1.4-3.6c-0.7-1.3-1.5-2.4-2.2-3.2  c-0.8-0.9-1.8-1.6-2.7-2.1c-1-0.5-1.9-0.8-2.9-1c-1-0.2-2.1-0.4-3.2-0.8c-0.6-0.2-1.1-0.4-1.7-0.6c0.5,0.5,1,0.9,1.5,1.4  c0.9,0.9,1.7,1.7,2.5,2.4c0.8,0.7,1.7,1.3,2.7,1.8c0.7,0.4,1.5,0.7,2.3,1.1C84.1,36.4,85.3,37.1,86.5,38.2L86.5,38.2z"></path>	<path class="award-1-0" d="M81.8,30c0.8,0.5,1.5,1.1,2.2,1.8c-0.7-1.1-1.4-2.1-2.2-3.1c-1-1.1-2-2-2.9-2.6c-1-0.7-2.1-1.2-3.1-1.4  c-1-0.3-2-0.3-3.1-0.3c-1.1,0-2.1,0.1-3.3,0c-0.6,0-1.2-0.1-1.8-0.2c0.6,0.3,1.1,0.6,1.6,1c1.1,0.7,2.1,1.3,3,1.7c1,0.5,2,0.8,3,1.1  c0.8,0.2,1.6,0.4,2.5,0.5C79.1,28.8,80.4,29.1,81.8,30L81.8,30z"></path>	<path class="award-1-0" d="M93.2,66.1c-0.9,0.8-1.7,1.4-2.6,2.3c-0.8,0.8-1.6,1.8-2.4,2.8c-0.7,1-1.4,2.1-2.3,3.4  c-0.7,1.2-1.4,2.3-2.2,3.4c0.8-0.7,1.5-1.4,2.3-2c1.4-1,2.7-1.8,3.9-2.6c0.8-0.5,1.6-1.1,2.4-1.8c1-0.9,1.8-2,2.5-3.2  c0.7-1.2,1.2-2.7,1.7-4.4c0.2-0.9,0.4-1.9,0.6-2.8c-0.4,0.7-0.8,1.4-1.2,2C95,64.4,94.1,65.3,93.2,66.1L93.2,66.1z"></path>	<path class="award-1-0" d="M87.6,65.8c0.1,0.9,0,1.9-0.2,2.9c0.5-1.2,0.9-2.4,1.2-3.6c0.3-1.5,0.5-2.8,0.4-3.9c0-1.3-0.3-2.4-0.7-3.4  c-0.4-1-0.9-1.8-1.5-2.7c-0.6-0.9-1.3-1.7-2-2.7c-0.3-0.5-0.6-1-0.9-1.6c0.1,0.6,0.1,1.3,0.2,1.9c0.1,1.3,0.2,2.4,0.4,3.4  c0.2,1.1,0.5,2.1,0.9,3.1c0.3,0.8,0.7,1.5,1,2.4C87,62.9,87.5,64.2,87.6,65.8z"></path>	<path class="award-1-0" d="M82.7,84.6c-1.1,0.3-2.2,0.5-3.3,0.8c-1.1,0.3-2.2,0.8-3.4,1.4c-1.1,0.5-2.2,1.2-3.6,1.9  c-1.1,0.7-2.2,1.4-3.3,1.9c1-0.3,2-0.5,2.9-0.7c1.7-0.3,3.2-0.4,4.6-0.5c1-0.1,1.9-0.2,2.9-0.5c1.3-0.3,2.5-0.9,3.7-1.7  c1.1-0.8,2.3-1.8,3.5-3.2c0.6-0.7,1.1-1.4,1.7-2.1c-0.7,0.5-1.3,0.9-2,1.2C85.1,84,83.9,84.3,82.7,84.6z"></path>	<path class="award-1-0" d="M94.9,55.5c-0.7,1-1.4,1.8-2,2.8c-0.6,1-1.2,2.1-1.7,3.3c-0.5,1.1-0.9,2.4-1.4,3.8c-0.4,1.2-0.8,2.5-1.3,3.7  c0.6-0.9,1.2-1.7,1.8-2.4c1.1-1.3,2.2-2.4,3.2-3.5c0.7-0.7,1.3-1.5,1.9-2.3c0.7-1.1,1.3-2.4,1.7-3.7c0.4-1.3,0.6-2.9,0.6-4.7  c0-0.9,0-1.8-0.1-2.7c-0.2,0.8-0.4,1.6-0.7,2.2C96.3,53.5,95.6,54.6,94.9,55.5L94.9,55.5z"></path>	<path class="award-1-0" d="M77.7,18c0.4,1.1,0.7,2.2,1.1,3.3c0.4,1.1,1,2.2,1.7,3.3c0.6,1,1.4,2.1,2.3,3.4c0.8,1,1.5,2.1,2.2,3.2  c-0.4-1-0.7-1.9-1-2.9c-0.4-1.7-0.7-3.1-0.9-4.6c-0.2-1-0.4-1.9-0.8-2.9c-0.4-1.2-1.1-2.4-2-3.5c-0.9-1.1-2-2.1-3.4-3.2  c-0.7-0.5-1.4-1-2.2-1.5c0.6,0.6,1,1.2,1.4,1.9C76.9,15.7,77.3,16.8,77.7,18L77.7,18z"></path>	<path class="award-1-0" d="M77.8,81.8c-0.3,0.8-0.8,1.7-1.4,2.5c0.9-0.8,1.9-1.7,2.7-2.6c1-1.2,1.7-2.3,2.2-3.3c0.5-1.1,0.9-2.3,1-3.3  c0.1-1.1,0-2.1-0.2-3.1c-0.2-1-0.4-2.1-0.5-3.3c-0.1-0.6-0.1-1.2-0.1-1.8c-0.2,0.6-0.5,1.2-0.7,1.8c-0.5,1.2-0.9,2.3-1.2,3.2  c-0.3,1-0.5,2.1-0.6,3.1c-0.1,0.8-0.1,1.7-0.2,2.6C78.6,78.9,78.4,80.3,77.8,81.8L77.8,81.8z"></path>	<path class="award-1-0" d="M85.2,25.5c0.1,1.2,0.2,2.3,0.3,3.4c0.2,1.1,0.5,2.3,0.9,3.6c0.4,1.1,0.8,2.4,1.4,3.8c0.6,1.2,1,2.5,1.5,3.8  c-0.1-1-0.2-2.1-0.2-3c0-1.7,0.1-3.2,0.2-4.7c0-1,0.1-2-0.1-3c-0.1-1.3-0.5-2.6-1.2-3.9c-0.6-1.2-1.4-2.6-2.6-4  c-0.6-0.7-1.2-1.4-1.9-2.1c0.4,0.7,0.7,1.5,0.9,2.2C85,23.1,85.1,24.3,85.2,25.5L85.2,25.5z"></path>	<path class="award-1-0" d="M90.8,34.7c-0.2,1.2-0.4,2.2-0.5,3.4c-0.1,1.2-0.1,2.4,0,3.7c0.1,1.2,0.3,2.5,0.4,4.1c0.2,1.3,0.4,2.6,0.5,3.9  c0.1-1,0.3-2,0.5-3c0.4-1.7,0.8-3.1,1.3-4.5c0.3-1,0.5-1.9,0.6-2.9c0.2-1.3,0.1-2.7-0.2-4.1c-0.3-1.3-0.8-2.8-1.6-4.5  c-0.4-0.8-0.8-1.6-1.3-2.4c0.2,0.8,0.3,1.6,0.4,2.3C91.2,32.3,91,33.6,90.8,34.7L90.8,34.7z"></path>	<path class="award-1-0" d="M83.6,74.5c-0.1,0.9-0.4,1.8-0.8,2.8c0.8-1.1,1.5-2.2,2.1-3.3c0.7-1.4,1.1-2.6,1.3-3.7c0.3-1.2,0.3-2.4,0.1-3.4  c-0.1-1.1-0.5-2-0.9-3c-0.4-1-0.9-2-1.3-3.1c-0.2-0.6-0.4-1.1-0.5-1.7c-0.1,0.7-0.2,1.4-0.3,2c-0.2,1.3-0.4,2.4-0.4,3.4  c-0.1,1.1,0,2.1,0.1,3.2c0.1,0.8,0.3,1.7,0.4,2.5C83.7,71.5,83.9,72.9,83.6,74.5L83.6,74.5z"></path>	<path class="award-1-0" d="M70.5,87.6c-0.5,0.7-1.2,1.4-2,2.1c1.1-0.6,2.2-1.2,3.2-1.9c1.2-0.9,2.2-1.8,2.9-2.7c0.8-1,1.4-2,1.7-3  c0.4-1,0.5-2,0.6-3c0.1-1.1,0.1-2.1,0.3-3.3c0.1-0.6,0.2-1.2,0.3-1.8c-0.4,0.5-0.7,1-1.1,1.6c-0.8,1.1-1.4,2-2,2.9  c-0.5,0.9-1,1.9-1.4,2.9c-0.3,0.8-0.5,1.6-0.8,2.4C71.9,85,71.4,86.3,70.5,87.6L70.5,87.6z"></path>	<path class="award-1-0" d="M36.1,14.9c-1.6,0.2-3.3,0.5-4.9,1c-1.3,0.4-2.4,0.8-3.4,1.3c-1.1,0.6-2.1,1.3-3,2.1c-1,0.9-1.9,2-2.7,3  c-0.6,0.8-1.2,1.7-1.8,2.5L19,26.7c3.5-3.3,5.6-3.8,9.7-6.3C31.8,18.4,33.2,16.4,36.1,14.9z"></path>	<path class="award-1-0" d="M63.9,14.9c1.6,0.2,3.3,0.5,4.9,1c1.3,0.4,2.4,0.8,3.4,1.3c1.1,0.6,2.1,1.3,3,2.1c1,0.9,1.9,2,2.7,3  c0.6,0.8,1.2,1.7,1.8,2.5l1.3,1.8c-3.5-3.3-5.6-3.8-9.7-6.3C68.2,18.4,66.8,16.4,63.9,14.9z"></path>	<path class="award-1-0" d="M37.8,40.1c0,0.2-0.1,0.3-0.2,0.3h-1.6c-0.2,0-0.2-0.1-0.3-0.3l-0.1-2h-1.1l-0.1,2c0,0.2-0.1,0.3-0.3,0.3h-1.6  c-0.2,0-0.2-0.1-0.2-0.3L33.5,28c0-0.2,0.1-0.3,0.3-0.3h2.4c0.2,0,0.3,0.1,0.3,0.3L37.8,40.1z M35.4,36.1L35,31.2h-0.1l-0.3,4.9  H35.4L35.4,36.1z"></path>	<path class="award-1-0" d="M48.2,28l-2.1,12.2c0,0.2-0.1,0.3-0.3,0.3h-1.6c-0.2,0-0.3-0.1-0.3-0.3l-0.6-4.5h0l-0.6,4.5  c0,0.2-0.1,0.3-0.3,0.3h-1.6c-0.2,0-0.3-0.1-0.3-0.3L38.4,28c0-0.2,0-0.3,0.2-0.3h1.9c0.2,0,0.2,0.1,0.3,0.3l0.8,7.4h0.1l0.6-7.4  c0-0.2,0.1-0.3,0.3-0.3H44c0.2,0,0.2,0.1,0.3,0.3l0.6,7.4H45l0.8-7.4c0-0.2,0.1-0.3,0.3-0.3H48C48.2,27.7,48.2,27.8,48.2,28L48.2,28  z"></path>	<path class="award-1-0" d="M54.4,40.1c0,0.2-0.1,0.3-0.2,0.3h-1.6c-0.2,0-0.2-0.1-0.3-0.3l-0.1-2h-1.1l-0.1,2c0,0.2-0.1,0.3-0.3,0.3H49  c-0.2,0-0.2-0.1-0.2-0.3L50.1,28c0-0.2,0.1-0.3,0.3-0.3h2.4c0.2,0,0.3,0.1,0.3,0.3L54.4,40.1z M52,36.1l-0.3-4.9h-0.1l-0.3,4.9H52  L52,36.1z"></path>	<path class="award-1-0" d="M61.2,40.1c0,0.2,0,0.3-0.2,0.3h-1.6c-0.1,0-0.1,0-0.2-0.1c-0.1,0-0.1-0.1-0.1-0.2l-1.3-4.4v4.7l0-0.2  c0,0.1-0.1,0.2-0.2,0.2h-1.6c-0.2,0-0.3-0.1-0.3-0.3V28c0-0.2,0.1-0.3,0.3-0.3h2.7c0.3,0,0.6,0.1,0.9,0.2c0.3,0.1,0.5,0.3,0.7,0.5  c0.2,0.2,0.4,0.4,0.5,0.7c0.1,0.3,0.2,0.6,0.2,0.9v3c0,0.4-0.1,0.8-0.3,1.2c-0.2,0.4-0.5,0.6-0.9,0.8L61.2,40.1L61.2,40.1z  M57.7,33.3h0.6c0.1,0,0.2,0,0.3-0.1c0.1-0.1,0.1-0.2,0.1-0.3v-2.8c0-0.1,0-0.2-0.1-0.3c-0.1-0.1-0.2-0.1-0.3-0.1h-0.6V33.3  L57.7,33.3z"></path>	<path class="award-1-0" d="M65.3,27.7c0.3,0,0.6,0.1,0.9,0.2s0.5,0.3,0.7,0.5c0.2,0.2,0.4,0.4,0.5,0.7c0.1,0.3,0.2,0.6,0.2,0.9v8.1  c0,0.3-0.1,0.6-0.2,0.9c-0.1,0.3-0.3,0.5-0.5,0.7c-0.2,0.2-0.4,0.4-0.7,0.5c-0.3,0.1-0.6,0.2-0.9,0.2h-2.7c-0.2,0-0.3-0.1-0.3-0.3  V28c0-0.2,0.1-0.3,0.3-0.3H65.3z M65.5,30.1c0-0.1,0-0.2-0.1-0.3c-0.1-0.1-0.2-0.1-0.3-0.1h-0.6v8.8h0.6c0.1,0,0.2,0,0.3-0.1  c0.1-0.1,0.1-0.2,0.1-0.3V30.1L65.5,30.1z"></path>	<path class="award-1-0" d="M35.9,43.9L33.1,60c0,0.2-0.2,0.3-0.4,0.3h-2.1c-0.2,0-0.3-0.1-0.4-0.3l-0.8-6h0l-0.8,6c0,0.2-0.2,0.3-0.4,0.3  h-2.1c-0.2,0-0.3-0.1-0.4-0.3l-2.8-16.1c0-0.2,0.1-0.3,0.3-0.3h2.6c0.2,0,0.3,0.1,0.4,0.3l1.1,9.8h0.1l0.8-9.8  c0-0.2,0.2-0.3,0.4-0.3h1.9c0.2,0,0.3,0.1,0.4,0.3l0.8,9.8h0.1l1.1-9.8c0-0.2,0.2-0.3,0.4-0.3h2.6C35.8,43.6,35.9,43.7,35.9,43.9  L35.9,43.9z"></path>	<path class="award-1-0" d="M40,60c0,0.2-0.1,0.3-0.3,0.3h-2.1c-0.2,0-0.3-0.1-0.3-0.3V43.9c0-0.2,0.1-0.3,0.3-0.3h2.1  c0.2,0,0.3,0.1,0.3,0.3V60z"></path>	<path class="award-1-0" d="M49.8,43.9V60c0,0.2-0.1,0.3-0.3,0.3h-1.5c-0.1,0-0.2,0-0.3-0.1c-0.1-0.1-0.1-0.1-0.2-0.2l-2.5-7.9V60  c0,0.2-0.1,0.3-0.3,0.3h-2.1c-0.2,0-0.3-0.1-0.3-0.3V43.9c0-0.2,0.1-0.3,0.3-0.3h1.6c0.1,0,0.2,0,0.3,0.1c0.1,0.1,0.1,0.1,0.2,0.2  l2.5,7.7v-7.7c0-0.2,0.1-0.3,0.3-0.3h2.1C49.7,43.6,49.8,43.7,49.8,43.9L49.8,43.9z"></path>	<path class="award-1-0" d="M59.5,43.9V60c0,0.2-0.1,0.3-0.3,0.3h-1.5c-0.1,0-0.2,0-0.3-0.1c-0.1-0.1-0.1-0.1-0.2-0.2l-2.5-7.9V60  c0,0.2-0.1,0.3-0.3,0.3h-2.1c-0.2,0-0.3-0.1-0.3-0.3V43.9c0-0.2,0.1-0.3,0.3-0.3h1.6c0.1,0,0.2,0,0.3,0.1c0.1,0.1,0.1,0.1,0.2,0.2  l2.5,7.7v-7.7c0-0.2,0.1-0.3,0.3-0.3h2.1C59.4,43.6,59.5,43.7,59.5,43.9L59.5,43.9z"></path>	<path class="award-1-0" d="M67.5,57.9V60c0,0.2-0.1,0.3-0.3,0.3H62c-0.2,0-0.3-0.1-0.3-0.3V43.9c0-0.2,0.1-0.3,0.3-0.3h5.2  c0.2,0,0.3,0.1,0.3,0.3V46c0,0.2-0.1,0.3-0.3,0.3h-2.7v3.5h2.4c0.2,0,0.3,0.1,0.3,0.3v2.1c0,0.2-0.1,0.3-0.3,0.3h-2.4v4.9h2.7  C67.4,57.6,67.5,57.7,67.5,57.9z"></path>	<path class="award-1-0" d="M76.9,60c0,0.2,0,0.3-0.2,0.3h-2.2c-0.1,0-0.2,0-0.3-0.1c-0.1-0.1-0.1-0.1-0.2-0.2l-1.7-5.9v6.2l0-0.2  c0,0.2-0.1,0.2-0.3,0.2h-2.1c-0.2,0-0.3-0.1-0.3-0.3V43.9c0-0.2,0.1-0.3,0.3-0.3h3.6c0.4,0,0.8,0.1,1.2,0.2c0.4,0.2,0.7,0.4,1,0.6  c0.3,0.3,0.5,0.6,0.6,1c0.2,0.4,0.2,0.8,0.2,1.2v3.9c0,0.6-0.2,1.1-0.4,1.6c-0.3,0.5-0.7,0.8-1.2,1.1L76.9,60L76.9,60z M72.3,51h0.8  c0.2,0,0.3-0.1,0.4-0.2c0.1-0.1,0.2-0.2,0.2-0.4v-3.7c0-0.2-0.1-0.3-0.2-0.4c-0.1-0.1-0.2-0.2-0.4-0.2h-0.8V51L72.3,51z"></path></svg>