<svg xmlns="http://www.w3.org/2000/svg" viewBox="0 0 60 60"><path d="M60,56.21a2.39,2.39,0,0,1-.65.06H34.21c0-.18-.06-.36-.06-.48,0-8.88-.18-17.75.06-26.63s4.25-16,11.51-21A24.67,24.67,0,0,1,59.53,3.73H60v8.76c-.83.06-1.71.06-2.54.18a17.32,17.32,0,0,0-14.4,14A31.23,31.23,0,0,0,42.71,30H60Z"></path><path d="M0,28.32c.18-1.08.24-2.16.47-3.18A25.89,25.89,0,0,1,10.62,8.83a24.69,24.69,0,0,1,14.58-5h.47c.06,0,.06,0,.12.06v8.64a17,17,0,0,0-14.1,7.56A17.18,17.18,0,0,0,8.62,30H25.79V56.27H.47A1.29,1.29,0,0,1,0,56.21Z"></path></svg>