<svg xmlns="http://www.w3.org/2000/svg" xmlns:xlink="http://www.w3.org/1999/xlink" x="0px" y="0px" viewBox="0 0 200 60.2" xml:space="preserve">
	<style type="text/css"> .logo_light { fill: #FFFFFF; } </style>
	<path class="logo_light" d="M30.1,40.4h4.2v-4.2h-4.2V40.4z M30.1,35h4.2v-4.2h-4.2V35z M28.8,35v-4.2h-4.2V35H28.8z M28.8,36.1h-4.2v4.2
		h4.2V36.1z M5.2,14.6L1,17.1v42h4.2V14.6z M31.5,21.8v-20l-2.1-1.2L14.2,9.4c0,16.6,0,33.1,0,49.7h4.2V11.9l9-5.2v15.1L31.5,21.8
		L31.5,21.8z M44.7,9.4L40.5,7v40.8h4.2C44.7,35,44.7,22.2,44.7,9.4L44.7,9.4z M57.9,59.1v-42l-4.2-2.4v40.2H31.5v-5.5h-4.2v9.7
		L57.9,59.1L57.9,59.1z"/>
	<path class="logo_light" d="M198.7,55.6c0.2,0,0.3,0.1,0.3,0.3c0,0.2,0,0.3-0.2,0.4l-6.5,3.1c-0.2,0.1-0.4,0.1-0.6,0.1
		c-0.6,0-1.2-0.3-1.7-1c-0.5-0.7-0.9-1.6-1.1-2.7l-3.3,1.8c-2.4,1.3-4.5,1.9-6.3,1.9c-1.3,0-2.4-0.3-3.2-1c-0.7-0.7-1.1-1.7-1.1-2.9
		c0-1.3,0.5-2.3,1.4-2.9c0.9-0.7,2.7-1.5,5.3-2.3l6.9-2.3v-5.1c0-2.6-0.3-4.4-0.9-5.6c-0.6-1.2-1.5-1.8-2.7-1.8c-2.3,0-3.6,1.7-3.9,5
		c-0.2,2.1-1.3,3.2-3.2,3.2c-1.8,0-2.7-0.8-2.7-2.3c0-1.1,0.7-2.2,2-3.3c1.4-1.1,3.1-2.1,5-2.8c1.9-0.8,3.7-1.1,5.2-1.1
		c1.9,0,3.4,0.6,4.6,1.8c1.2,1.1,1.8,2.9,1.8,5.2v11.2c0,1.3,0.2,2.3,0.6,3c0.4,0.7,1,1,1.8,1c0.6,0,1.4-0.2,2.3-0.6H198.7z
		M188.7,54.8c0-0.2-0.1-0.5-0.1-0.9V49l-4.5,1.6c-1.1,0.4-1.9,0.9-2.3,1.4c-0.5,0.5-0.7,1.1-0.7,1.8c0,0.9,0.3,1.6,0.8,2.1
		c0.5,0.5,1.2,0.8,2,0.8c0.9,0,1.9-0.3,3-0.8L188.7,54.8z"/>
	<path class="logo_light" d="M161,21.1c0.1-0.2,0.2-0.3,0.1-0.4c0-0.1-0.1-0.1-0.4-0.1c-5.6,0-9.8,0.2-12.4,0.5c-2.6,0.3-4.6,1-6.1,2.1
		c-1.4,1.1-2.7,2.8-3.8,5.2c0,0-0.1,0.1-0.3,0.1c-0.4,0-0.5-0.1-0.5-0.3l2.5-10.6c0,0,0.1-0.1,0.3-0.1c0.4,0,0.6,0.1,0.5,0.2
		c0,0.1-0.1,0.3-0.1,0.5c0,0.5,0.2,0.8,0.7,1c0.5,0.2,1.5,0.3,3,0.3h23.1c0.2,0,0.4,0.1,0.4,0.3c0.1,0.2,0.1,0.4,0,0.5l-22.8,37
		c-0.2,0.2-0.2,0.4-0.2,0.4c0,0,0.2,0.1,0.4,0.1h13.9c2.4,0,4.6-0.8,6.4-2.3c1.8-1.5,2.9-3.5,3.4-5.8c0-0.1,0.2-0.2,0.4-0.2
		c0.2,0,0.3,0.1,0.3,0.2l-0.9,8.8c0,0.1-0.1,0.3-0.2,0.4c-0.1,0.1-0.2,0.2-0.4,0.2c-6.3-0.1-16.4-0.1-30.2-0.1
		c-0.2,0-0.4-0.1-0.4-0.3c-0.1-0.2-0.1-0.4,0.1-0.6L161,21.1z"/>
	<path class="logo_light" d="M134.1,55.6c0.2,0,0.3,0.1,0.3,0.3c0,0.2,0,0.3-0.2,0.4l-6.5,3.1c-0.2,0.1-0.4,0.1-0.6,0.1
		c-0.6,0-1.2-0.3-1.7-1c-0.5-0.7-0.9-1.6-1.1-2.7l-3.3,1.8c-2.4,1.3-4.5,1.9-6.3,1.9c-1.3,0-2.4-0.3-3.2-1c-0.7-0.7-1.1-1.7-1.1-2.9
		c0-1.3,0.5-2.3,1.4-2.9c0.9-0.7,2.7-1.5,5.3-2.3l6.9-2.3v-5.1c0-2.6-0.3-4.4-0.9-5.6c-0.6-1.2-1.5-1.8-2.7-1.8c-2.3,0-3.6,1.7-3.9,5
		c-0.2,2.1-1.3,3.2-3.2,3.2c-1.8,0-2.7-0.8-2.7-2.3c0-1.1,0.7-2.2,2-3.3c1.4-1.1,3.1-2.1,5-2.8c1.9-0.8,3.7-1.1,5.2-1.1
		c1.9,0,3.4,0.6,4.6,1.8c1.2,1.1,1.8,2.9,1.8,5.2v11.2c0,1.3,0.2,2.3,0.6,3c0.4,0.7,1,1,1.8,1c0.6,0,1.4-0.2,2.3-0.6H134.1z
		M124.2,54.8c0-0.2-0.1-0.5-0.1-0.9V49l-4.5,1.6c-1.1,0.4-1.9,0.9-2.3,1.4c-0.5,0.5-0.7,1.1-0.7,1.8c0,0.9,0.3,1.6,0.8,2.1
		c0.5,0.5,1.2,0.8,2,0.8c0.9,0,1.9-0.3,3-0.8L124.2,54.8z"/>
	<path class="logo_light" d="M85,20.9c-2.6,0-4.7,0.8-6.4,2.4c-1.6,1.6-2.9,3.9-3.8,7.1c0,0.1-0.1,0.1-0.4,0.1c-0.2,0-0.3-0.1-0.3-0.2
		c0.2-1.6,0.4-3.8,0.6-6.3c0.2-2.6,0.3-4.6,0.3-5.9c0-0.2,0.1-0.3,0.3-0.3c0.3,0,0.4,0.1,0.4,0.3c0,0.9,1.2,1.4,3.5,1.4
		c3.6,0.1,7.9,0.2,12.7,0.2c2.5,0,5.1,0,7.9-0.1l4.3-0.1c1.6,0,2.8-0.1,3.5-0.3c0.8-0.2,1.2-0.6,1.5-1.3c0-0.2,0.2-0.3,0.4-0.3
		c0.2,0,0.3,0.1,0.3,0.3c-0.1,1.3-0.3,3.3-0.4,5.9c-0.1,2.7-0.2,4.8-0.2,6.4c0,0.1-0.1,0.2-0.4,0.2c-0.2,0-0.3-0.1-0.4-0.2
		c-0.4-3.2-1.4-5.6-3-7.1c-1.6-1.6-3.7-2.3-6.3-2.3c-1.2,0-2.1,0.1-2.7,0.3c-0.5,0.2-0.9,0.6-1.1,1.1c-0.2,0.5-0.3,1.3-0.3,2.5v29.1
		c0,1.3,0.1,2.3,0.4,2.8c0.3,0.6,0.8,1,1.5,1.2c0.8,0.2,2,0.3,3.6,0.3c0.1,0,0.2,0.1,0.2,0.4c0,0.3-0.1,0.4-0.2,0.4
		c-1.5,0-2.6,0-3.5-0.1L92,58.9L87,59c-0.9,0-2.1,0.1-3.7,0.1c-0.1,0-0.1-0.1-0.1-0.4c0-0.3,0-0.4,0.1-0.4c1.6,0,2.8-0.1,3.6-0.3
		c0.8-0.2,1.3-0.6,1.6-1.2c0.3-0.6,0.4-1.6,0.4-2.8V24.7c0-1.1-0.1-1.9-0.3-2.4c-0.2-0.5-0.6-0.9-1.1-1.1C87,21,86.2,20.9,85,20.9z"
		/>
</svg>
